<?xml version="1.0" encoding="UTF-8"?>
<svg id="Lag_2" data-name="Lag 2" xmlns="http://www.w3.org/2000/svg" viewBox="0 0 800.22 1037.8">
  <defs>
    <style>
      .cls-1 {
        fill: #f0821f;
        stroke-width: 0px;
      }
    </style>
  </defs>
  <g id="Lag_2-2" data-name="Lag 2">
    <g id="Lag_1-2" data-name="Lag 1-2">
      <g>
        <path class="cls-1" d="m772.68,672.39c9.22-3.55,4.02,5.3,14.47-.27-1.58.7-1.81-.09-2.25-.43,1.15-1.06,4.83-3.43,7.31-3.47l-.89-.68,8.9-4.18c-3.13-2.38-7.77,4.39-10.46,2.35l4.58-2.96-9.11,2.11c3.86-.29,1.99,3.43-1.63,3.26-2.22-2.96-1.34-1-6.56-.46,1.13.21-.04,2.55-2.31,3.39-.81.74-1.47,1.13-2.05,1.34Z"/>
        <path class="cls-1" d="m769.16,682.24c-5.5,6.11-.02,1.28-1.89,6.27,2.06-2.93,10.2-4.46,10.73-9.2l-9.49-.76c1.59-.72,2.73-1.78,4.55-1.69l-1.76-3.89c.44-.2.81-.34,1.2-.49-1.85.55-2.82-.9-4.35-.61-1.63,1.99-4.58,4.24-8.93,6.77-4.05-.51-4.53.41-9.73,2.27-.49,3.48,6.35-1.66,8.34.52-.89.59-2.24.85-2.93.97-2.51,2.59,2.46,1.23,3.13,2.36l5.71-4.03,5.4,1.5h.02Z"/>
        <path class="cls-1" d="m772.68,672.39c-.05.02-.18.08-.18.08.05-.02.12-.05.18-.08Z"/>
        <path class="cls-1" d="m322.06,940.5c-4.27-3.16-1.41-5.35-5.24-7.53l2.34,6.95c.81,2.32,1.66,4.6,2.52,6.93l.29.23c-.81-1.35.02-2.48,1.34-2.73,1.32-.26,3.09.37,4.3,2.47l-.18-2.17c-.26,1.63,3.27,5.27,5.3,5.13-1.33-1.28-.67-1.46.45-1.4,1.13.05,2.73.31,3.28,0-2.64-1.63-5.19-3.44-7.78-5.16-2.57-1.77-5.11-3.59-7.65-5.4-.11.56-.29,1.66,1.03,2.68h0Z"/>
        <path class="cls-1" d="m28.46,675.49c.44-.24.34-.74-1.82-2.23.49.83,1.13,1.54,1.82,2.23Z"/>
        <path class="cls-1" d="m314.44,925.36l1.34,4.36c-.14-1.34-.6-2.89-1.34-4.36Z"/>
        <path class="cls-1" d="m315,978.17c-.32-.56-.67-1.15-1.08-1.78-.01-.01-.02-.01-.04-.03.27.72.54,1.44.83,2.15.19-.1.22-.23.29-.35h0Z"/>
        <path class="cls-1" d="m259.13,864.2c.27.41.49.68.72,1.02-.19-.34-.42-.68-.72-1.02Z"/>
        <path class="cls-1" d="m364.39,1020.34c-.79-1.1-1.57-2.2-2.31-3.28-1.84-1.6-3.65-3.13-5.33-4.74l-1.14-1.17c-.37-.38-.81-.81-.97-1.1l-1.35-1.94c-.67-.45-1.35-.87-2.11-1.48-1.89-2.59-3.05-5.32-8.66-5.72,3.18,3.03,3.96,4.52,4.32,5.92.37,1.39.27,2.75,1.92,5.39-.6-.3-1.21-.59-1.8-.9-1.14.17,1.87,2.06,2.49,2.54-1.32-2.12,2.88.15,2.17-1.48l1,.79.5.4.25.2.38.26c1.05.71,2.11,1.41,3.34,2.13l7.3,4.2v-.02Z"/>
        <path class="cls-1" d="m111.54,760.2l.12-.26c-.06.06-.12.13-.12.26Z"/>
        <path class="cls-1" d="m111.54,760.21l-.52,1.06c1.32,1.27.46-.34.52-1.06Z"/>
        <path class="cls-1" d="m316.81,932.97c-.35-1.07-.7-2.15-1.03-3.25.12,1.12.02,2.05-.28,2.64.46.21.97.41,1.31.61Z"/>
        <path class="cls-1" d="m316.11,942.3c2.43,3.21,4.83,5.4,6.68,7.56l-1.13-3.01c-1.84-1.53-3.73-2.98-5.54-4.55h0Z"/>
        <path class="cls-1" d="m269.05,871.79l-2.76,4.55c2.35,2.24,5.49,5.27,7.4,6.94-2.49-3.23-4.71-6.5-4.23-9.77,2.03,1.66,4.83,4.49,7.38,6.74,2.57,2.22,4.87,3.85,5.9,3.15,1.64,3.18,2.93,6.37,4.09,9.59,1.18,3.18,2.19,6.43,3.33,9.61,1.14,3.17,2.32,6.4,3.86,9.5.76,1.56,1.59,3.12,2.52,4.66.94,1.53,1.99,3.03,3.15,4.52,2.38,1.76,4.05,1.81,5,1.08.95-.73,1.18-2.2.77-3.58,4.65,3.92,1.84,4.93,3.99,8.8-1.39-4.94-.61-3.83,3.18-4.85.74.78,1.33,1.7,1.81,2.65-3.03-10.12-5.62-20.19-7.84-30.3-.75-3.27-4.12-5.7-7.42-8.04-1.65-1.17-3.29-2.29-4.57-3.43-1.27-1.16-2.19-2.33-2.4-3.57.09,2.69-3.91,2.36-6.31-1.18-.12-1.09,1.19-.41,2.18-.3-6.55-3.39-14.68-9.97-14.97-16.05l-.28,4.89c-2.74-5.31-5.42-7.94-6.28-12.45-.23.5.39,1.71-.33,2.14-3.82-1.17-3.75-6.66-6.83-8.3l1.16,2.41c-.42,1.03-2.59-1.56-3.68-2.86-1.37-1.92-2.97-7.16.91-4.82l-3.66-2.88c.23-.51,1.22-.34,1.72-.24-3.45.49-7.89-7.03-10.19-4.16.72,3.49-.73,4.33,2.31,8.8,6.45.11,8.1,9.25,13.72,14.07-.02,2.75-1.04,2.57,1.79,6.34,1.7-3.03-4.7-8.47.84-7.57,3.4,2.19,7.79,7.22,6.42,10.85-3.66-4.5-4.67-3.03-5.63-1.58-.95,1.44-1.84,2.84-5.24-1.93,1.31,2.24.87,4.66,3.36,7.9,5.38,4.11-3.94-12.12,5.83-1.33h0Z"/>
        <path class="cls-1" d="m286.6,900.93c.36.18.72.34,1.14.43-.5-.33-.85-.43-1.14-.43Z"/>
        <path class="cls-1" d="m274.62,884.07c-.24-.19-.61-.51-.93-.8.26.35.52.69.78,1.03.06-.08.12-.12.15-.22h0Z"/>
        <path class="cls-1" d="m309.41,934.64c-.49,0-.46.44-.16,1.09.39.57.82,1.14,1.11,1.66-.28-1.1-.68-1.65-.95-2.75h0Z"/>
        <path class="cls-1" d="m314.36,933.03c.54.12.89-.18,1.14-.67-.31-.14-.54-.28-.9-.42l-.24,1.09h0Z"/>
        <path class="cls-1" d="m213.88,843.62l.55,1.44c.07-.34-.01-.76-.55-1.44Z"/>
        <path class="cls-1" d="m254.81,862.93l-3.46,3.27c-1.3-3.54-4.02-6.25-5.42-8.19-2.57,2.32.55,5.42,4.4,8.94,3.85,3.53,8.4,7.45,8.73,11.64,1.52.22,2.7-.14,5.31,3.01-1.93,1.65-.27,4.1,2.27,6.74,2.55,2.61,5.97,5.41,7.57,7.79,2.2,1.36-2.33-4.12.54-3.23,3.21,3.09,2.47,6.94,7.6,9.05-.34-.58.17-.53-.18-1.11,4.77,6.69,2.49.15,4.44.09-3.08-1.52-4.55-5.69-6.94-6.93.02-1.58-.63-3.17-1.61-4.78-.97-1.63-2.28-3.26-3.58-4.91-1.08,2.12-4.44-.75-4.97.76-4.26-4.43-11.17-10.45-13.61-15.32l1.63,1.38c-4.99-5.26.58-4.33-2.74-8.22l.02.02Z"/>
        <path class="cls-1" d="m302.03,928.47c.24.12.55.4.82.57-.27-.2-.57-.41-.82-.57Z"/>
        <path class="cls-1" d="m365.7,946.76c-.44.83-1.86-.83-3.55-2.45-.06,1.1-.19,2.4-2.48.96-5.61-1.15-5.94-6.56-9.52-8.16l.84.95c-1.85-.5-3.73-1.53-5.35-2.73-1.62-1.2-2.95-2.66-3.64-4.22-2.3.73-.19,2.46,1.71,3.84,1.9,1.39,3.54,2.54.19,2.39,4.14,1.19,7.78,6.55,10.5,8.3-5.05-1.92-11.02-1.19-10.86,1.49-4.38-4.19-3.25-5.91-2.05-7.45.6-.77,1.22-1.49,1.21-2.44-.01-.94-.65-2.09-2.54-3.82-2.07-1.08-4.18-2.1-6.23-3.25l.45-4.86c-3.39-2.45.14,4.29-4.93.3-.25-2.64-4.69-3.65-4.93-5.45-.44.88-1,1.77-3.71-.2.13-.54,1.36-1.64-.73-3.21-4,2.19,4.84,4.77.1,5.91-6.38-4.79-1.09-5.88-1.56-8.04-.13.55.37.55,1.23,1.07.75-1.07-2.44-2.14-1.17-3.21,1.07.69,1.81,1.76,2.44,2.74-.95-2.4,4.6.05,6.38,1.38.71,1.17,1.81,2.39,3.14,3.63.66.62,1.39,1.25,2.15,1.88.77.61,1.58,1.22,2.41,1.83,3.3,2.48,6.97,4.75,9.71,6.9-.4-.51-1.17-1.5-.21-1.6,4.07,2.72,7.13,4.36,10.32,6.03,1.59.85,3.19,1.78,4.99,2.8.9.52,1.84,1.09,2.84,1.73.5.32,1.01.66,1.55,1.01.53.34,1.09.7,1.67,1.07l-.38,4.9v-.02Zm-8.05-4.88l3.33,1.38c-1.09-.9-2.24-1.57-3.33-1.38Z"/>
        <path class="cls-1" d="m720.6,706.57c-.26.27-.61.58-.9.87.4-.28.76-.57.9-.87Z"/>
        <path class="cls-1" d="m462.89,926.15l-1.03,1.94c.35-.53.71-1.14,1.03-1.94Z"/>
        <path class="cls-1" d="m503.47,894.08l-2.71,1.84c.99-.4,1.9-.91,2.71-1.84Z"/>
        <path class="cls-1" d="m695.26,720.93c.2-.04.37-.03.57-.06l.08-.08-.65.14Z"/>
        <path class="cls-1" d="m562.17,816.49c-.41.69-.62,1.3-.76,1.89.65-.84.96-1.51.76-1.89Z"/>
        <path class="cls-1" d="m500.76,895.92c-.15.05-.31.1-.45.14,0,.07-.03.12-.05.2l.5-.34Z"/>
        <path class="cls-1" d="m461.41,953.69c.38-.35.66-.67.98-1.01-.31.2-.62.48-.98,1.01Z"/>
        <path class="cls-1" d="m452.1,945.44c.33-.25.66-.62.98-1.02l-.98,1.02Z"/>
        <path class="cls-1" d="m396.84,1021.21c1.68.68,3.37,1.34,5.08,1.99-1.14-.61-2.64-1.23-5.08-1.99Z"/>
        <path class="cls-1" d="m451.36,952.76c.23-.02.47-.09.72-.15-.11-.21-.42-.15-.72.15Z"/>
        <path class="cls-1" d="m730.69,686.73l.3.4s.1-.05.17-.08l-.47-.32Z"/>
        <path class="cls-1" d="m743.28,688.07c-.86.32-1.73.65-2.58.94.76-.11,1.69-.45,2.58-.94Z"/>
        <path class="cls-1" d="m591.54,783.03c1.13.04.04,1.75-.24,2.72,3.2-1.14,2.01-2.92.24-2.72Z"/>
        <path class="cls-1" d="m707.49,671.18c-.75-.08-1.51-.17-2.22-.44-.24.48.9.44,2.22.44Z"/>
        <path class="cls-1" d="m709.44,671.22c-.61-.05-1.3-.04-1.95-.04.63.07,1.29.08,1.95.04Z"/>
        <path class="cls-1" d="m552.84,771.71c.29-.34.4-.73.38-1.09-.44.24-.64.56-.38,1.09Z"/>
        <path class="cls-1" d="m744.92,686.44c0,.55-.75,1.12-1.64,1.62,3.91-1.47,7.28-2.63,3.65,1.8l-9.27,6.47c4.29-2.55,7.91-2.4,11.31-6.86l2.93,1.55c-3.4,3.19-9.29,5.16-14.46,7.05,8.08.91,14.64-1.16,23.66-4.59,3.42-3.18-3.38-.63-1.31-3.56-2.05,1.65-5.41,2.31-5.19.57,1.83-1.2,3.63-1.12,4.98-1.38,0-1.26-3.15-1.08-1.77-2.62-2.73.52-7.27,4.78-9.06,2.17,8.6-5.04-2.92-1.54-3.82-2.21h-.01Z"/>
        <path class="cls-1" d="m727.15,668.79l.68-.14c-.15-.05-.36-.02-.55-.02l-.13.16h0Z"/>
        <path class="cls-1" d="m388.13,960.02l.6,1.29c-.03-.27-.21-.67-.6-1.29Z"/>
        <path class="cls-1" d="m727.3,683.6h0c-.1.01-.08,0,0,0Z"/>
        <path class="cls-1" d="m394.82,958.77c.08.08.12.14.17.19-.05-.05-.1-.14-.17-.19Z"/>
        <path class="cls-1" d="m439.34,1009.64c-.03-.3-.11-.43-.18-.62-.18.83-.24,1.38.18.62Z"/>
        <path class="cls-1" d="m394.99,958.97c.06.08.11.17.17.25-.04-.09-.11-.16-.17-.25Z"/>
        <path class="cls-1" d="m455.04,874.33c-.01-.75-.16-1.34-.16-1.34-.28,1.02-.18,1.38.16,1.34Z"/>
        <path class="cls-1" d="m444.49,895.39c.03-.23,0-.35,0-.53v.53Z"/>
        <path class="cls-1" d="m592.26,800.19c.62-.33,1.31-.78,2.15-1.48-.87.42-1.56.94-2.15,1.48Z"/>
        <path class="cls-1" d="m394.05,958.17c.31.2.55.39.77.6-.2-.2-.44-.39-.77-.6Z"/>
        <path class="cls-1" d="m487.55,853.47c-.04.14-.12.27-.17.41.23-.11.45-.23.69-.35l-.52-.06Z"/>
        <path class="cls-1" d="m491.41,848.1c.27.41.56.82.29,1.56-.28.73-1.13,1.78-3.03,3.56-.24.12-.39.19-.61.3l3.3.41-3.65,4.9,4.76-5.12c1.33-2.3-2.19-.6-.79-3.41,2.98-1.83,6.56-4.5,4.43.2,1.43-.87,2.91-5.52,5.46-7.25-1.06-.1-.62-1.84.21-3.69.86-1.83,2.16-3.72,2.69-4.23-1.37-.65-3.25.64-5.2,2.45-1.93,1.83-3.98,4.13-5.86,5.36.37.02.73.09,1.24-.01-4.26,3.34-3.79,4.15-3.24,4.97Z"/>
        <path class="cls-1" d="m491.78,843.92c.52-.13,1.06-.41,1.63-.78-.47,0-.93.08-1.63.78Z"/>
        <path class="cls-1" d="m521.74,808.47c-.69.34-1.21.64-1.67.93.65-.32,1.34-.77,1.67-.93Z"/>
        <path class="cls-1" d="m327.31,952.32l.4.64c1.6.81,3.22,1.57,4.82,2.32.61-.88-.55-1.74-1.94-2.32-1.38-.61-2.99-.93-3.29-.64h.01Z"/>
        <path class="cls-1" d="m618.72,748.2c-.66.21-1.97.62-2.14,1.11.15.03.33.06.51.06.58-.35,1.12-.74,1.64-1.17h0Z"/>
        <path class="cls-1" d="m501.58,843.26c.43.03,1-.1,1.98-.69-.73-.02-1.38.28-1.98.69Z"/>
        <path class="cls-1" d="m621.7,739.19c-1.72.64-3.36.36-4.83,1.33.29.78-.26,2.23-.63,3.23,1.74-2.3,3.6-3.72,5.46-4.56Z"/>
        <path class="cls-1" d="m621.7,739.19s.09-.04.14-.05c-.05.02-.1.02-.14.05Z"/>
        <path class="cls-1" d="m323.89,951.15c1.28.61,2.57,1.23,3.85,1.84l1.27,2.03-.95-.5c-.7,1.43-.31,3.35.96,5.25,1.27,1.89,3.36,3.89,6.1,5.27-.21-.04-1.06-.38-2.37-.98-1.29-.63-3.06-1.49-5.15-2.51l.75,1.7c1.54.77,3.05,1.56,4.56,2.29,1.51.71,3,1.42,4.47,2.12,2.91,1.43,5.81,2.64,8.56,3.89-1.63-1.62-3.38-3.12-5.85-4.21,1.79.09,3.53.68,5.19,1.55,1.65.86,3.24,1.98,4.79,2.94,3.08,1.97,5.87,3.65,8.2,2.35-1.79-1.88-3.38-3.4-4.95-4.61-1.57-1.23-3.12-2.14-4.67-3.1-1.57-.91-3.16-1.83-4.91-2.84-1.73-1.04-3.55-2.29-5.57-3.86-6.16.06,4.63,5.06,4.03,6.77-1.84-.7-3.65-1.47-5.48-2.21.84-.65-1.49-2.3-3.32-4.19-1.85-1.86-3.28-3.82-.87-4.83,11.43,5.54,22.61,10.97,32.33,15.6.01-8.14.27-16.09.84-24.1.14-.27.19-.76.11-1.63,4.25,2.35,4.39,4.69,3.65,6.79-.73,2.08-2.36,3.82-1.43,4.71,1.89,1.19,2.78,3.81,5.2,3.15l-.46-1.52c2.61,1.78,2.74,2.72,2.86,3.45.13.73.32,1.31,1.82,1.74.9,1.38.36,1.29-.35,1.11-.35-.08-.73-.2-.96-.14-.26.04-.32.29-.08.89,1.83.4,1.92,2.03,2.5,3.61.28.79.68,1.55,1.44,2.12.77.54,1.92.87,3.52.75-.22-1.15.68-3.58-2.36-5.16,1.12-.37,2.15-.78,3.08-1.23-1.59-1.21-1.84-1.51-2.15-1.72-.3-.21-.64-.31-2.15-1.12-.33-1.81-.18-3.11-.03-4.35.16-1.24.32-2.39.39-3.79.43,1.03-.45,3.31.94,3.73.89-.05.87-.47.69-.99-.18-.53-.53-1.14-.46-1.66.22,1.07.58,1.49.91,1.54.34.05.66-.26.94-.59.6-.65.92-1.41,1.77.71-.1,1.89-.1,2.82-.22,3.53-.13.71-.38,1.19-1.29,2.08.82.94,1.86.99,2.51.28.66-.69.88-2.1.58-3.89.22,1.09.47,2.19.73,3.29.26-.65,1.45-.34,1.33-1.16.28.59.58,1.18.9,1.78-.51,2.22-1.62,2.98-3.96,1.05.51,1.2.29,2.42.27,3.53,0,1.12.25,2.15,2.17,3.13,1.6.5-.08-1.77-.08-2.65,1.6,1.03,2.93,1.44,3.92,1.57,1,.12,1.7-.09,2.23-.48.53-.37.89-.88,1.27-1.3.19-.22.38-.41.61-.55l.09-.05v-.2c0-.13.02-.27.02-.4.01-.26.04-.51.07-.75.11-.85.37-1.57.9-2.19-.53-.05-.8.76-1.11,1.78-.05.18-.1.36-.16.54l-.09.27s-.01.12-.06.1l-.14-.04c-.37-.1-.76-.22-1.17-.39-.82-.33-1.72-.86-2.64-1.76.18-1.26.86-.93,1.79-.21.5.4.99.8,1.47,1.19.3.29.34.09.46.04.1-.09.18-.21.23-.39.02-.06.04-.12.04-.18-.06-.01-.11-.03-.16-.06-1.05-.37-1.61-1.55-1.93-3.77-.02-.09-.04-.2-.05-.31.41.52.82,1.03,1.24,1.52.24-.79.85-1.96.32-2.91.45.62.65,1.41.75,2.73,1.12.28,2.24-.52,3.24-2.07,1.04-1.52,1.9-3.79,2.16-6.14-3.27-1.58-3.71,3.77-5.02-.52.5-.38,1.67-.24,2.67-.58.5-.16.94-.44,1.24-.89.14-.21.29-.53.29-.77,0-.09-.03-.19-.08-.3v-.04l.03-.15.06-.31c.03-.21.07-.43.1-.65-3.11,1.85-.7-3.75-1.93-4.21,2.64-2.35,5.26-4.68,7.89-6.96,1.66-4.31,3.82-9.21,6.77-12.46-.99,1.08-1.9,2.71-2.72,4.87,3.42-1.91,4.39-4.73,5.28-7.88.94-3.11,1.74-6.58,4.54-9.72l-3.14,2.58c1.14-2.92,2.61-5.31,4.24-7.4,1.64-2.1,3.58-3.81,5.43-5.56l-2.33-1.25c1.73.66,4.16-1.17,6.42-3.33,1.13-1.08,2.22-2.25,3.16-3.23.93-.98,1.79-1.73,2.34-2.08-1.33,1.37-2.33,2.65-3.14,3.8-.82,1.15-1.46,2.18-1.97,3.12-1.03,1.89-1.57,3.43-2.11,4.96s-1.08,3.03-2.1,4.84c-.99,1.83-2.39,4.01-4.78,6.85,2.94-1.49,5.03-2.99,7.1-4.54,2.13-1.51,4.3-3.06,7.26-4.66.96-2.01.9-3.07.3-3.65,2.18-.87,4.44-.11,7.05-2.5l-.65-1.65c2.08-4.46,4.57-5.47,7.03-6.38,1.23-.45,2.46-.89,3.64-1.73,1.2-.83,2.25-2.12,3.39-4.14-.82-1.7-2.97-.78-5.37,1.14-2.43,1.9-5.27,4.69-7.73,6.5-.1-5.4-6.51,6.94-7.31.22l3.34-1.21c1.61-2.46-.08-3.2-1.18-1.72,2.74-2.87,1.63-2.48,3.86-2.73,4.32-6.11,3.21-6.41,1.88-6.79-.66-.19-1.38-.4-1.49-1.39-.13-1,.41-2.74,2.3-5.94-1.72.83-4.02,4.24-5.13,2.48l-3.82,7.11-2.27-1.34c2.76-4.29,5.64-7.23,8.76-9.09,3.07-1.9,6.18-2.89,9.27-3.44-7.38,5.79,1.63,2.42-.11,6.96,2.08-.65,2.46-2.39,2.45-3.63,1.01-.08,4.05-3.42,4.85-2.07-1.95-2.79.15-7.97,1.71-12.6,1.57-4.62,2.67-8.65-1.23-8.91.49-1.42,1.78-3.14,3.53-5.09,1.75-1.95,3.96-4.13,6.36-6.41,1.2-1.14,2.42-2.33,3.71-3.47s2.59-2.3,3.88-3.44c2.57-2.3,5.04-4.59,7.15-6.77l-3.54,1.22c2.22-6.63,5.1-7.82,8.01-7.99,2.94-.15,6.05.82,9.18-1.24-6.1,3.07,2.03-6.05,2.7-9.13,2.82-1.29,5.67-2.12,8.52-3.35,1.43-.61,2.84-1.34,4.27-2.26,1.45-.9,2.9-2,4.34-3.42-.48-3.01-3.2-6.31.49-10.03l4.14-.67c3.74-3.63,10.27-6.63,11.7-10.07l-.66.31c1.75-2.44,3.33-2.91,4.07-2.37.74.54.6,2.04-.95,3.7,1.72-.82,3.48-1.56,5.23-2.32l-.38-.75c3.35-1.66,6.97-2.76,10.91-4.27,3.94-1.52,8.29-3.27,12.99-6.5-4-.2,3.93-9.18-4.75-3.49,3.14-.8.25,3.03.47,4.28-2.58,2.74-7,2.56-8.48,3.37.05-1.91-2.99-4-5.8-4.3,2.11-.37,4.6-1.58,7.22-3.17,2.61-1.59,5.36-3.55,8.01-5.34,5.33-3.54,10.37-6.22,13.11-3.93,1.79-1.43,3.78-2.89,5.91-4.31,2.15-1.39,4.4-2.84,6.68-4.31,2.28-1.47,4.57-2.99,6.78-4.58,2.23-1.54,4.39-3.16,6.36-4.89-.19.5-.54,1.48-.06,1.76l5.77-7.52-2.05.65c1.23-1.72,2.48-3.42,3.75-5.09-.09-1.27-2.64-.96-4.84.18-1.39.46-1.93,1.94-.58,1.5-6.58,1.69,3.83-3.88-1-3.62-1.08,1.23-3.1,1.88-3.97,2.61,5.09-5.63,10.39-3.69,12.05-9.43,2.09.02,4.96-.42,7.86-1.51,2.92-1.06,5.89-2.75,8.17-5.35-3.03,0,6.26-3.51,1.82-4.41,2.99-.02,6.94-4.94,8.84-3.72-1.16-.11-3.62,1.39-4.95,3.05,2.74-.75,3.98.66,6.64-1.35.2-.49-.26-.79-.26-.79,4.57-.79,4.59,4.8,11.07.94,8.9-4.4,7.44-5.51,3.95-5.88-1.75-.18-4-.16-5.71-.26-1.7-.08-2.86-.29-2.43-.94,1.4.88,9.6-2.43,12.28-5.68l-1.17-.14c2.06-.5,5.27-.9,6.37-3.29,2.32,1.58,5.57,2.52,7.63,3.32l7.93-4-2.28-.32c2.06-.48,3.64-1.29,5.25-2.07-.27-2.07-2.3-.35-5.04.31.41-2.24,2.01-3.05,4.77-2.38l-.92.63c2.53-.14,11.2-1.65,5.75,2.12,5.24-.74,4.73-4.89,8.17-5.67-.47-1.59-3.42-.5-2.52-2.41,2.72-1.89,4.54-3.1,7.29-3.7-2.05,1.71,1.38.98-1.81,3.78,1.83.04,5.69-1.63,5.93-.84-1.37.3-2.52.12-4.1,2.14,4.32-1.33,8.42-3.47,11.84-6.75-.32-.26-.9-.37-1.52-.44,6.55-.27,14.06-5.05,19.08-3.98l-1.24,1.39c-1.68-.14-4.28,1.12-4.91,2.4,4.32-1.3-1.39,4.1,3.38,3.13,6.36-1.73,9.82-7.44,14.59-5.86-5.26,3.13-11.67,8.65-14.6,8.4l3.42-1.97-10,.34c.46,1.59-7.52,2.8-6.14,5.07,2.96-1.06,5.46-2.38,7.73-3.28,0,1.26-7.06,4.4-9.77,6.26l3.17-2.79c-7.48,1.58-15.43,6.62-22.46,8.65,5.91-.88-5.39,5.02-.39,4.76,2.28.35,3.83-2.96,3.38-2.02,1.61,1.78-3.6,2.51-4.02,4.72-1.39-.98-8.16,1.84-5.27-1.8-1.55,2.06-7.22,2.53-9.21,5.55-.52-2.86-6.1,1.41-7.73.96-1.14.83-1.93,1.91-2.44,2.94,3.02-.76,6.76-1.56,10.69-2.32h-.01c1.12-1.11,3.58-2.53,3.15-1.58l.56.87c7.8-1.54,15.68-2.83,19.59-3.7l-2.29-.34c6.57.23,9.93-5.55,16.27-6.04-.45-.33-1.12-.19-.22-.8,6.09-3.85,10.85-.97,14.92-5.6l-1.34-1c.52-.07,4.11-.56,4.29,1.24-4.53,1.77-5.67,1.58-9.28,3.99,2.21.39,6.15-.39,8.66-1.7l1.51,2.2c4.51.78,5.88-4.57,10.39-3.76l-2.95,3.53c.16.05.49-.05.77-.09-1.84.64-3.46,1.11-4.15.76-6.33,1.7-7.46,6.58-7.7,8.32-2.23,2.14,2.52,2.45,2.96,4.06-4.5,1.73-5.63-.99-10.12.79-1.13,1.08.01,1.26.69,1.12l-3.82.37c.23.8-6.71,5.21-1.54,4.56.6-.41,1.82-.98,2.68-1.57-5.02,4.81-14.07,12.23-12.32,14.64-2.85,2.33-2.69.55-7.28,4.14-3.36-.53-1.89-3.84-8.1-2l3.83-3.36c1.09-.15,2.08-.11,3.22-.37l-4.64,2.33c3.33-.75,3.37.51,5.19,1.81,7.06-3.69,7.23-7.93,10.31-10.74-2.93-.21-6.47,2.26-6.3-.75-2.41,3.93-4.97.21-8.01,4.31l1.11.17c-4.25.12-3.51,2.5-7.1,2.47.46.32.25.8.05,1.26-6.46,2.33,1.03-2.36-6.11-1.16-5.07,3.3.37,4.61-.46,6.5,10.47-1.98,1.94,3.8,12.8.91,1.65,3.03-1.83,5.51-7.09,7.98,2.56-3.14-4.61-3.21-1.41-7.76-8.4,2.82-11.12-3.31-17.98,4.3l.46.32-4.71-.1-4.03,4.03c4.8,1.36,7.47-2.35,10.87-1.88-3.92,6.51-9.53,1.54-16.04,5.77-3.37,6.84,7.98-2.03,9.71.95-1.79.02-4.48,3.7-3.53,4.31,5.5-4.81,4.86-.38,10.77-6.14-3.95,1-.06-1.28-1.46-2.21,1.61.47,8.39-2.85,12.71-6.02,2.31,1.58-2.95,4.12-5.27,6.8-6.93.77-10,8.45-15.82,8.2-6.03,3.24.83,2.35.63,2.83-4.63,4.17-3.37-.43-5.34.09-8.87,3.26-7.2,7.92-12.65,11.58-3.2.04-7.45,2.12-11.86,4.84-4.39,2.75-8.85,6.22-12.66,8.89,1.6.36,1.1,1.81,1.28,3.06-7.23-.77-4.48-.3-11.85,1.23l3.83-4.76c-4.16,2.24-9.19,1.73-11.23,6.33,1.1-3.4-.95-3-3.67-1.53-2.72,1.46-6.16,3.9-8.01,4.34-2.98,4.09-8.72,4.53-9.19,8.27l.64-.25-5.24,4.66,3.22,2.75c-.7,1.04-1.63,1.9-2.63,2.56-.98.68-2.02,1.18-2.97,1.48-1.89.6-3.39.43-3.14-.57-3.22,4.01-.62,2.51.04,4.47,3.01-.78,9.87-1.81,9.2-5.47-.13.5-.9,1.23-1.4.98,9.14-9.45,6.45,1.38,12.2-1.72-2.48,2.29-3.22,5.4-6.73,6.71-1.42.9-7.6,3.91-11.2,4.91,4.82-1.49,5.47-4.47,7.47-7.91-2.25,2.19-4.07.72-5.31,3.46h1.12s-3.58,1-3.58,1c1.14,2.22-6.6,6.69-.76,5.65-3.91,2.51-2.67-.74-6.43,1.34,1.89-2.06,3.9-3.99,5.85-6l-1.78-1.95c-3.5.55-2.86,2.5-5.56,4.52l-1.67-2.44-2.92,5.82c-.7-1.95-3.69,1.63-4.92,2.17-.88,1.51-.16,2.77.04,3.87.2,1.11-.16,2-3.06,2.94l.09-.5c-3.02,1.43-4.82,2.28-7.68,5.94.52.2,1.72-.36,2.31-.64-.93,1.35-2.29,2.6-3.79,3.78-1.52,1.17-3.09,2.39-4.57,3.53-2.94,2.32-5.34,4.59-4.87,7.13,2,1.29,2.96-1.51,4.9.28,4.64-9.28,7.78-1.72,14.85-10.93-1.8-2.36.58-3.36,3.1-4.49,2.5-1.14,5.28-2.27,4.18-5.2-2.96,3.47-9.74,4.91-9.58,3.9,3.27-2.63,7.84-6.32,9.65-8.7-.69,3.14,2.07,5.05,4.79,5.38-3.06,1.58-6.32,5.05-9.42,9.14-3.13,4.06-6.42,8.43-9.55,11.94l-1.7-3.31c-7.62,3.84,3.01,1.71-1.41,6.26l-3.84.08-.07.5c-1.86.33-3.76.63-5.59,1.01,2.45-2.23,3.19.67,4.76-2.91,1.52-3.08-1.94-1.79-4.03-2.58-.93,2.25-6.91,7.44-1.83,5.61l-8.57,3.76c1,.86,2.74-.09,3.85-.24l-4.81,4.06.52.18c-2.36,1.24-4.61,3.26-6.94,5.03-2.31,1.79-4.61,3.39-6.85,3.99,3.94-8.08-5.04,1.04-5.95-.72-1.76,2.64,2.32,7.32,8.44,4.04-.35-2.66,4.67-4.2,6.99-6.52-1.92,4-4.06,3.84-6.43,6.19,1.38-.34,1.03.82.46,2.17-.56,1.36-1.27,2.94-.75,3.34,1.07.33,4.17,1.24,6.08-2.7,4.1-4.79-1.98-2.66-.29-3.65-.69-1.75.91-3.3,2.91-4.83,1-.76,2.1-1.53,3.07-2.32.99-.77,1.87-1.56,2.36-2.42.06-.5-1.1.13-1.68.45,2.43-2.27,7.31-7.29,9.32-6.01l-7,4.74c-.72,1.8,3.3-.38,2.48,2.41-1.72.95-3.52,2.35-4.74,4.53l1.05.35c-.98,2.48-2.89,5.03-5.14,7.41-1.12,1.19-2.34,2.33-3.53,3.42-1.16,1.11-2.33,2.15-3.43,3.08-4.73-2.38-9.05-2.1-14.98-3.68-2.94,3.26-5.58,6.87-8.29,10.52-1.34,1.84-2.69,3.69-3.95,5.62-1.23,1.95-2.42,3.94-3.58,5.96,1.62-.18,3.47-1.29,5.37-3.02.93-.88,1.92-1.87,2.93-2.96,1-1.1,1.99-2.31,2.94-3.59l-2.72,1.35c2.74-4.39,5.44-4.74,7.6-5.71-.55-.13-.54-.64-.53-1.65,3.32-3.2,7.16-3.11,7.06-.15l-1.66.57c-.05,1.32-.08,2.64-.07,3.99-4.44-2.08-8.09,6.84-12.84,9.58,3.78-1.53,9.16-1.09,9.61-6.4l1.62,1.9c2.65-2.8,2.66-6.83,5.94-6.91-1.11,1.02-2.24,2.04-3.29,3.11l1.07.77c-2.08,2.38-6.21,4.29-6.87,7.49-1.43.52-3.08.84-4.77,1.81-1.68.98-3.46,2.57-5.26,5.54l.55.12c-3.19.58-4.64,3.61-5.55,6.76-.9,3.17-1.44,6.36-3.25,7.27-4.91-.82,2.61-7.39,2.44-10.37-3.15,1.37-2.83,5.42-3.63,1.8-5.62,4.5.96,5.58-4.77,8.56l.83-3.3c-3.17.96-4.52,5.16-7.58,6.27-1.42-.68-.84-1.61.3-2.95,1.16-1.34,2.98-3.02,3.9-5.36l-3.25.5,7.68-6.73c4.84-.14,3.31,2.03,9.14-1.26-.17-3.98-2.43-7.97-5.7-8.62-.46,2.92-4.18,6.22-1.94,7.63-3.73.8-9.88,6.37-11.16,3.67-.23.24-.5.54-.75.8.25,2.21.09,4.66-.62,7.57-.65,2.95-1.9,6.34-4.03,10.36-.89,1.54-2.53.86-4.46-.76-.18,1.02-.37,2-.6,2.94-.21.95-.48,1.84-.88,2.67,1.69-.65,3.37-.72,4.92-2.91-1.16,2.06-2.09,4.22-3.13,6.33l-3.05,6.35,1.58-.38c-1.39,1.34-2.85,2.65-4.19,4.03,2.05-2.45,3.83-6.98.95-7.22-4.9,4.59-3.91,9.13-9.37,12.41,4.28,2.09,4.13,4.02,7.37,3.65.12-.34.11-.53.06-.67,3.22-.62,7.52-3.08,9.58-5.63-1.93,5.42-2.84,7.3-3.79,8.99-.47.84-.93,1.64-1.49,2.82-.55,1.18-1.26,2.71-1.97,5.11.54.48,1.2.28,1.91-.24.35-.26.72-.6,1.08-.98.39-.37.77-.78,1.15-1.18,1.5-1.6,2.81-3.08,3.13-1.65l2.94-8.84c-.87,1.31-1.51,1.2-2.24,1.67,1.16-1.2,1.93-2.3,2.57-3.31.67-1,1.15-1.92,1.64-2.78.98-1.72,2-3.21,4.55-4.52.37-3.29-4.14,3.1-2.92-.04-1.83,2.22-5.91,3.17-8.48,3.38,2.67-7.03,5.14-2.02,9.18-6.92.08-1.75.09-3.55.26-5.28,1.91-2.19.75,1.53,1.36,2.07,2.39-2.59,1.58-4.6,2.93-6.86.13.99-.17,2.87.93,3.02.24-2.38,1.21-4.31,1.97-6.33.38-1.01.71-2.04.87-3.17.19-1.11.23-2.31-.02-3.69.25,2.95,5.46.38,6.97-.81-.45,3-.95,5.95-1.33,8.94-3.21,4.08-5.28,7.75-7.48,11.44-2.06,3.76-4.18,7.58-7.74,11.99l1.65.14c-.6,2.17-1.05,4.01-1.69,5.49-.62,1.49-1.3,2.67-2.05,3.64-1.49,1.93-3.23,3-5.07,3.96-1.86.95-3.67,1.84-5.52,3.32-.91.74-1.82,1.64-2.69,2.79-.43.57-.86,1.2-1.28,1.91-.21.37-.4.7-.63,1.15-.41.88-.83,1.79-1.27,2.73,1.56,1.21.09,4.34-1.08,7.37-1.21,2.99-2.35,5.72-.62,6.3,2.89-8.91,3.53-6.47,4.11-2.91-1.5,2.31-3.11,3.88-4.63,6.17-1.53,2.31-2.94,5.29-4.15,10.78,1.4-1.08,1.64.87,2.02,1.99.39,1.11.93,1.35,3.03-3.52-4.42,14.8-7.32,22.76-11.94,26.08-2.07,4.01-3.19,6.72-3.8,8.79-1.6-.16-2.32.08-2.78.45-.53.3-.76.76-1.33,1.08-1.12.65-3.77.67-12.83-2.4l3.85,2.43-14.04-4.13c1.36-.3,2.68-.6,3.97-.91l-8.19-3.26-7.98-3.31c-4.85-2.39-3.86-2.74-1.96-2.77,1.92-.02,4.78.29,4.08-.69,1.14,1.25,2.31,2.52,3.53,3.79,3.02.48,6.81,1.88,10.03,3,3.21,1.11,5.77,1.89,6.06.96-10.23-3.06-8.4-4.82-12.52-7.01l9.53,3.63c.75-.5,1.5-1.02,2.22-1.54,2.89.71,5.57,1.36,8.05,1.97,1.24.31,2.45.64,3.62.98.99.08,1.96.19,2.92.36.99-2.13,2.04-3.78,3.28-4.88-.43,3.53-1.89,4.14-2.8,5.82-.9-.22-1.69-.21-2.33.32,1,.74,2.17,1.41,3.53,2.04,3.23-3.22,6.89-13,10.98-22.18-.49-1.06.68-5.05-.43-4.04-.32-.02-1.04,2.07-1.33,3.35-.42-1.13-1.36-.28-1.82-.65-.45-.35-.47-1.92,1.09-7.61-1.61.92-3.89,2.37-5.66,3.33-1.81.97-3.25,1.48-3.5.94-1.98,4.16-4.22,10.04-5.4,14.98-.64.22-1.14.45-1.58.69l.56.56c-.22.06-.46.11-.72.15-.29-.01-.68-.17-1.05-.26-.75-.23-1.58-.5-2.43-.79-1.7-.6-3.52-1.23-5.2-1.82-3.34-1.12-5.99-1.83-5.97-.57-1.56-.71-4.37-1.81-5.81-2.64-1.45-.83-1.49-1.4,2.23-1.11l-6.62-2.51-6.46-2.6c1.29,2.64-1.09,3.32-2.27,4.26-1.13.95-1.1,2.14,6.25,6.04-.25-.12-1.71-.68-4.14-1.61-1.21-.46-2.66-1.01-4.34-1.65-1.67-.68-3.55-1.53-5.61-2.41.12.19.21.37.36.57.49.36.87.74,1.08,1.16,1.71.44,2.75.99,3.02.22,1.25,1.24,1.76,1.99,1.67,2.52-.1.51-.8.76-1.94.69-2.27-.1-6.3-1.15-10.44-2.38-.53-1.04-1.05-2.07-1.54-3.11-3.53-.64-6.52-.86-9.81-1.51-1.64-.34-3.36-.74-5.22-1.44-.88-.33-1.8-.74-2.66-1.17-.63-.32-1.29-.71-1.97-1.16l-2.49-3.63-2.38-3.69c-1.56-2.48-3.13-4.86-4.57-7.38-1.16-.82-2.34-1.65-3.53-2.49-2.39.43-7.46-3.68-6.64.06-1.12.66.48,2.26,3.25,3.12.53-.07,0-.57.54-.63,0,1.7-.55,3.51-4.41,3.29,3.3,1.42,3.87,1.33,5.57,3.45l-3.37-1.37c2.26,1.47,4.77,3.99,6.71,6.25,1.93,2.28,3.19,4.44,2.68,5.38-.19-3.48-4.67-2.27-7.55-3.17,1.72,1.59,5.4,5.16,1.88,3.86-.71-1.63-8.74-7.84-1.92-5.59-2.31-2.1-5.17-5.22-8.49-6.15,2.75,3.23-.02,2.86-.02,5.18-2.26-3.3-1.11-5.1-1.11-6.26-9.95-2.73-16.42-.31-24.81-8.32-.52-.57.78.58,2.24,1.59,1.48,1,3.13,1.83,3.21.69-1.3-1.83-2.61-2.94-3.94-3.65-1.33-.7-2.71-.99-4.1-1.22-2.79-.43-5.56-.68-8.08-3.33l3.58-1.6c-.74-.87-2.12-2.19-3.57-3.51-1.43-1.32-2.9-2.68-3.87-3.58-1.22.54-8.67-2.15-4.8,2.05-5.45-2.9-6.49-5.98-7.56-9.26-1.04-3.32-2.24-6.75-7.77-10.72,5.38,3.37,5.86,3.93,9.7,7.08-2.96-4.77.31-1.68,1.31-3.87-1.9-.15-4.57-2.18-6.24-3.4-1.67-1.22-2.44-1.58-.65,1.71-1.66-1.29-4.16-3.23-6.31-5.14-2.11-1.93-3.89-3.83-4.16-4.99l3.53,1.52c-4.65-3.88-7.64-9.4-7.84-12.8,5.28,5.17,2.26,8.23,9.74,14.14,9.43,4.84-.33-3.4,6.99-1.61,1.34,2.18,2.67,4.39,4.08,6.55-.96-.64-1.95-1.26-2.9-1.92-1.26,3.3,9.07,6.89,5.84,9.49,3.96,1.07,6.07,2.32,8.26,3.63,2.22,1.28,4.49,2.66,8.7,3.9.8,2.27-1.73.56-3.74-.67,3.45,2.38,1.42,5.7,7.33,6.95,2.61,1.18-.88,2.85-4.97-.08,1.8,1.16,3.42,2.49,5.16,3.78,1.75,1.28,3.57,2.56,5.68,3.69l-5.5-.55,4.19,2.85-4.37-1.15c3.89,2.91,8.37,5.68,12.58,7.73,4.3,1.96,8.28,3.26,11.39,3.01-1.53-1.58-3.39-3.23-5.42-4.83-1.01-.8-2.06-1.6-3.11-2.39-1.03-.82-2.05-1.64-3.06-2.44-4.03-3.2-7.4-6.49-8.17-9.59,2.2-.04,3.74,6.26,7.8,4.42l.83,3.37c2.01,2.26,7.37,6.55,9.12,4.74-2.99-2.8-4.64-4.92-5.78-6.87-1.16-1.93-1.87-3.63-2.99-5.57.26-.45-.21-1.05-1.08-1.78-.03-.05-.07-.12-.07-.12l.03.09c-1.79-1.47-5.08-3.35-6.52-5.06-2.54-1.12-1.8,1.11-1.84,1.69-2.35-.72-4.18-1.91-5.73-3.33-1.54-1.43-2.76-3.14-3.99-4.86-2.48-3.42-4.75-7.07-9.25-9.25-1.38,1.61-7.62-2.76-6.46-.43-2.43-1.56-3.81-3.39-4.83-5.24s-1.7-3.72-2.63-5.5c-1.87.94-6.93-5.21-6.15-1.75-.62-1.93-1.21-3.88-1.78-5.83-1.7-.76-3.69-2.66-5.49-4.31-1.8-1.65-3.48-3-4.7-2.6-2.41-3.14,1.48-3.17-3.16-6.08-.16.53-.68.46.21,1.15-1.24-.46-2.94-1.69-4.43-3.18-1.47-1.5-2.71-3.26-3.06-4.72,3.16,2.17,1.06.16,4.58,2.97.84-1.03-1.45-5.85-6.16-8.3,2.59,7.21-6.13-1.58-5.09,1.97-8.03-7.59-9.22-15.21-13.19-23.89-6.96-8.12-16.83-17.04-20.2-25.16l.81.74-1.88-4.94c-1.91-2.13-2.63,2.24-4.9-1.66-1.3,3.12,4.72,6.16,6.1,11-7.39-3.9,2.62,7.37-2.62,5.09,2.5-6.24-10.37-13.1-12.34-20.38-4.83-4.52,0,3.98-2.4,1.74l.07-2.84c-2.12-1.61-3.15-1.86-4.1-.94-5.29-4.61-9.69-11.28-11.54-17.34,3.89,6.53.55-3.82,5.37,1.78-.64-2.4-3.37-6.41-6.32-9.89,2.22,3.88-7.13-1.59.03,5.09-3.2.97-2.73-3.99-5.92-6.97.63,2.4,2.43,7.34,1.91,7.21-1.19-7.63-15.6-14.1-15.08-17.89-1.1-5.3-4.32-12.11-6.28-18.1-5.47-2.74-8.69-8.38-13.59-12.57l-.09,1.65c-2.96-2.18-5.93-7.13-10.05-10.54l-2.44.72c-1.05-1.52-2.71-3.56-4.61-5.7-1.91-2.13-4.07-4.33-6.07-6.26.88-.99,4.36,2.79,3.75-.05,2,1.92,3.48,3.77,1.77,4.09,1.99,1.93,3.56.52,5.92,1.4-2.16-2.92-4.38-5.79-6.6-8.67-.73-.49-1.07-.58-1.25-.47l1.13-2.31c-2.05-1.92-3.06-2.04-3.41-.99-1.87-2.43-2.63-4.6-3.59-6.63-.96-2.02-2.07-3.98-4.69-5.87.61,3.36.93,5.63,4.2,8.72l-5.32-4.97c.44,1.98,3.06,5,5.03,7.69,1.96,2.72,3.29,5.08,1.24,5.66-2.32-3.32-5.24-7.33-7.99-11.39-2.77-4.02-5.37-8.09-7.05-11.49-2.31-.17-3.94-1.78-5.72-3.71-1.76-1.95-3.65-4.24-6.41-5.68-1.03-.04-2.94-.64-2.81,1l1.26,1.13c-3.29-2.32-6.49-5.17-9.39-8.27-2.95-3.02-5.6-6.29-7.91-9.19l-4.58.18c-5.33-2.95-4.24-3.56-3.04-4.39,1.18-.8,2.53-1.89-2.57-5.65-4.13.81-13.88-6.93-15.59-4.97-1.89-1.38-2.86-1.8-2.23-3.54,1.94.84,5.75,3.62,4.48.49-3.33-2.86-5.86-2.54-8.8-4.23-.02.56,1.37,3.09.4,2.14-1.7-1.21-3.81-2.64-6.16-4.05-2.35-1.43-4.88-2.98-7.41-4.52-5.04-3.16-9.97-6.51-12.82-10.27,2.69,1.5,2.26,3.39,6.36,4.01.45-1.25-1.62-1.86-2.18-2.84.69-1.04,1.51-.25,2.71.79.61.52,1.3,1.1,2.14,1.55.83.46,1.78.82,2.93.84-1.74-1.9-3.55-3.7-5.38-5.52l4.62-.55-6.41-6.16-6.7-5.99c3.4.84,6.15,2.11,8.48,3.64,2.32,1.57,4.24,3.32,6.08,4.99,3.64,3.45,6.95,6.52,12.66,7.54-1.25-1.46.59-1.29,1.26-1.64,1.35,1.3,2.94,2.49,4.35,3.63s2.64,2.24,3.22,3.45l4.94,2.69c.3-.59.38-1.85-.27-3.32s-2-3.17-4.62-4.48c9.09,4.71,16,10.76,22.76,16.72,6.74,6.04,13.33,12.01,22.05,17.21,1.06.04-1.65-2.27-.19-1.67,1.66,2.29,4.66,5.7,4,6.23.13-.55.35-1.65-.99-2.8,1.88,1.84,3.64,3.32,5.38,4.5,1.73,1.19,3.4,2.12,4.93,3.04,3.08,1.81,5.79,3.39,7.67,6.36,1.34-.99-3.19-4.2-2.16-4.09,4.34,2.89,6.72,6.16,8.89,9.61,2.21,3.42,4.22,7.01,8,10.53-.91-4.01,3.27-.14,6.23.84,2.37,3.68,6.66,8.79,11.29,14.31,4.63,5.52,9.58,11.46,13.36,16.68.95-3.2,3.41-.62,6.17,2.45,2.73,3.09,5.76,6.64,7.91,5.4,1.94,2.09,4.28,5.97,3.13,7.42-.39-1.77-4.08-3.65-4.48-2.6,2.54,3.31,6.66,8.15,5.3,10.12l5.2,2.26c-1.16,1.44-1.73,4.14.17,6.24,7.65,1.69-2.9,1.63,4.94,6.74.09-2.79-.06-5.09.59-6.65,3.21,2.99,1.98,3.27,3.65,5.91,1.75-.17.96-4.88-.51-8.03l4.75,3.32c1.39,5.98,4.47,15.72,10.84,21.71.37-2.19-1.5-4.3,1.78-4.12,1.94,3.26,2.77,9.13,7.21,11.82-.3-.64.21-.53-.08-1.16,3.74,8.21,4.78,4.48,10.15,10.18.11-.26.34-.5.4-.86l1.86,4.73c3.47,10.33,9.48,6.53,14.75,9.82l-.6-1.24c4.57.92,10.7,11.6,13.9,13.28-4.19-1.87-2.24.16-6.54-.08-2.05-3.2,1.34-4.78-3.75-8.56-1.56,2.49,3.01,9,2.52,11.69,2.28,2.68,7.17,1.33,8.59.45,5.69,6.55,10.16,9,16.96,17.17.63,2.05.43,4.64,1.19,7.18.76,2.55,2.52,5,7.08,6.66l.34-1.07c-1.05,1.54,3.42,2.63,3.8,4.86-4.3.09,1.45,4.05-3.21,3.53,3.69,3.75,7.08,1.31,9.1-.16-.02,2.74,2.25,4.08,5.07,5.55,2.85,1.44,6.17,3.1,8.46,6.5-.01-2.19-6.22-8.11-2.26-7.29,1.49,3.41,3.07,6.75,4.66,10.15l-3.44-2.93c3.89,7.39,7.98,5.86,12.21,7.64,1.44-.42-.55-2.58-2.27-3.91.97.67,2.1,1.7,3.22,2.88,1.13,1.16,2.25,2.5,3.18,3.81.52,1.23,2.13,3.39,3.83,5.66,1.68,2.3,3.41,4.76,4.12,6.58.4.18.81.36,1.22.55.03-.26,0-.57-.18-.78.49.44.85.85,1.18,1.25,1.25.59,2.47,1.22,3.73,1.8l-.36-.93c.37.42.73.83,1.06,1.25l.03.04ZM36.39,684.15c.02-.49-.07-.96-.26-1.39.65.74.28.88.26,1.39Zm385.11,294.04l.71,2.23c.34-1.66,1.1-2.7,1.69-3.72.58-1.02,1-2,.57-3.35-.27-.31-3.48,1.91-6.77,3.66-1.64.9-3.38,1.66-4.65,2.35-1.32.66-2.41,1.13-3.08,1.44-1.01,2.23-1.91,4.67-2.56,7.01-.12.46-.24.9-.35,1.32-.05.22-.1.44-.15.65-.17-.02-.34-.03-.51-.05-.66-.05-1.25-.06-1.74-.01l1.63.91c.28.07.55.14.82.21.12.02.29.11.37.06l.13-.38c.18-.49.34-.95.49-1.39,2.61-7.32,4.16-8.9,5.05-6.7.91,2.27,1.09,8.61.65,17.85-.15.81-.33,1.61-.53,2.41l-.04.15c-.01.06-.07.09-.07.09l-.22.06-.44.11c-.3.08-.6.15-.9.23l1.05.22.53.11.27.05.13.03s.05-.05.08-.07c.36-.48.72-.98,1.1-1.49,1.11-3.98,2.19-8.07,3.26-12.11.54-2.02,1.04-4.04,1.63-6.02l1.85-5.84v-.02Zm-6.36-12.63c.7.14.97.65,1.02,1.38.68-1.31,1.36-2.63,2.05-3.96-1.32,0-2.15-1.63-3.06,2.59h0Zm3.84-.47c-.05-.3.05-.73.21-1.22l-.21,1.22Zm-63.81,10.18c-1.39-.71-2.2-.96-2.69-.99,1.06.44,2.06.88,3.09,1.27-.16-.1-.22-.15-.39-.27h0Zm6.84,2.76c.99.39,1.99.7,2.94,1.05l-.05-2.51c-1.44.04-2.14.68-2.89,1.46Zm28.06.39c-.65-.69-2.25-1.47-3.54-1.72-1.29-.23-2.33-.05-1.73,1.37,1.9.08,2.86,2.03,3.91,3.61,1.01,1.55,2.15,2.76,3.63.95,1.06,2.41.21,3.03-1.35,2.92.62.64,1.03,1.24,1.18,1.78,1.67.43,3.27.77,4.74,1.13,1.26.09,2.32.07,1.66-1-1.56-3.89-6.69-5.47-8.5-9.04h0Zm268.52-260.98c-6.71,1.74-6.89,4.11-7.5,6.49-.61,2.4-1.69,4.71-10.16,6.64-.75.77-1.73,1.57-2.81,2.39.29-2.18.46-4.71,2.29-7,1.77.05,3.21-.33,4.48-.98,1.28-.64,2.37-1.55,3.41-2.6,2.08-2.09,3.94-4.72,6.58-6.7l3.94-.54c-.18,1.11-.25,1.99-.24,2.3h.01Zm-60.04,45.12c6.09-4.22,6.69-4.5,11.84-7.4l-2.29-.14c-.24-2.21,4.94-3.13,9-5.66,1.8.13,4.96-.66,5.8-2.84l-1.45-.88c-.02-1.57,3.94-4.22,8.44-7.15-.81-.02-1.7-.07-2.7-.16-1.76-.17-3.55.04-5.33.81,1.03-.41,2.08-1.18,3.14-2.77l-10.95.66c3.63-3.25,6.94.52,11.39-3.39-2.02-2.43-2.58-4.01-9.12-2.49-4.31,3.47,1.25,1.37-.36,4.01-5.61-.93-2.7,5.62-8.76,4.48-4.55,2.77-1.94,3.68-2.65,5.64,4.52-2.74-.27,4.01,5.58.85-3.41,4.56-5.1-.56-8.16,3.02l1.26,3.08c-2.84,3.17-9.11,9.62-14.84,11.21,2.58-4.48-3.44-.08-3.96-2.1,1.16.91,2.75-.01,3.95-1.27,1.22-1.24,2.05-2.84,1.64-3.35-.87.41-2.04,1.02-3.3,1.75-1.25.74-2.61,1.6-3.9,2.46-2.58,1.72-4.87,3.44-5.43,4.31l4.72-5.71c-2.96.19-12.07,3.1-12.57,2.86-1.44,2.79-5.01,5.1-5.1,7.38l5.58-1.31.25-2.78c1.31.07,2.64.18,3.97.28-2.17,2.76-6.69,8.57-6.5,11.29,3.07-2.47,7.18-5.32,12.56-7.83,5.36-2.55,11.78-5.03,19.41-6.78,0,0-.49-.28-1.15-.06v-.02Zm-134.04,135.94c.84-.93,1.66-1.84,2.45-2.72.83-.85,1.63-1.67,2.39-2.45l-1.7-1.81c1.48-2.44,3.22-4.46,5.07-6.25,1.84-1.8,3.8-3.38,5.86-4.89,2.03-1.52,4.05-3.06,5.96-4.83,1.93-1.76,3.63-3.83,5.32-6.23-2.79-.21-4.54,4.1-5.04,2.92,1.97-2.95,4.1-3.17,5.91-3.62,1.82-.45,3.35-1.07,4.39-4.71-7.01,7.03,3.09-5.48-4.39-.11,2.73-1.78,5.05-3.95,7.11-6.29,2.14-2.28,4-4.74,5.72-7.17,1.73-2.42,3.25-4.86,4.82-6.95,1.58-2.09,3.1-3.93,4.66-5.28-.32,2.57,3.99-.81,4.51-.62,1.33-1.69-.26-2.24-1.52-1.05,1.98-4,1.07-5.97-.81-6.84l-6.29,6.08c1.49-2.5,1.38-4.77,2.76-6.68h0c-.4.55-.4.55.01,0,.61-.83,1.44-1.62,2.93-2.25,1.67-.44,1.71.01,2.53.82,3.12-.81,7-1.85,11.82-3.2l-.52-.19c1.19-1,2.35-2.03,3.56-3.01l3.64-2.92-1.65-.11,5.43-2.17c-1.86-1.86.42-2.04-1.04-3.18-.26-2.85,2.27-4.64,5.51-6.34,3.22-1.74,7-3.55,9.14-6.79l-1.65-.18c1.17-.18,2.4-.87,3.7-1.83,1.31-.94,2.66-2.19,4-3.57,2.69-2.74,5.36-6.02,7.68-8.3l-.5-.26c-3.72,1.66-5.28.98-4.62-1.13-1.4.44-3.3,1.53-4.67,1.86-1.56,1.56-6.95,4.74-5.79,6.94,3.58-2.86,3.44-2.34,2.8.16-2.45.55-5,2.54-7.24,3.95-2.23,1.41-4.13,2.28-5.19.71-4.93,4.06-1,1.82-3.59,5.73.3,1.23,2.09.86,3.87.51-2.52,1.77-4.9,3.7-7.35,5.57l-7.31,5.65c-2.54-1.52,7.05-9.93-.06-8.28-1.77.42-4.54-2.89-8.41,2.34.2.34.78.16,1.37-.14-2.45,1.63-2.1,2.71-3.98,5.29,1.23,2.65,4.16-1.26,6.95-1.32-1.84.98-4.22,1.77-5.65,3.47l1.07.37-5.23,4.19c-3.45.42,3.46-3.71,2.59-5.13l-4.26,1.79c-.98.76-2.34,1.86-3.83,3.19-1.45,1.37-3.03,2.97-4.5,4.65-2.94,3.37-5.45,7.06-5.54,10.01-2.8,5.14-3.46,1.14-5.68,1.05-4.03,1.02-3.97,5.38-6.97,7.24-.76-.75-1.79-.36-2.88.03-1.08.4-2.23.79-3.27-.02l-3.19,4.64c-5.02-.14,3.82-5.58,3.48-7.84-.3-2.26-1.23-1.7-2.08-.89-.84.82-1.64,1.86-1.79.44,1.53-1.54,2.74-2.02,3.76-2.3,1.02-.27,1.88-.32,2.8-.9,1.86-1.65,2.07-3.24,1.03-4.07-3.53,6.15-4.65.91-7.99,5.53l.49.68c-2.09-1.63-6.12,5.62-9.07,7.12-1.7,6.66,6.32-1.26,6.8-.57l-5.51,5.22c3.49-1.36,2.64,2.22,6.75-.04-1.8,1.46-2.32,2.69-2.9,3.83-.59,1.13-1.2,2.2-3.2,3.39,6.16-1.35-1.44,6.68.16,8.61,2.01-1.71,3.68-5.08,4.72-7.95,1.1-2.81,1.57-5.1.97-4.71.52.66,4.26-4.33,5.03-6.85l5.02-.33c-2.47,3.13-7.18,6.26-3.88,7.07l-4.72,3.13c7.31-1.18,6.97-1.08,11.81-3.53-1.84,5.21-5.64,7.95-9.25,10.64-3.56,2.72-7.05,5.28-8.29,9.68l1.13-.8c-2.84,3.11-4.68,5.99-6.01,8.48-1.32,2.5-2.04,4.67-2.34,6.62-.64,3.88.51,6.96,1.83,10h.04Zm-14.81,17.28c-2.03-2.24-3.57-3.4-3.95-1.44l.22-4.12-3.55,4.33c-.81-3.18,2.91-5.44,4.37-7.89.29-3.62-5.68,5.15-10.65,6.34-1.64.89-2.77,3.21-3.31,5.22-.54,2-.48,3.71.33,3.49-1.77-.89-3.5,1.13-5.25,3.68-.85,1.29-1.77,2.67-2.61,3.94-.82,1.27-1.67,2.39-2.55,3.04-2.17,4.2-1.72,6.17-1.36,7.92.18.88.33,1.71.12,2.74-.21,1.03-.81,2.25-1.98,4.01-.24-1.22-.51-2.46-.69-3.66-1.96,3.18-3.29,5.5-4.51,7.98-.6,1.24-1.16,2.53-1.71,4.01-.07.17-.13.35-.19.52-.04.13-.08.25-.12.38-.07.27-.16.56-.24.85-.17.64-.38,1.32-.52,2.1,1.07,1.06,1.15.29,1.27-.77.05-.52.11-1.16.22-1.61.06-.23.14-.43.27-.6.15-.2.37-.46.62-.59l.12.58.06.29.09.22.35.92c.22.63.41,1.34.61,2.04.17-.32.5-.66.86-1.02.36-.34.72-.65,1.04-1.04.67-.87.93-1.66-.31-2.13,1.24.44,4.26-1.16,1.24,3.01,1.09-.81,2.25-1.79,3.37-2.67.2.32.32.69.36,1.08.57-.98,1.15-2,1.73-3-.21-1.69.94-4.04-.02-6.98-.67-.51-1.91,1.59-2.83,2.7.2-1.84.67-3.46,1.39-4.75.7-1.3,1.52-2.34,2.24-3.11-1.96,5.17.53,3.1,2.02,5.14,2.37-2.56,4.3-7.67,5.73-9.2.62-2.27.75-4.58.43-6.05-.33-1.48-1.24-2.18-2.89-1.29,2.39-2.1,2.98-5.37,6.61-6.95-5.12,3.87,4.82,2.83-1.85,7.64,2.18,3.66,5.03-4.35,5.64-8.45-1.48,1.46-1.74-.63-2.85-.7,3.9-4.44,4.88-.69,3.72,3.34,1.66-1.61,3.28-3.23,4.95-4.81-.1.21-.21.39-.28.6,1.43-1.79,2.84-3.55,4.23-5.29h.01Zm-77.95,94.9c-.11-.05-.23-.09-.36-.13.11.03.24.06.33.08l.03.05Z"/>
        <path class="cls-1" d="m739.28,685.43c-.22-2.08-3.62-.15-5.43-.2-.9,3.15,4.52-1.75,5.43.2Z"/>
        <path class="cls-1" d="m737.03,681.23l-2.26,2.14,4.54-1.75c-1.59.74-1.8-.07-2.28-.4h0Z"/>
        <path class="cls-1" d="m734.68,666.04c2.01,3.41,12.07-3.22,13.7-6.47-5.47,2.3-9.52-.7-15.7,3.05,3.81,3.48,9.12-3.49,10.19,1.81-3.42,1.93-5.24,1.87-8.2,1.61h.01Z"/>
        <polygon class="cls-1" points="728.58 662.14 732.69 661.33 732.9 660.88 728.8 661.69 728.58 662.14"/>
        <path class="cls-1" d="m671.44,744.44c1.32-.33,4.21-.21,3.69-1.78-1.79.01-2.83,1.15-3.69,1.78Z"/>
        <path class="cls-1" d="m86.54,760.92c-4.42-4.67-8.07-8.24-11.36-11.33-1.66-1.53-3.21-2.96-4.73-4.36-1.53-1.36-3.03-2.69-4.56-4.05,7.06,6.3,13.94,12.89,20.65,19.74h0Z"/>
        <path class="cls-1" d="m587.17,788.14l-.73,4.71c2.49-4.09,5.78-4.9,9.18-5.83,3.43-.92,6.94-2.01,10.33-6.4-3.53,2.02-6.33,3.09-9.25,3.99-2.9.93-5.88,1.73-9.53,3.52h0Z"/>
        <path class="cls-1" d="m597.18,796.83v-3.94c-3.71,3.08-2.77-.39-7.42,2.26.22,1.24,1.88.83,3.57.53,1.7-.3,3.47-.46,3.86,1.14h-.01Z"/>
        <polygon class="cls-1" points="596.91 733.77 594.88 734.43 597.88 734.33 596.91 733.77"/>
        <polygon class="cls-1" points="566.41 820.06 568.73 816.78 567.64 816.81 566.41 820.06"/>
        <path class="cls-1" d="m568.74,816.78l1.1-.02-1.1.02Z"/>
        <polygon class="cls-1" points="596.62 728.18 594.27 728.06 591.48 730.72 596.62 728.18"/>
        <path class="cls-1" d="m577.15,762.23l-3.27,1.19c-.3,2.77,2.62-.95,3.27-1.19Z"/>
        <polygon class="cls-1" points="550.72 833.07 547.12 834.77 547.03 835.25 550.65 833.54 550.72 833.07"/>
        <path class="cls-1" d="m544.67,772.05c-2.45,4.67,3.57-2.44,3.22.88-.24-1.26.36-3.32-3.22-.88Z"/>
        <path class="cls-1" d="m519.94,818.31c.58-.19,1.05-.53,1.44-.91-.42.23-.9.52-1.44.91Z"/>
        <path class="cls-1" d="m524.62,813.96c-1.34.34-1.98,2.22-3.24,3.44,1.55-.88,2.39-1.15,3.24-3.44Z"/>
        <path class="cls-1" d="m506.72,831.19c.38,1.16,1.57.1,3.37-1.79.46-.1.99-.23,1.57-.39-.48.03-.92.07-1.37.1-.5-.22-.97-.81-2.2.35-1.68.39-2.35.83-.38.47l-.99,1.26h0Z"/>
        <path class="cls-1" d="m491.18,911.41c4.6-5.18,4.62-6.62,8.29-11.07-2.39,2.04-4.44-.47-7,4.02,1.64.84,1.16,2.23-1.29,7.06h0Z"/>
        <path class="cls-1" d="m500.83,898.85c-.52.55-.95,1-1.36,1.5.42-.37.89-.81,1.36-1.5Z"/>
        <polygon class="cls-1" points="506.36 800.05 505.09 800.74 509.74 800.12 506.36 800.05"/>
        <path class="cls-1" d="m488.81,915.33c.08,1.01-.86,2.27-1.32,3.16-.46.87,2.99-2.36,1.32-3.16Z"/>
        <path class="cls-1" d="m473.71,874.99c-.61,1.46-3.46,3.98-2.88,5.16,3.26.1,1.73-3.28,2.88-5.16Z"/>
        <path class="cls-1" d="m471.37,924.24c1.63.23,1.87,2.2,1.44,3.11,3.85-3.85.09-3.89-1.44-3.11Z"/>
        <polygon class="cls-1" points="468.11 885.38 464.81 887.91 464.82 888.95 468.11 885.38"/>
        <path class="cls-1" d="m451.86,861.11c.99.18,1.75,3.57-.3,7.68,2.14-3.23,2.61-1.76,3.1-.71.25.53.49.94.95.62.45-.33,1.11-1.39,2.28-3.77-6.47,5.24-1.39-6.2-6.03-3.82h0Z"/>
        <path class="cls-1" d="m450.45,870.63c.45-.63.81-1.24,1.11-1.84-.33.5-.69,1.09-1.11,1.84Z"/>
        <path class="cls-1" d="m429.5,930.37c-.44.24-.86.53-1.36,1.02.53-.3.94-.65,1.36-1.02Z"/>
        <path class="cls-1" d="m435.87,888l.54-1.56c-1.12.4-2.51,1.46-3.83,2.86-.66.7-1.3,1.49-1.87,2.33-.55.86-1.03,1.77-1.4,2.69,1.2,1.2,3.26-.82,5.78-3.33,2.48-2.53,5.23-5.7,7.44-7.04l-6.67,4.05h0Z"/>
        <path class="cls-1" d="m449.1,992.02c-2.02,2.08,1.19.17.92,2.41l2.07-7.01-2.99,4.6h0Z"/>
        <path class="cls-1" d="m450.02,994.44l-.41,1.36c.25-.58.38-1.02.41-1.36Z"/>
        <path class="cls-1" d="m439.14,915.81c-1.56,1.42-2.44,2.96-3.34,4.99,1.26,1.12,3.38-3.99,3.34-4.99Z"/>
        <polygon class="cls-1" points="432.95 1025.27 436.15 1016.48 432.99 1024.15 432.95 1025.27"/>
        <path class="cls-1" d="m395.33,1028.41l-1.4.26,7.26,3.16,1.34-.29c-2.43-1.02-4.83-2.1-7.2-3.13Z"/>
        <path class="cls-1" d="m394.8,956.67c.74.32,1.49.57,2.32.75-.05.99-.51.94-.79.96-.28.04-.33.16.45,1.71.31-.81.61-1.63.99-2.43-.17-.42-.9-.96-1.6-1.27-.71-.31-1.32-.41-1.38.29h.01Z"/>
        <path class="cls-1" d="m233.15,923.2c1.23-.36,4.63,3.04,3.17-1.17-2.86-5.03-5.65-10.05-8.35-15.09,1.88,2.61-.04,3.4-.24,3.93-2.61-2.19-.96-5.26-5.1-7.77.7,2.21,1.39,4.44,2.13,6.65-8.53-10.71-6.6-5.23-12.65-16.12l-.2.53c-1.32-1.71-3.27-3.96-5.03-6.32-1.74-2.36-3.3-4.83-3.87-6.94l-1.86,1.87c.12-7.37-3.22-1.83-7.39-9.6l.61,1.28c-3.35-4.17-2.88-1.22-4.03.23-6.25-5.41-1.59-11.17-8.48-16.18-1.16,1.44-4.02.2-4.69,1.75,1.85,1.01,4.27,3.28,4.94,5.71-1.32,3.1-6.25-6.58-5.36-.68-2.61-2.19-5.29-3.61-7.67-5.79,14.22,16.64,28.9,33.48,44.42,49.95-.23.11-.35.35-.19.95.5.02,1.01.2,1.49.42,1.78,1.89,3.58,3.78,5.4,5.65,1.81,1.88,3.61,3.76,5.47,5.62-1.53.63,3.54,5.3,4.39,7.42-1.12-2.42-.97-3.21-.37-3.36l1.15,1.15,2.79,3.39c1.63,3.74,13.86,10.15,8.41,11.61,2.28,2.03,6.55,2.69,9.53,6.47.73-.08,1.1-.28,1.29-.56l.5.45c-.12-.3-.25-.59-.38-.9-.03-.3-.15-.63-.44-1.01-1.17-2.6-1.97-4.77,1.54-3.35-3.99-3.91-10.57-8.28-8.32-10.24,1.55.25,3.4.54,5.46,1.92-3.07-2.8-4.48-5.14-5.93-7.36-1.45-2.21-2.85-4.36-5.8-6.87,1.57,3.69,9.37,15.08,2.01,11.69-.43-2.34-.86-4.67-1.24-7.01-2.48-.99-.15,2.24.07,3.43-1.4.91-7.3-3.48-7.16-5.74h-.02Z"/>
        <path class="cls-1" d="m253.56,937.11c-.81-.89-1.59-1.53-2.34-2.03.7.65,1.44,1.31,2.34,2.03Z"/>
        <path class="cls-1" d="m169.09,859.5l-2.98-3.48c.93,1.42,1.93,2.51,2.98,3.48Z"/>
        <path class="cls-1" d="m259.16,949.71c-.78.56-.73,2.1-1.43,2.84,2.69,2.35,5.36,4.71,8.12,7,.24-1.12-3.42-4.89-.24-4.01-2.18-1.92-4.3-3.89-6.45-5.83Z"/>
        <path class="cls-1" d="m254.14,951.95c2.1,1.25,3.07,1.15,3.59.6-1.48-1.28-2.92-2.59-4.36-3.89.54,1.29.97,2.52.77,3.29h0Z"/>
        <polygon class="cls-1" points="288.17 908.49 289.58 910.8 290.79 912 288.17 908.49"/>
        <path class="cls-1" d="m273.3,902.08c-.68-1.2-2.71-4.71-5.25-5.06,3.01,3.71,2.03,1.91,5.25,5.06Z"/>
        <polygon class="cls-1" points="281.5 885.45 281.01 885.39 283.46 888.94 281.5 885.45"/>
        <path class="cls-1" d="m150.67,822.18c.43.58.85,1.14,1.28,1.71-.26-.46-.63-.98-1.28-1.71Z"/>
        <path class="cls-1" d="m174.82,854.03c-6.42-12.2-15.2-19.84-22.84-30.15,1.24,2.18-1.3,1.75-2.32,1.99,8.65,6.92,3.36,6.33,7.74,12.92-3.05-.68-12.59-10.61-13.16-15.74l3.38,2.39-.55-5.15c-1.3-.83-1.73.2-1.95.72,2.32-2.9-6.34-9.7-11.21-15.07,1.11,5.21-6.77-.71-3.65,4.87,7.39,8.7,14.71,17.58,22.04,26.58-.03.43.05.87.59,1.55l-.14-.99,6.54,8.04c6.2,3.65,3.13-2.12,9.77,4.47-1.18,1.43-1.96.69-4.22.74l4.32,5.51.45-1.04,2.81,5.18c5.03.04-6.78-12.88,2.37-6.81h.03Z"/>
        <path class="cls-1" d="m89.72,760.41l.15-.31c-.15-.12-.19.03-.15.31Z"/>
        <path class="cls-1" d="m93.2,762.58l-.18,2.16c-1.6-.15-3.12-3.31-3.3-4.34l-1.2,2.3c2.2,2.2,4.42,4.35,6.59,6.59-.62-2.25-1.25-4.48-1.91-6.71h0Z"/>
        <path class="cls-1" d="m98.61,775.68l3.69-4.5c-.62-1.19-3.74-5.87-5.28-4.41.06,4.37,1.68-.36,3.95,3.71-2.86-.86-5.06,1.07-2.36,5.2h0Z"/>
        <polygon class="cls-1" points="127.28 800.83 124.72 798.55 124.76 800.4 127.28 800.83"/>
        <path class="cls-1" d="m124.72,798.55l-.09-3.16c-.83.01-1.64.45-2.46.9l2.55,2.26h0Z"/>
        <path class="cls-1" d="m111.72,787.26c1.39,1.32,2.6,2.33,3.75,3.2l-3.75-3.2Z"/>
        <path class="cls-1" d="m115.46,790.46l2.84,2.46.36-.18c-1.05-.72-2.09-1.44-3.2-2.28Z"/>
        <path class="cls-1" d="m118.31,792.92l-2.96,1.49c2.92,3.92,4.94,2.9,6.82,1.89l-3.86-3.38Z"/>
        <polygon class="cls-1" points="259.85 869.28 258.02 865.67 257.51 865.59 259.34 869.21 259.85 869.28"/>
        <path class="cls-1" d="m241.86,851.52c.16.76.37,1.56.75,2.52.06-.78-.23-1.61-.75-2.52Z"/>
        <path class="cls-1" d="m241.93,832.15c2.11-2.37-4.76-9.36-5.98-9.07-3.57,3.15-8.49,4.37-8.46,9.42,1.92,7.54,11.62,14.23,14.38,19.02-.71-3.46.39-5.12-1.32-9.61,2.66-1.14.92-.94.72-4.32-3.03-.6-.15,1.64-1.3,3.09-3.4-2.35-4.18-7.02-2.23-7.73,6.32,5.78-.42-2.87,4.18-.8h.01Z"/>
        <path class="cls-1" d="m252.69,837.59c-.57-1.22-.86-1.82-2.44-3.24,1.08,1.33,1,4.07,2.44,3.24Z"/>
        <path class="cls-1" d="m190.71,820.7c1.05-.16,2-.32,3,.66l-3.27-5.07c-1.43.12.51,3.65.27,4.41h0Z"/>
        <path class="cls-1" d="m193.71,821.36l1.43,2.22c-.5-1.09-.96-1.76-1.43-2.22Z"/>
        <path class="cls-1" d="m190.71,820.7c-.18.01-.34.04-.51.06.33.18.46.1.51-.06Z"/>
        <path class="cls-1" d="m102.19,778.82c.63,1.16,1.86,3.52,2.73,2.54-.59-1.17-1.91-1.9-2.73-2.54Z"/>
        <path class="cls-1" d="m33.85,717.89c.79.07,1.57.17,2.36.26-.9-.44-1.39-.4-2.36-.26Z"/>
        <path class="cls-1" d="m22.21,669.25c.14.28.21.55.17.81.05-.3-.02-.56-.17-.81Z"/>
        <path class="cls-1" d="m22.22,669.26c-.52-1.11-2.35-2.31-4.42-3.42-2.07-1.11-4.42-2.01-5.88-2.71l2.81,2.22-.02-.56c1.08,2.18,6.42,2.8,7.5,4.46h.01Z"/>
      </g>
      <g>
        <path class="cls-1" d="m405.51,19.61c0,.95-.16,1.58-.4,2.06,3.6-7.66,6.51,1.09,9.48-8.53-.57,1.36-1.29.98-1.83,1.01,0-1.36.8-4.99,2.45-6.43l-1.09.06,3.03-7.78c-3.81.19-2.11,7.28-5.39,7.47l.99-4.56-4.66,6.58c2.41-2.4,3.81,1.11,1.23,3.06-3.62-.66-1.62.11-4.72,3.5.9-.51,1.81,1.69.9,3.55h0Z"/>
        <path class="cls-1" d="m409.9,30.04c.86,7.11.93.83,3.36,5.1-.39-1.54.47-3.73,1.04-5.96.6-2.22.91-4.46-.64-6.14-2.28,1.66-4.62,3.31-6.88,5.01.52-1.4.54-2.74,1.81-3.74l-4-1.48c.15-.38.3-.68.45-1.01-.84,1.43-2.55,1.07-3.36,2.15.35,2.23.06,5.43-.97,9.61-3.05,2.09-2.73,2.94-4.77,7.24,1.13,1.26,1.87.04,2.68-1.46.84-1.49,1.77-3.27,3.22-3.17-.15.9-.86,1.86-1.23,2.35.24,3.12,2.54-.68,3.81-.36l.82-5.93,4.67-2.21h-.01Z"/>
        <path class="cls-1" d="m405.1,21.66s-.06.16-.06.16c.02-.04.04-.11.06-.16Z"/>
        <path class="cls-1" d="m346.63,540c.12,4.75-3.31,4.01-2.63,7.93l7.91-11.15v-.33c-1.17,2.59-5.59.14-3.59-3.84l-1.65,1.3c1.48-.71,2.33-5.16,1.02-6.55-.52,3.27-2.14-1.52-3.28-1.99l.72,16.85c.5-.24,1.49-.73,1.49-2.23h.01Z"/>
        <path class="cls-1" d="m368.4,883.46c-.42-.23-.81.06-1.1,2.26.5-.7.82-1.46,1.1-2.26Z"/>
        <path class="cls-1" d="m339.66,554.02l2.47-3.49c-.93.88-1.82,2.11-2.47,3.49Z"/>
        <path class="cls-1" d="m381.08,525.3c-.28.47-.55.99-.82,1.56v.04s1.27-1.58,1.27-1.58c-.19-.08-.31-.03-.45-.02h0Z"/>
        <path class="cls-1" d="m335.73,628.53c.07-.43.08-.74.13-1.11-.07.34-.13.71-.13,1.11Z"/>
        <path class="cls-1" d="m393.98,478.96l-2.15,1.54-4.59,6.46c-.1.62-.18,1.24-.39,1.98-1.49,2.23-3.31,4.1-1.04,8.07,2.35-6.67,3.81-4.35,7.11-8.46v1.53c.65.7,1-2,1.16-2.58-1.33,1.65-1.14-1.99-2.29-.93l2.18-7.61h.01Z"/>
        <path class="cls-1" d="m382.46,780.34l-.27.09c.09,0,.18-.01.27-.09Z"/>
        <path class="cls-1" d="m382.46,780.33l1.1-.38c-.1-1.62-.56-.05-1.1.38Z"/>
        <path class="cls-1" d="m344.35,549.17c-.14-.44-.29-.9-.35-1.26l-1.86,2.61c.78-.74,1.56-1.21,2.2-1.34h0Z"/>
        <path class="cls-1" d="m351.7,543.11c.99-3.45,1.33-6.29,1.9-8.74l-1.7,2.41-.2,6.33h0Z"/>
        <path class="cls-1" d="m333.36,617.55l5.09-1.43c-.25-2.9-.51-6.81-.78-9.07-.36,3.65-.94,7.17-3.48,9.09-.8-4.67-.58-14.37-3.04-14.71,4.03-12.54,12.63-21.7,15.17-35.04-.62-5.25-4.24-4.54-5.73-2.3-.13-5.52,2.49-4.24,3.99-7.98-2.81,3.88-2.48,2.71-5.75.73.11-.97.44-1.93.86-2.83l-17.24,24.3c-3.65,5.28,2.37,15.53-.45,19.41,1.82-1.86,4.43.91,3.75,4.78-.66.82-1.15-.47-1.8-1.16,2.42,6.42,4,15.77.2,20.11l3.47-3.18c-1.52,5.28-1.21,8.65-3.53,12.28.49-.2.82-1.41,1.65-1.28,2.12,3.03-1.52,6.79-.23,9.7l.67-2.34c.98-.47.96,2.57.96,4.09-.19,2.1-2.34,6.67-3.8,2.82l.96,4.09c-.51.24-1.16-.45-1.48-.8,2.95,1.63,1.58,9.35,5.2,8.63,1.66-2.82,3.3-2.59,3.83-7.39-4.91-3.7-.27-10.98-1.37-17.53,1.81-1.87,2.47-1.16,2.82-5.38-3.29,1.06-2.03,8.54-5.62,4.69-1.12-3.5-1.09-9.57,2.37-11.22-.54,10.5,7-1.65,5.82,8.79.51-2.29,2.4-3.66,2.71-7.31-1.28-5.96-5.16,10.54-5.24-2.55h.02Z"/>
        <path class="cls-1" d="m340.6,587.55c-.13-.35-.27-.68-.5-1,.12.53.29.82.5,1Z"/>
        <path class="cls-1" d="m337.65,607.07c.04-.4.09-.78.13-1.16-.1.02-.17.01-.26.06.04.27.09.71.13,1.1Z"/>
        <path class="cls-1" d="m349.99,552.01c.32.33.64.05.94-.52.18-.59.35-1.21.56-1.7-.66.82-.83,1.4-1.49,2.22h-.01Z"/>
        <path class="cls-1" d="m345.57,549.58c-.25-.43-.7-.51-1.24-.39.1.29.13.53.26.86l.99-.47h-.01Z"/>
        <path class="cls-1" d="m357.33,667.72l.47-1.28c-.26.19-.47.52-.47,1.28Z"/>
        <path class="cls-1" d="m338.17,631.92l4.76-.24c-1.34,3.13-1.03,6.54-1.2,8.64,6.9-.28-1.55-15.45,3.58-21.43-.97-1.03-2.12-1.48-1.93-5.12,5.08.09,1.7-10.41,2.72-15.45-.64-2.22-1.17,4.1-2.63,1.78-.15-3.99,2.99-5.99.87-10.53-.16.58-.49.23-.65.82,1.32-7.26-1.67-1.66-3.09-2.84,1.1,2.9-.78,6.53.09,8.81-2.23,2.04-2.56,5.78-2.91,9.55,2.22-.75,2.73,3.18,4.15,2.49.13,5.49,1.23,13.56-.11,18.25l-.31-1.88c.29,6.43-3.31,2.59-3.33,7.15h-.01Z"/>
        <path class="cls-1" d="m350.11,560.54c-.07-.23-.06-.6-.11-.88.02.3.06.62.11.88Z"/>
        <path class="cls-1" d="m327.31,503.26c.94-.04.2,1.95-.33,4.17.97-.5,2.14-1.04,2.13,1.55,1.93,5.12-2.36,8.18-1.73,11.93l.33-1.18c1.13,3.5,1.11,8.06-.56,10.87,3.93,2.68.39-10.29,3.97-4.93-1.45-3.85,1.05-9.58,1.06-12.62,1.12,5.03,5.04,9.22,7.18,7.68-1.88,10.99-8.22.39-9.26,9.98l1.11,6.54-4.13,2.48c.14,3.96,3.3-2.59,3.26,3.48-1.89,1.74.1,5.57-1.14,6.83.95-.21,2-.34,2.24,2.77-.5.23-2.13.03-1.99,2.47,4.26,1.48.54-6.32,4.46-3.65.45,7.37-3.81,4.34-5.13,5.99.5-.24.17-.59.02-1.52-1.32.13-.02,3.04-1.66,2.8-.2-1.18.13-2.37.48-3.42-1.23,2.16-2.92-3.33-3.06-5.44,1.84-4.95.42-14.85.63-21.53-.17.59-.51,1.75-1.16,1.06-.27-9.47-1.72-13.33-1.16-24.2l4.42-2.11h.02Zm-.06,9.11l-.58-3.44c-.19,1.36-.16,2.65.58,3.44Z"/>
        <path class="cls-1" d="m396.23,74.28c.04.32.05.73.08,1.08.04-.41.06-.81-.08-1.08Z"/>
        <path class="cls-1" d="m371.88,372.65l.21,1.99c.01-.58-.04-1.22-.21-1.99Z"/>
        <path class="cls-1" d="m385.76,326.94l-.94,2.89c.51-.86.89-1.76.94-2.89Z"/>
        <path class="cls-1" d="m390.74,98.62c.1-.15.22-.25.31-.39v-.1s-.31.49-.31.49Z"/>
        <path class="cls-1" d="m375.44,239.97c.22.68.52,1.19.85,1.64-.17-.93-.44-1.54-.85-1.64Z"/>
        <path class="cls-1" d="m384.66,330.36l.17-.53c-.08.12-.17.25-.26.36.02.06.05.1.08.17h.01Z"/>
        <path class="cls-1" d="m384.85,395.09c.17-.47.25-.86.37-1.29-.17.31-.32.69-.37,1.29Z"/>
        <path class="cls-1" d="m372.74,392.76c.17-.35.28-.8.37-1.26l-.37,1.26Z"/>
        <path class="cls-1" d="m384.05,462.99l.48-2.72c-.28.59-.48,1.39-.48,2.72Z"/>
        <path class="cls-1" d="m375.62,398.93c.19-.11.37-.28.56-.44-.2-.12-.44.06-.56.44Z"/>
        <path class="cls-1" d="m388.49,55.76l-.55.09.49.07s.04-.09.06-.15h0Z"/>
        <path class="cls-1" d="m397.17,49.06c-.32.71-.65,1.44-.99,2.14.41-.53.77-1.3.99-2.14Z"/>
        <path class="cls-1" d="m370.58,201.16c.78-.69,1.34,1.02,1.88,1.78,1.26-2.71-.86-3.03-1.88-1.78Z"/>
        <path class="cls-1" d="m361.19,60.5c-.56.42-1.12.84-1.78,1.12.21.45.93-.29,1.78-1.12Z"/>
        <path class="cls-1" d="m362.49,59.31c-.44.35-.88.79-1.3,1.2.47-.36.91-.76,1.3-1.2Z"/>
        <path class="cls-1" d="m336.33,218.78c-.04-.39-.26-.69-.53-.89-.13.42-.03.73.53.89Z"/>
        <path class="cls-1" d="m397.04,47.04c.4.35.33,1.15.12,2,1.48-3.28,2.82-6.01,3.73-1.06-.43,3.21-.9,6.4-1.26,9.61.86-4.19,3.4-6.23,2.3-11.07l3.06-.77c.16,4.03-2.28,8.74-4.21,13.05,2.96-2.16,5.14-4.53,7-7.29,1.87-2.76,3.35-5.94,5.07-9.66-.08-4-2.69,1.58-3.48-1.47-.15,2.24-1.84,4.66-2.99,3.43.3-1.85,1.56-2.86,2.26-3.81-.93-.8-2.88,1.17-3.1-.61-1.44,1.93-1.22,7.34-4.34,6.76,1.9-8.32-3.05.77-4.14.9h-.02Z"/>
        <path class="cls-1" d="m372.62,46.25c-.14.06-.25.22-.38.33l.03.18s.35-.51.35-.51Z"/>
        <path class="cls-1" d="m328.53,463.26l.99-.89c-.25-.06-.56.17-.99.89Z"/>
        <path class="cls-1" d="m383.4,55.97h0c-.05.06,0,0,0,0Z"/>
        <path class="cls-1" d="m328.1,441.64c.08-.05.16-.09.23-.12-.07.04-.15.04-.23.12Z"/>
        <path class="cls-1" d="m387.02,433.28c-.12-.08-.24-.09-.37-.12.1.36.24.57.37.12Z"/>
        <path class="cls-1" d="m328.33,441.52c.09-.03.17-.03.25-.03-.08-.03-.16.01-.25.03Z"/>
        <path class="cls-1" d="m335.5,339.92c-.45-.5-.93-.81-.93-.81.38.82.68,1.01.93.81Z"/>
        <path class="cls-1" d="m339.44,359.54c-.11-.16-.21-.23-.31-.36l.31.36Z"/>
        <path class="cls-1" d="m383.83,210.97c.16-.6.3-1.3.36-2.26-.29.81-.37,1.56-.36,2.26Z"/>
        <path class="cls-1" d="m327.2,442.68c.34-.51.62-.82.9-1.04-.25.18-.54.48-.9,1.04Z"/>
        <path class="cls-1" d="m347.9,308.21l-.43.25c.06.12.09.25.14.37.1-.2.2-.41.3-.62h-.01Z"/>
        <path class="cls-1" d="m345.91,297.73c-1.85,9.18,3.54.98,2.26,9.94-.1.21-.16.34-.26.54l2.78-1.62.4,5.28.3-6.07c-.54-2.26-2.01.86-2.87-1.76.95-2.89,1.86-6.69,3.41-2.42.49-1.4-1.52-5.25-.78-7.85-1.7,1.11-3.39-5.48-3.27-6.75-2.93.78-1.72,7.68-2.88,11.42.28-.2.6-.36.91-.72h0Z"/>
        <path class="cls-1" d="m344.31,299.88c.3-.39.51-.88.69-1.44-.36.26-.64.59-.69,1.44Z"/>
        <path class="cls-1" d="m341.58,260.01c-.25.62-.4,1.12-.51,1.58.23-.59.39-1.28.51-1.58Z"/>
        <path class="cls-1" d="m352.91,529.91l.28-.62c-.3-1.56-.59-3.1-.89-4.64-2.14,0-.21,5.13.62,5.25h0Z"/>
        <path class="cls-1" d="m362.19,163.21c-.29.55-.84,1.62-.57,2.02.11-.08.25-.18.37-.29.11-.57.18-1.15.2-1.73h0Z"/>
        <path class="cls-1" d="m351.14,293.78c.35-.23.69-.65,1.02-1.6-.57.42-.85.98-1.02,1.6Z"/>
        <path class="cls-1" d="m357.29,155.98c-.63,1.46-1.9,2.35-2.11,3.86.78.27,1.54,1.49,2.03,2.31-.58-2.46-.49-4.49.08-6.17Z"/>
        <path class="cls-1" d="m357.28,155.98s.06-.12.06-.12c-.02.04-.06.08-.06.12Z"/>
        <path class="cls-1" d="m353.99,533.02c-.26-1.22-.52-2.44-.78-3.67l.89-1.95.16.93c3.13-.5,5.3-5.06,4.67-10.31.17.34.67,3.08,1.34,7.03l.98-1.37c-.92-5.87-1.78-11.39-2.59-16.55-.51,1.92-.9,3.9-.51,6.21-3.58-5.36,1.07-14.15-3.35-16.58-3.35,8.67-1.07,12.63-1.95,21.64,3.43,4.42,1.69-5.85,3.49-6.22l1.12,5.03c-1.96-.59-.71,9.92-5.12,7.51-2-11.04-3.13-22.06-3.53-31.66l-21.49,10.28c-.3.02-.75.21-1.46.71-.28-9.48,8.24-4.96,8.92-7.3.16-2.1,1.99-3.98.35-5.72l-1.15,1.05c.85-5.98,3.13-2,2.5-7.26,1.67-4.35.64,3.72,2.3.92-.95-5.61,5.77-3.76,2.7-12.4-.98.47-3.61-.81-3.79,4.34l-2.44-4.91c-.86,5.98-.67,2.35-.71,8.42-2.96,2.94-4.93,2.37-7.42,5.07.67-2.33,3.13-1.99,2.83-5.39-.97-4.08-1.49.72-2.48,1.18,3.32-5.63-3.41-5.94-.26-10.97,3.61.79,3.45-.15,5.89,3.24,1-3.52-1.59-7.82-4.71-7.34l2.8-.84c-.74-.78-.91-3.54-1.64-3.68l1.34-1.24c2.28,2.44,3.43,4.43,2.57,8.87,1.81-1.87,4.91,2.2,5.27-3.53-.14-2.46-1.62-.22-2.45-.34,1.56-12.87-5.34-12.61-4.13-22.76-1.17,2.57.92,8.63-.91,13.55-2.61-2.79.53-6.31.06-9.12-1.17,2.57-2.16,3.04-3.46.14l1.65-1.3c-.11-1.77-.05-4.96-.89-5.16.64-.12,1.13.65,1.74,2.23,2.16-4.56,2.86-12.98,1.27-20.83-3.61.73-1.55,11.36-4.62,5.76.5-3.27,4.3-6.09,2.04-11.61-1.98,2.48-2.29-2.46-3.59-2.33l4-8c-.61-3.75-1.07-8.09-.04-11.62-.35,1.18-.37,2.71-.05,4.58,4.16-5.51-1.85-9.74-.3-16.57l-1.36,3.17c-1.08-5.06.14-9.19,1.35-13.3l-2.63.21c3.61-.67,4.12-9.51,5.15-11.5-2.06,12.59,3.25,10.63.93,22.83,3.51-4.69,4.06-7.98,7.26-13.02-.31-1.86-.94-2.58-1.76-2.7,1.35-1.65,3.65-2.2,4.53-5.14l-1.46-.83c-1.8-8.23,5.75-7.66,4.32-15.53-3.4-1.48-4.31,6.95-6.21,11.87-3.21-3.65-1.3,7.96-5.83,3.71l2.02-2.45c-.12-2.47-1.92-2.14-1.96-.6.57-3.29-.11-2.48,1.56-3.75,0-12.61-4.31,1.47-6.12-10.84-.86,1.42-.62,4.84-2.58,4.22l.98,6.63-2.63.21c-.44-8.41,2.79-13.44,7.06-17.37-2.4,7.63,2.75.77,4.11,4.69,1.26-1.5.52-2.87-.24-3.69.76-.58,1.17-4.39,2.62-3.92-6.39-1.66-6.72-18.13-13.11-14.3-1.97-4.69,1.51-19.31,1.99-29.53l-1.81,2.77c-5.47-10.78,4.55-9.43,6.27-15.61-2.33,5.45-2.65-4.91-4.41-7.19,2.23-4.89,5.77-8.76,5.77-15.68-2.5-1.53-6.75-1.9-6.83-6.35l2.41-2.9c-.01-4.45,2.26-10.23.75-13.16l-.23.59c-1.07-5.07,2.92-5,3.11-1.12l1.88-4.6-.81-.21c1.05-3.06,2.65-5.96,4.24-9.3,1.6-3.34,3.12-7.13,3.87-11.99-2.83,2.38-4.18-7.91-5.76.9,1.5-2.44,2.43,1.64,3.5,2.25.31,3.25-2.75,5.91-3.16,7.31-1.36-1.17-4.97-.52-7.11,1.04,2.42-3.04,2.98-9.12,3.89-14.56.96-5.43,2.2-10.21,5.75-10.57.44-7.9,3.32-17.91,3.26-27,.25.42.77,1.22,1.29,1.08-.64-2.7-1.33-5.41-1.93-8.12l-.86,1.68-1.4-5.4c-1.04-.7-2.41,1.12-3.01,3.19-.58,1.14.19,2.37.74,1.25-1.49,2.59-1.6,1.41-1.71-.02-.09-1.43-.16-3.1-1.66-1.49.2,1.4-.6,3.08-.62,4.06-.93-6.56,3.96-8.8.67-13.26,2.69-2.65,6.14-8.3,5.14-14.3-1.95,1.93,1.37-6.1-2.18-3.8,1.93-1.91.76-7.38,2.89-7.87-.84.67-1.27,3.15-.87,4.99,1.21-2.2,3.06-2.16,3.25-5.06-.23-.43-.76-.31-.76-.31,2.34-3.39,6.6-.06,7.83-6.5,2.41-8.32.61-8.07-1.91-6.06-2.51,2-5.74,5.8-6.16,4.47,1.61-.35,4.34-7.6,3.6-11.27l-.86.66c.93-1.63,2.71-3.91,1.62-6.06,2.69-.53,5.5-2.02,7.43-2.85l2.08-7.48-1.71,1.26c.95-1.6,1.4-3.09,1.84-4.59-1.72-1.1-1.75,1.24-3.03,3.38-1.44-1.63-.98-3.13,1.3-4.48l-.12.97c1.53-1.7,6-8.11,5.32-2.35,2.83-3.77-.63-6,1.01-8.65-1.5-.69-2.59,1.85-3.45.1.35-2.89.63-4.8,1.97-6.9-.05,2.36,1.64-.26,1.66,3.49,1.22-1.13,2.47-4.59,3.22-4.25-.66,1.04-1.54,1.65-1.05,3.9,1.82-3.55,2.85-7.45,2.65-11.63-.4.04-.87.32-1.33.67,4.12-4.26,5.44-11.95,9.56-14.37l.2,1.64c-1.21.95-1.97,3.37-1.43,4.56,1.85-3.49,2.14,3.44,4.54-.12,2.86-5,.96-10.75,5.26-12.66-1.16,5.21-1.3,12.6-3.38,14.26l.77-3.34-6.29,6.39c1.49.72-2.85,6.42-.24,6.98,1.15-2.49,1.79-4.87,2.61-6.84.96.78-1.35,7.11-1.69,9.96l-.03-3.71c-3.66,5.65-5.08,13.73-8.07,19.4,3.15-4.26.31,6.46,3.34,3.16,1.73-1.22.23-4.22.65-3.36,2.38.08-.43,3.79.97,5.41-1.62.28-3.91,6.25-4.76,2.22.52,2.22-2.74,6.1-1.74,9.19-2.51-1.4-2.85,4.72-4.26,5.48-.11,1.22.21,2.38.66,3.32,1.35-2.37,3.2-5.22,5.14-8.16h-.02c-.13-1.38.37-3.8.82-2.95l1.02.17c.97-1.46,1.95-2.92,2.89-4.33.97-1.4,1.9-2.76,2.78-4.03,1.75-2.54,3.23-4.71,4.17-6.2l-1.73,1.22c4.39-3.96,2.26-9.59,5.99-13.83-.54.07-.87.58-.74-.36,1.05-6.16,6.36-7.27,5.54-12.66l-1.62.2c.28-.36,2.26-2.87,3.72-1.85-1.63,3.88-2.51,4.45-3.07,8.17,1.74-1.12,3.72-4.01,4.38-6.36l2.62.46c3.5-2.25.44-6.43,4.01-8.64l.69,3.99c.14-.07.28-.32.43-.52-.73,1.5-1.45,2.77-2.15,2.98-2.84,4.91.07,8.63,1.21,9.85.15,2.69,3.47-.01,4.96.72-1.62,3.79-4.42,2.8-5.97,6.64.08,1.36.95.77,1.29.27l-2.19,2.57c.75.36-.42,7.3,2.44,3.74.08-.62.44-1.71.55-2.6.36,6.01.14,16.08,3.1,16.46-.08,3.16-1.3,1.99-1.56,6.99-2.54,1.77-4.12-1.14-6.7,3.83l-.1-4.4c.59-.77,1.25-1.37,1.8-2.23-.43,1.42-.81,2.85-1.22,4.28,1.56-2.53,2.55-1.79,4.7-2.14,1.77-6.58-1.36-9.25-1.49-12.86-2.04,1.69-2.45,5.37-4.62,3.44,1.42,3.86-3.02,3.2-1.9,7.57l.84-.59c-2.65,2.71-.36,3.69-2.69,5.91.54-.09.76.33.99.73-2.37,5.44-1.13-2.07-4.8,3.12-.75,5.15,3.73,2.53,4.63,4.18,5.24-7.72,4.15,1.06,8.91-7.43,3.35.79,3.01,4.44,1.51,9.18-.73-3.47-5.39.96-6.79-3.76-3.29,6.93-9.65,4.99-8.27,13.85l.54-.1c-1.04.97-2.1,1.93-3.12,2.91l.48,4.94c4.1-2.22,3.02-6.11,5.56-7.97,2.39,6.33-4.95,6.92-5.91,13.55,3.04,6.19,3.56-6.25,6.94-5.57-1.13,1.14-.04,5.03,1.03,4.79-.13-6.33,2.8-3.31,2.25-10.44-1.83,3.07-1-.72-2.62-.4,1.39-.73,3.2-6.96,3.55-11.56,2.68-.5,1.25,4.31,1.8,7.36-1.89,2.4-1.94,5.22-1.94,7.89s-.02,5.16-1.97,6.93c-1.41,5.73,2.31.87,2.55,1.28.2,5.39-2.48,1.87-3.37,3.42-3.25,7.54,1.43,9.25.65,14.86-4.08,4.12-4.7,15.71-5.5,23.73,1.31-.81,2.09.37,3.15,1-5.33,4.14-3.21,2.67-6.86,8.28l-1.08-5.27c-1.03,3.98-4.7,6.88-2.57,10.91-1.86-2.73-2.84-1.18-3.58,1.42-.74,2.6-1.16,6.25-2.06,7.68,1.14,4.33-2.47,8.23.02,10.77l.24-.55-.03,6.12,4.19-.39c.62,2.15.05,4.43-.81,5.99-.85,1.56-1.98,2.41-2.55,1.64.76,4.47,1.42,1.91,3.31,2.69,1.42-2.39,5.43-7.37,2.21-9.15.27.38.31,1.3-.21,1.47-.93-11.49,5.33-3.26,6.86-8.79.05,2.96,1.86,5.3.5,8.33-.11.72-.69,2.52-1.47,4.5-.75,1.98-1.68,4.16-2.52,5.6,2.14-3.98.44-6.21-.73-9.55.12,2.75-2.28,3.02-1.08,5.47l.75-.71-1.68,2.88c2.4.63.46,8.27,3.64,3.93-.83,4.02-2.31,1.25-3.42,4.89l-.41-7.37-2.63-.06c-1.97,2.55-.08,3.33-.45,6.27l-2.92-.44c.7,1.8,1.46,3.6,2.19,5.4-1.9-.76-1.36,3.32-1.81,4.42,1,2.96,5.62,1.3,2.81,6.1l-.3-.37c-1.1,2.78-1.75,4.43-1.14,8.5.51-.2.95-1.29,1.16-1.84,1.23,5.68-3.41,14.65.8,17.34,2.33-.4,1.05-2.79,3.69-2.84-3.21-8.79,4.41-5.95,2.77-16.2-2.94-.36-1.99-2.48-1.03-4.77.98-2.28,2.01-4.74-.85-5.86.53,4.02-3.26,9.18-3.85,8.45.45-3.69.91-8.84.42-11.45,1.8,2.37,5.08,1.81,7.19.29-1.99,5.84,1.51,16.81,1.8,25.22l-3.53-1.06c-2.75,7.21,3.35-.78,3.38,4.9l-2.68,2.44.3.36c-1.1,1.36-2.2,2.73-3.28,4.11.2-2.96,2.74-1.54,1.36-4.82-1.07-2.91-2.64.06-4.68.84.97,2,.16,9.05,2.6,4.74l-3.67,7.69c1.32-.04,1.94-1.72,2.64-2.5l-.71,5.58.5-.2c-1.58,4.49-1.65,10.8-4.15,14.26-2.54-7.72-2.99,3.68-4.92,3.03.36,2.79,6.56,3.59,9-2.28-2.07-1.58.65-5.6.82-8.56,1.26,3.83-.47,5-.63,8,1.59-2.11,2.1,3.98,3.42,3.91,1.01-.4,4.03-1.65,2.75-5.48-.14-5.71-3.25-.61-2.65-2.29-3.36-1.53.64-7.97-.29-11.44-.3-.37-.71.76-.91,1.32.2-2.97.32-9.24,2.66-9.65l-1.85,7.41c.71,1.63,2.15-2.27,3.46.07-.62,1.67-.89,3.71-.38,5.91l1.01-.41c.93,2.26,1.21,5.15,1.13,8.12-.07,2.98-.46,6.05-.93,8.65-5.15,1.19-8.26,3.93-13.78,6.29,0,3.92.07,7.94.29,12.01.25,4.08.65,8.22,1.24,12.39,2.38-2.03,3.2-7.31,2.93-13.08l-1.26,2.5c-.64-4.64,1.25-6.42,2.32-8.35-.51.22-.82-.13-1.45-.84.5-4.14,3.39-6.33,5.28-4.22l-.88,1.37,2.51,2.82c-4.79,1.14-1.96,9.5-3.97,14.16,2.05-3.22,6.4-6.02,3.45-10.04l2.46.4c.3-3.53-2.2-6.37.18-8.35l-.5,4.11,1.32-.09c-.12,2.91-2.16,6.65-.63,9.32-1.58,2.4-4.12,4.68-3.41,11.01l.51-.22c-4.4,4.42,3.1,11.92,1.22,15.23-4.49,2.02-2.12-6.94-4.03-9.04-1.72,2.74.83,5.54-1.9,3.31-1.98,6.34,4.01,3.63,1.09,8.91l-1.25-2.91c-2.02,2.39-.62,6.24-2.64,8.66-3.13.44-.08-3.95-1.29-8.37l-2.35,2.07,2.36-9c3.85-2.72,3.94-.29,6.56-5.9-2.56-2.81-6.75-4.4-9.76-3.07,1.4,2.33.47,6.73,3.1,6.53-2.54,2.61-4.38,9.9-6.96,8.6-.04.29-.09.65-.14.97,2.95,2.96,5.31,7.46,6.21,15.68.11,1.61-1.64,1.9-4.14,1.63.82,1.72,1.57,3.33,1.74,4.98,1.09-1.31,2.57-2.2,2.62-4.63l1.38,12.79,1.16-1.04-1.52,5.13c.55-2.88-.35-7.25-2.91-6.07-1.71,5.82,1.2,8.95-1.96,13.98,4.75-.24,5.56,1.39,8.21-.36-.06-.32-.16-.47-.27-.56,2.49-1.94,5.13-5.95,5.63-8.98,2,10.57.24,7.91,1.79,17.2,2.79.69,2.55-8.73,4.5-6.64l-1.71-8.7c-.13,1.49-.75,1.7-1.16,2.43,1.74-6.11-.86-8.2,2.12-12.86-1.4-2.82-1.93,4.55-2.52,1.42-.4,2.68-3.38,5.43-5.47,6.8-1.38-6.85,3.32-4.07,4.24-9.97l-2.56-4.29c.37-2.66,1.47.82,2.28.94.56-3.24-1.23-4.4-1.36-6.83.65.69,1.44,2.31,2.44,1.86-2.25-3.96-1-7.96-5.02-11.58,1.93,2.1,4.65-2.62,5.19-4.35l4.1,7.55c-.86,9.78,1.17,15.79-.27,26.44l1.49-.69c5.4,16.45-6.73,14.14-6.18,28.47,3.77.22-.22,6.65,3.4,5.94-.45-4.31,1.01-3.5,2.81-2.35-1.17,2.57-3.81,4.34-2.2,9.12,1.82-1.88,3.61,2.31,4.12-2.48,1.12,6.53.94,10.16-2.2,13.68-2.7,10.89,4.24,3.03,2.86,13.78l1.33-1.63-.21,6.66-1.96-2.09-1.85,7.96c-1.84,4.92-2.45-1.86-3.94-1.16l2.64-1.75c-.8-3.14,1.36-7.73-.6-8.3-.16,5.21-2.37,4.07-3.35,6.18l.88-4.99-2.13-1.51c-.29-4.91-.93-8.66,1.23-11.7,1.13,1.98-1.83,3.4-.2,5.14,3.31-2.57,3.34-8.67,4.2-14.63-.82-.12-1.14-1.98-1.8-1.15-.3.13-.23,1.16-.06,1.73-1.54-.37-2.36,2.97-3.54-2.54-2.31,2.1-6.11,6.45-6.94,6.34-.51,3.27-.53,7.83.44,10.39l.49-.23c.48,2.8-1.71,8.88.76,9.24-.51,1.75-1.03,6.54-2.64,1.76l-1.04,8.07c4.28-1.53,5.54,5.95,8.72-2.14-.08.27-.46,3.21-1.03,7.91.14-.09.28-.14.42-.24.18-.28.4-.51.73-.65-.16-.94,0-1.52-.82-1.64,2.97-2.94,3.94,1.14,4.4,5.48l-2.4,1.15c1.57,3.7,3.87,5.84,3.04,10.9l-8.62,12.15c-.14,1.14-.27,2.31-.41,3.47,1.5,1.46.67,6.66,3.43,4.5,1.16.47,1.66-1.29,1.01-3.52-.33-.33-.49.23-.82-.11,1.49-.71,3.29-1.06,5.07,1.6-.46-2.79-.78-3.13.21-5.13l.48,2.81c.35-4.21,3.52-10.78,5.65-10.79-2.96,1.43.14,3.97.79,6.2.51-1.76,2-5.51,2.48-2.71-1.16,1.06-2.52,8.79-3.96,3.42-.68,2.34-2.02,5.5-1.04,8.07,1.33-3.14,2.46-1.17,4.44-2.12-1.66,2.81-3.79,2.82-4.78,3.31,2.9,7.68,8.47,10.58,6.77,19.47-.33,1.17.69-5.37-1.28-4.44-3.17,6.58,4.05,8.18,2.86,13.81l-3.44-1.4c-.5,1.76-.86,5.99-1.04,8.07,1.16.47,3.75,6.3,4.59,1.85,2.41,9.46-6.79,8.79-5.21,19.68-1.11-5.02-.95-5.61-1.09-9.59-1.67,4.33-1.47.72-3.78,1.3,2.29,2.45.76,10.76,3.26,5.03.31,3.38.92,10.16-.4,11.8l-1.3-2.92c.3,4.91-1.54,9.83-3.85,11.95.03-6.1,4.3-6.1,3.53-13.82-2.74-8.28-2.31,2.12-5.88-3.24l2.17-6.09.47,2.8c3.28-1.07-.77-9.23,3.33-8.67-3.42-5.92-1.6-7.81-4.84-14.35,1.32-1.64,1.48.81,1.79,2.68-.3-3.38,3.64-3.75,1.04-8.07-.64-2.22,2.8-.84,2.94,3.14-.31-3.39.2-6.67-.43-10.4l2.77,3.71-.14-3.97,1.62,3.27c.06-7.6-.89-16.26-4.47-20.09-2.34,6.67-.76,17.54-4.89,21.53-1.31-1.39,2.83-5.39-.94-7.12l2.31-2.11c.67-2.34,1.37-7.72-1.09-8.07-1.47,6.41-3.52,8.16-5.45,11.47-.51.05-.75.64-.82,1.56-.03.04-.06.1-.06.1l.06-.06c-.14,1.88.25,4.94-.26,6.72.64,2.2,1.96.6,2.45.34,3.41,7.47-4.18,13.12-1.76,21.06,2.13-.02,2.91,6.18,3.91,4.19.79,4.67-1.69,7.38-3.02,10.53,1.96.59.93,7.13,2.92,4.67l-2.99,4.45c1.3,2.91-.05,9.13,2.24,10.05-.51,3.28-3.29,1.07-2,5.51.49-.23.81.11.65-.82,1.14,1.98,1.45,6.91-.05,9.12-.79-3.14-.65-.7-1.28-4.44-1.31.15-2.98,4.46-1.2,8.66,3-5.97,3.43,4.43,5.08,1.62.77,9.23-3.37,14.74-6.05,22.59-.05,9.12,1.85,20.34-.66,27.6l-.16-.93-1.66,4.33c.14,2.45,3.44-.13,2.76,3.72,2.96-1.43.2-6.66,2.2-10.65,3.24,6.53,2.66-6.33,5.26-2.01-5.92,2.83-.24,14.27-3.24,20.24.95,5.61,2.48-2.71,2.96.08l-1.83,1.89c.65,2.21,1.3,2.92,2.62,2.8,1.28,5.95.58,12.87-1.75,18.02,1.03-6.56-2.81,2.33-3.09-4.08-1,2-1.35,6.2-1.22,10.17.69-3.85,4.58,4.9,3.15-3.51,3.11,1.04-.36,4.21.27,7.96,1-1.98,2.67-6.35,3-5.98-3.81,5.87,3.33,18.11.53,20.45-2.5,4.24-4.34,10.67-6.67,15.82,2.43,4.9,1.25,10.53,2.2,16.13l1.15-1.06c.81,3.16-.21,8.18.58,12.85l2.3.94c-.52,3.27-.56,9.34-.26,14.27-1.31.12-1.28-4.45-2.77-2.22-.16-2.46.03-4.56,1.49-3.75-.15-2.45-2.28-2.45-3.42-4.42l-1.04,9.58c.19.75.39,1.01.59,1.05l-2.41.82c.15,2.47.8,3.15,1.78,2.69-.68,5.39-3.81,7.4-2.86,13.01,1.98-2.48,3.3-4.12,3.16-8.1l.29,6.44c2.16-3.05,1.07-14.15,4.84-12.42-1.2,7.14-2.91,17.56-5.58,23.88,2.95,3.15-.21,8.18,1.24,13.55.65.7,1.47,2.33,2.61,1.27l.02-1.52c.94,7.15-.58,15.44-2.44,21.88l2.94,3.13c1.58,10.87-4.58-1.84-4.82,9.38,3.1,2.56,2.05,13.67,4.51,14.01-.17,2.1,0,3.04-1.83,3.39-.31-1.87.05-6.07-1.94-3.6-.69,3.86.95,5.6.93,8.64.5-.23,1.99-2.48,1.65-1.29-.87,7.49-.14,21.29-4.78,28.56.35-2.7,2.16-3.06,1.03-6.57-1.32.12-1.01,2-1.66,2.81-2.47-.33,1.5-3.74-.46-7.36l-2.67,6.34-2.43-3.38-5.84,14.4c-2.23-11.56,6.68-17.34,2.96-26.68-.69,1.54-1.42.1-2.04-.24,1.06-3.08.89-6.69,2.41-8.62l-.29-4.8c-1.32.12-4.46,2.12-4.16,7.03-1.03-17.17,4.97-30.65,1.78-47.82-.66-.7-.68,2.34-1.16,1.06.68-2.36,1.37-6.22,2.18-6.1-.5.23-1.48.72-1.5,2.23.88-9.01-3.36-13.54-1.68-19.4-1.64-.24-.84,4.45-1.49,3.75-1.75-8.75,3.03-13.57,2.59-22.46-2.15,3.04-2.45-1.85-3.91-4.19,1.69-7.38,1.45-22.91,2.51-34.03-5.6,3.17-.75-12.28-5.66-12.95-.15-2.45.53-6.32,2.34-6.67-.83,1.41.8,4.67,1.78,4.18.18-3.61.05-9.1,2.35-9.7l-2.6-4.33c1.81-.35,3.95-1.88,3.8-4.33-4.89-5.24,3.27.44.38-7.24-1.82,1.87-3.15,3.51-4.63,4.23-.64-3.75.5-3.29.85-5.98-1.47-.8-3.79,2.83-4.63,5.75l-1.62-4.78c2.65-4.81,6.32-13.12,5.05-20.6-1.65,1.3-1.5,3.74-3.95,1.88.51-3.27,3.5-7.73,1.71-11.93-.16.6-.49.25-.66.84,2.19-7.63-.94-5.62-1.56-12.4-.25.12-.58.16-.85.37l1.54-4.23c3.83-8.9-3.22-9.57-5.16-14.71l-.34,1.17c-2.94-3.14-.73-13.78-2.03-16.71,1.95,3.61,1.8,1.15,4.9,3.72-.51,3.29-4.11,2.47-2.67,7.85,2.8-.83,3.5-7.74,5.64-9.26.03-3.05-4.56-4.9-6.21-5.12.05-7.6-1.73-11.8-1.18-21.14,1.83-3.42,7.76-6.25,3.53-13.83l-.99.47c1.81-.35-.63-3.74.69-5.38,3.1,2.55,1.82-3.41,4.76-.26.02-4.56-4.08-5.12-6.54-5.46,3.96-3.4-2.56-8.87-.55-15.91-1.65,1.32-1.69,8.91-3.81,5.88l4.32-9.13.14,3.96c2.83-6.91-.93-8.64-2.39-12.49-1.26-.71-1.59,1.87-1.45,3.8-.27-2.07.11-5.42.93-8.17,1.2-2.11,2.48-9.28,4.56-12.24-.1-.38-.2-.76-.3-1.14-.23.12-.45.31-.51.55.05-.58.15-1.05.27-1.49-.27-1.18-.55-2.36-.82-3.55l-.54.75c.11-.49.24-.95.38-1.41v.06Zm17.99,340.86c-.43.21-.77.48-1.05.81.3-.8.6-.6,1.05-.81Zm-12.35-444.67l1.47.82c-.64-2.22,1.18-4.12-.62-5.27-.72-.09-8.28,11.56-10.32,15.16-.25,4.33.07,8.92.95,11.54l.39-1.35c-1.09-20.35,4.02-12,10.81-.1-.7-6.74-1.89-13.79-2.68-20.8h0Zm-10.64-4.51c.69-.34,1.14-.1,1.48.42.09-1.39.18-2.8.27-4.21-1.21.68-2.63-.16-1.75,3.79h0Zm3.3-2.59c-.18-.19-.25-.57-.3-1.02l.3,1.02Zm4.95,76.43c.07,1.35.26,2.07.48,2.44-.15-.98-.29-1.92-.43-2.86-.02.17-.04.23-.06.41h0Zm-3.42-7.95c.66,1.09,1.57,1.37,2.61,1.62-.13-.92-.26-1.81-.39-2.68l-2.23,1.05h.01Zm-8.7-25.66c-.82,1.4-.54,7.83,1.61,6.3-1.29-4.44,5.94-4.35,1.53-8.31,1.9-.74,2.73.3,3.2,1.9.38-.57.8-.91,1.25-.99-.17-1.63-.33-3.17-.48-4.61-.32-1.29-.68-2.43-1.47-2.04-3.13.49-3,5.98-5.64,7.75h0Zm19.4-345.36c-3,5.3-1.29,6.84.12,8.64.7.91,1.34,1.88,1.29,3.44-.05,1.56-.81,3.7-2.79,6.97.1.94.08,2.04.01,3.21-1.47-1.48-3.29-3.09-3.85-5.62,4.7-4.35,1.14-9.59,1.5-15.33.69-.94,1.42-1.88,2.14-2.82.73.77,1.34,1.34,1.58,1.52h0Zm-4.63,64.97c.76-6.38,1.05-6.91,2.17-11.91l-1.59,1.38c-1.83-1.16.83-4.99,1.55-9.08,1.27-1.07,2.77-3.54,1.63-5.37l-1.6.41c-1.22-.92-.68-5.01,0-9.61-.53.5-1.15,1.04-1.86,1.62-1.26,1.01-2.26,2.28-2.82,3.87.35-.9.44-2.02-.08-3.64l-6.57,7.36c-.13-4.24,4.87-4.11,4.77-9.26-3.16-.16-4.71-.74-7.78,4.33-.15,4.8,1.84,0,2.81,2.61-4.31,3.03,2.45,5.04-2.32,8.22-.86,4.53,1.53,3.4,2.55,5.02.86-4.5,2.87,2.55,4.27-3.05,1.24,4.87-3.74,2.91-3.01,6.98l3.15,1.02c.45,3.66,1.32,11.49-1.32,16.05-1.59-4.28-2.38,2.13-4.21,1.26,2.89-.4,1.56-6.19.25-6.28-.51,1.59-1.2,4.4-1.61,7.05-.41,2.65-.63,5.12-.35,5.99l-1.17-6.37c-1.82,1.99-5.63,9.46-6.15,9.63,1.07,2.56.41,6.17,2.05,7.58l2.75-4.28-1.88-1.81,2.86-2.33c.61,3.01,1.85,9.3,4.03,10.81.09-1.7.31-3.62.71-5.73.43-2.11,1.03-4.4,1.84-6.85.82-2.45,1.82-5.06,3.08-7.79,1.29-2.73,2.83-5.58,4.63-8.53,0,0-.54.15-.8.7h.02Zm-2.37,167.04c.3-2.19.58-4.3.84-6.19l-2.45-.37c-1.19-9.96,4.98-17.15,3.61-27.4-2.2,1.44-.88,5.32-2.01,4.81-.56-6.19,5.62-5.4,2.48-11.43-.77,8.69-1.21-5.4-3.41,2.44,3.64-10.91-1.44-22.53-.59-29.72,1.53,1.83,2.35-2.9,2.86-3.09-.2-1.88-1.73-1.27-1.83.24-1.3-3.73-3.32-4.42-5.28-3.84l-.41,7.58c-.63-2.47-2.26-3.84-2.56-5.85h-.01c.09.59.1.59.01,0-.13-.89-.03-1.87.56-3.16.88-1.28,1.23-1.02,2.38-1,1.66-2.39,3.69-5.38,6.19-9.16l-.5.2c.26-2.7.57-5.4.88-8.09l-1.23.95,2.25-4.68c-2.64,0-1.18-1.52-3.01-1.32-4.52-3.21,2.42-10.52.65-17.1l-1.26.92c1.34-1.68,1.53-4.73,1.31-8.07-.21-3.34-.81-6.98-.88-9.8l-.53.16c-1.33,3.33-2.91,3.9-3.99,2.22-.65,1.14-1.11,2.99-1.8,4.04.1,1.91-1.2,7.18,1.2,7.79.32-3.96.6-3.56,2.01-1.65-2.47,3.73-1.41,11.13-5.15,10.53-.43,5.5.64,1.71,1.7,5.69,1.1.57,2.07-.76,3.03-2.07-.81,5.28-1.46,10.57-2.2,15.87-2.86.61-2.15-10.39-5.95-5.05-.95,1.34-5.22.99-4.23,6.52.39.08.67-.38.88-.92-.59,2.47.41,2.92.88,5.64,2.73.9,2.08-3.27,4.03-4.99-.63,1.71-1.77,3.63-1.6,5.54l1.03-.41-.8,5.73c-2.17,2.32-.14-4.37-1.75-4.73l-1.79,3.65c-.36,2.1-.75,5.97-.58,9.8.16,3.83.88,7.62,2.84,9.54,1.36,4.89-1.8,2.73-3.52,3.95-2.31,2.95.63,5.7-.33,8.59-2.13-.1-1.97,3.34-4.61,3.47l.59,4.75c-3.91,2.69-.71-5.7-2.45-6.95-3.5-2.53-1.16,3.51-3.23,1.88.36-3.66,2.16-3.93,2.76-5.7.29-2.1-.62-3.22-1.95-3.16,1.47,5.87-2.82,3.19-2.24,7.97l.81.16c-2.64.13-1,6.95-2.27,9.52,3.06,5.19,3.98-4.26,4.81-4.1l-.79,6.37c1.76-2.79,3.44,0,5.09-3.73-.83,3.88,1.64,4.31,0,8.03,3.95-4.24,3.08,5.16,5.53,5.58.99-4.44-3.28-12.57-3.66-11.41.81.15.42-5.17-.63-7.22l3.6-3.03c.16,3.41-1.39,8.06,1.64,6.75l-1.54,4.66c4.75-4.82,4.59-4.58,6.67-8.91,1.96,4.44.92,8.39-.13,12.17-1.06,3.77-2.2,7.37-.36,10.99l.36-1.15c-.7,14.53,4.38,17.84,10.03,20.77v-.02Zm-2.41,19.84c-2.93-.63-4.86-.72-4.09.87l-2.09-3.06-.57,4.8c-2.43-1.89-.57-5.28-.69-7.74-1.74-2.7-1.92,6.43-5.41,9.58-1.68,2.8.85,8.67,2.02,7.62-3.95.33-1.75,8.92-3.59,12.31.25,7.96,5.37,5.01,4.15,12.17l-2.27-2.45c-.55,6.33-.89,9.02.53,15.91,2.8.7-.79-3.14.53-4.79l2.93,3.14c.01-1.51,2.17-4.57-.46-4.33,1.32-.12,3.3-2.58,2.45,1.87l1.83-3.39c.33.17.6.41.81.69.07-.98.15-1.99.22-2.99-.95-1.2-.96-3.46-3.11-5.3-.82-.11-1.01,1.98-1.34,3.18-1.28-2.94-.94-5.63-.42-7.38.78,4.67,1.95,2.1,4.25,3.03.84-2.93.06-7.6.58-9.36-1.12-3.95-3.79-7.12-5.69-4.38.97-2.6-.23-5.23,2.06-8.03-2.38,5.14,5.58-.11,2.37,6.44,3.76,1.75,2.04-5.49.45-8.77-.52,1.75-1.81.34-2.8.8,1.06-5.03,3.82-2.78,4.91.73l1.74-5.85c.04.2.04.38.09.57.21-1.99.42-3.95.62-5.88h0Zm26.99,105.64l.04-.02c0,.06,0,.13.02.2-.02-.06-.04-.13-.06-.18h0Z"/>
        <path class="cls-1" d="m388.89,52.99c.88,1.26,1.29.29,1.73-.9.46-1.19.97-2.6,1.98-2.27-1.67-1.17-2.5,2.1-3.71,3.17h0Z"/>
        <path class="cls-1" d="m388,48.55l.1,2.71,1.69-3.85c-.5,1.43-1.23,1.04-1.79,1.13h0Z"/>
        <path class="cls-1" d="m375.22,40.39c3.83.92,5.57-9.43,4.32-12.51-1.98,4.79-6.86,5.35-8.17,11.56,5.09-.13,3.45-7.83,8.06-5.1-.83,3.33-2.08,4.4-4.22,6.05h.01Z"/>
        <polygon class="cls-1" points="368.31 41.66 370.43 38.61 370.24 38.19 368.12 41.24 368.31 41.66"/>
        <path class="cls-1" d="m393.31,127.57c.58-1.03,2.57-2.76,1.04-3.37-1.16,1.12-.98,2.46-1.04,3.37Z"/>
        <path class="cls-1" d="m400.54,821.83l.32-26.43c-.4,11.81-.27,18.83-.32,26.43Z"/>
        <path class="cls-1" d="m371.5,206.99l2.99,3.28c-1.31-4.03.24-6.6,1.78-9.32,1.55-2.73,3.11-5.62,2.05-10.39-.39,1.72-.87,3.19-1.42,4.52-.53,1.34-1.11,2.54-1.73,3.74-1.23,2.4-2.56,4.78-3.67,8.16h0Z"/>
        <path class="cls-1" d="m381.7,203.46c-.16,4.2-2.07,1.53-3.28,6.07,2.13,1.2,3.3-5.15,6.23-3.72l-2.95-2.35Z"/>
        <polygon class="cls-1" points="337.08 168.53 336.27 170.21 338.14 168.24 337.08 168.53"/>
        <path class="cls-1" d="m379.44,236.71l1.51,2.78c-.26-1.17-.53-2.34-.77-3.5l-.74.71h0Z"/>
        <path class="cls-1" d="m380.17,235.99l.76-.71-.76.71Z"/>
        <polygon class="cls-1" points="332.66 165.41 331.05 166.83 331.25 170.18 332.66 165.41"/>
        <path class="cls-1" d="m345.5,197.88l-1.26,2.77c1.87,1.83,1.01-2.22,1.26-2.77Z"/>
        <polygon class="cls-1" points="379.41 257.46 378.1 260.79 378.39 261.14 379.7 257.81 379.41 257.46"/>
        <path class="cls-1" d="m331.04,224.03c1.79,4.29.61-3.66,2.82-1.47-1.08-.6-2.21-2.19-2.82,1.47Z"/>
        <path class="cls-1" d="m347.23,267.15c.28-.47.38-.96.39-1.43-.14.39-.27.86-.39,1.43Z"/>
        <path class="cls-1" d="m347.52,261.64c-.72,1.02.14,2.56.1,4.08.49-1.48.91-2.15-.1-4.08Z"/>
        <path class="cls-1" d="m346.68,283.08c1.06.51,1.2-.86,1.22-3.12.26-.34.56-.74.87-1.18-.33.31-.63.59-.93.88-.51.17-1.26.07-1.36,1.53-.95,1.24-1.13,1.91.05.52l.14,1.38h0Z"/>
        <path class="cls-1" d="m386.75,346.6c.47-6.42-.37-7.48-.13-12.83-.67,2.85-3.83,2.19-3.15,6.9,1.82-.32,2.27.96,3.28,5.92h0Z"/>
        <path class="cls-1" d="m386.73,331.9c-.06.69-.09,1.26-.11,1.86.11-.51.18-1.09.11-1.86Z"/>
        <polygon class="cls-1" points="324.74 264.07 324.32 265.24 327.2 262.11 324.74 264.07"/>
        <path class="cls-1" d="m387.12,350.84c.65.71.61,2.19.75,3.11.13.92,1.08-3.43-.75-3.11Z"/>
        <path class="cls-1" d="m350.63,330.43c.45,1.31-.15,4.57.98,5.06,2.69-1.69-.71-3.17-.98-5.06Z"/>
        <path class="cls-1" d="m377.89,366.9c1.49-.67,2.76.71,2.91,1.64,1.1-4.96-2.06-3.02-2.91-1.64Z"/>
        <polygon class="cls-1" points="352.59 340.53 351.5 344.03 352.14 344.73 352.59 340.53"/>
        <path class="cls-1" d="m324.93,332.87c.87-.41,3.66,1.4,4.47,5.17-.49-6.45,5.07,2.86,2.61-5.84-1.71,6.83-4.99-3.31-7.09.67h.01Z"/>
        <path class="cls-1" d="m329.61,339.84c-.02-.65-.09-1.24-.22-1.79.04.5.1,1.08.22,1.79Z"/>
        <path class="cls-1" d="m345.67,391.43c-.24.37-.47.76-.68,1.34.31-.45.52-.89.68-1.34Z"/>
        <path class="cls-1" d="m328.13,358.71l-.46-1.31c-1.36,1.63-2.1,5.52-1.33,8.71,3.29.51,2.8-9.38,4.89-13.39l-3.1,5.99h0Z"/>
        <path class="cls-1" d="m389.88,423.36c-1.14,1.41,1.17-.33,1.7.55l-.53-3.13-1.17,2.58h0Z"/>
        <path class="cls-1" d="m391.57,423.91l.1.6c.03-.28-.01-.47-.1-.6Z"/>
        <path class="cls-1" d="m346.36,376.5c-.52,1.74-.55,3.26-.25,5.14,1.64.24.89-4.45.25-5.14Z"/>
        <polygon class="cls-1" points="386.32 441.7 386.35 437.15 385.98 441.34 386.32 441.7"/>
        <polygon class="cls-1" points="391.43 464.01 392.08 464.71 393.08 461.2 392.44 460.51 391.43 464.01"/>
        <path class="cls-1" d="m329.55,434.5c.79,3.15-1.83,3.4.79,4.67l-.13-5.48c-.65-.71-3.47,1.63-2.99,4.44l2.33-3.63Z"/>
        <path class="cls-1" d="m394.49,604.97c-1.14-.46-1.28-4.44-3.11-1.04l-4.03,14.06c.35-2.69,2.31-2.12,2.81-2.35.48,2.81-2.82,3.86-1.36,7.73l2.82-5.39c-.72,11.46,1.44,6.89-1.09,17.19l.5-.24c-.19,3.63.1,10.05-1.73,13.45l2.63-.24c-4.78,4.82,1.31,2.92-.39,10.29l.34-1.17c-.03,4.55,1.46,2.33,3.27,1.97,1.44,6.89-5.79,8.32-3.54,15.33,1.81-.37,3.27,1.97,4.76,1.27-.82-1.65-1.29-4.47-.29-6.45,2.95-1.4.77,7.72,3.75,3.27.66,2.84,1.87,5.19,2.38,7.95l-2.36-56.32c.25.05.49-.04.77-.5-.36-.29-.62-.68-.84-1.07l-.54-12.93c1.56.45.96-5.2,1.83-6.94-.86,2.08-1.5,2.49-2.04,2.25l-.05-1.33.3-3.59c1.33-3.16-2.87-13.78,2.04-11.58-.15-2.46-2.76-5.26-2.08-9.12-.57-.36-.97-.46-1.3-.41l-.02-.55c-.13.25-.25.49-.38.74-.19.19-.35.45-.42.83-1.06,2.17-2.06,3.9-3.48,1.06-.01,4.56,1.59,10.86-1.37,10.77-.95-1.02-2.06-2.24-2.53-4.24.34,6.83-2.33,8.87-1.48,15.26,1.33-3.18,3.71-14.41,6.62-8.23l-3.97,4.94c1.13,1.99,1.66-1.29,2.32-2.13,1.64.23,2.91,6.18,1.26,7.48v-.02Z"/>
        <path class="cls-1" d="m389.53,585.13c-.05.99.05,1.81.22,2.54-.04-.78-.09-1.6-.22-2.54Z"/>
        <path class="cls-1" d="m402.21,680.61l.17,3.96c.16-1.47.05-2.74-.17-3.96Z"/>
        <path class="cls-1" d="m394.56,567.56l.12,7.03c.94.13,2.03-.77,3.05-.78l-.36-8.59c-.99.46-1.33,4.68-2.81,2.35h0Z"/>
        <path class="cls-1" d="m397.73,573.81l.2,4.71c.55-1.05,1.14-1.99,1.83-2.31-.55-1.91-1.27-2.4-2.03-2.4Z"/>
        <polygon class="cls-1" points="344.88 581.73 345.56 579.39 345.58 577.87 344.88 581.73"/>
        <path class="cls-1" d="m350.88,595.02c-.34,1.17-1.34,4.68.28,6.42.36-4.19-.14-2.45-.28-6.42Z"/>
        <polygon class="cls-1" points="333.44 600.84 333.76 601.19 334.45 597.32 333.44 600.84"/>
        <path class="cls-1" d="m393.32,716.18c.03-.64.05-1.25.08-1.88-.08.46-.13,1.02-.08,1.88Z"/>
        <path class="cls-1" d="m394.36,681.36c-2.56,11.75-.42,21.72-.95,32.97.4-2.18,2.11-.51,3.05-.12-2.41-9.47,1.35-6.2,2.04-13.11,1.96,2.09,3.2,14.13.39,18.01l-1.12-3.5-2.82,3.86c.49,1.28,1.48.81,1.97.57-3.61.71-1.21,10.17-.92,16.6,2.49-4.22,4.73,4.3,5.92-1.31l-.31-30.53c.28-.28.5-.63.5-1.39l-.51.76-.1-9.06c-2.58-5.83-3.77-.22-4.87-8.28,1.81-.36,1.96.57,3.76,1.73l.04-6.08-1,.47,1.02-5.03c-3.93-2.69-2.71,12.4-6.1,3.41v.03Z"/>
        <path class="cls-1" d="m398.25,793.7l-.32.1c.03.18.15.11.32-.1Z"/>
        <path class="cls-1" d="m398.95,788.76c1.04,1.11-.09,4.16-.69,4.94l2.47-.74-.12-8.53-3.31,5.63,1.65-1.3Z"/>
        <path class="cls-1" d="m402.46,777.98l-5.76.73c-.34,1.16-1.35,6.19.78,6.19,2.98-2.93-1.47-.81-.29-4.91,1.46,2.34,4.41,2.44,5.27-2.01h0Z"/>
        <polygon class="cls-1" points="397.74 743.88 398.21 746.91 399.37 745.62 397.74 743.88"/>
        <path class="cls-1" d="m396.23,749.12c.64.47,1.53.63,2.45.8l-.47-3.01-1.98,2.21Z"/>
        <path class="cls-1" d="m400.59,762.21c-.17-1.72-.4-3.13-.68-4.4l.68,4.4Z"/>
        <path class="cls-1" d="m398.99,754.39c.32,1.1.62,2.19.91,3.42l-.52-3.34-.39-.08h0Z"/>
        <path class="cls-1" d="m398.69,749.91l.7,4.56,3.21.71c.36-4.39-1.83-4.87-3.92-5.26h.01Z"/>
        <polygon class="cls-1" points="338.54 624.67 337.54 628.18 337.87 628.53 338.88 625.01 338.54 624.67"/>
        <path class="cls-1" d="m340.67,647.03c.37-.61.72-1.28,1.04-2.15-.55.51-.85,1.24-1.04,2.15Z"/>
        <path class="cls-1" d="m328.33,660.39c-3.14.48-2.19,9.14-1.05,9.59,4.76-.24,9.35,1.58,12.49-1.93,3.23-6.25-.06-16.17.92-21.02-1.66,2.77-3.59,3.31-5.11,7.35-2.78-.69-1.31.14-3.3,2.59,1.96,2.09,1.15-1.05,2.96-1.42,1.13,3.5-1.2,7.15-3.16,6.58-1.28-7.49-1.49,2.22-3.76-1.75h0Z"/>
        <path class="cls-1" d="m323.44,650.57c-.34,1.17-.5,1.76-.18,3.63,0-1.53,1.82-3.4.18-3.63Z"/>
        <path class="cls-1" d="m361.15,695.76c-.91-.45-1.76-.83-1.93-2.04l-.61,5.2c1.2.68,1.88-2.77,2.54-3.16h0Z"/>
        <path class="cls-1" d="m359.22,693.72l.26-2.28c-.28,1.01-.34,1.72-.26,2.28Z"/>
        <path class="cls-1" d="m361.16,695.76c.14.09.29.15.43.23-.14-.3-.29-.31-.43-.23Z"/>
        <path class="cls-1" d="m401.99,773.67c.33-1.18,1-3.51-.3-3.38-.35,1.15.15,2.45.3,3.38Z"/>
        <path class="cls-1" d="m401.79,859.12l-1.14-1.98c.16.94.49,1.29,1.14,1.98Z"/>
        <path class="cls-1" d="m365.8,890.6c.19-.21.4-.37.65-.44-.29.08-.5.23-.65.44Z"/>
        <path class="cls-1" d="m365.81,890.61c-1.51,1.63-1.04,7.26-1.06,9.96l.85-2.92-.5.22c1.58-1.62-.31-5.83.71-7.27h0Z"/>
      </g>
    </g>
  </g>
</svg>