<?xml version="1.0" encoding="UTF-8"?>
<svg id="Lag_2" data-name="Lag 2" xmlns="http://www.w3.org/2000/svg" viewBox="0 0 804 1044.49">
  <defs>
    <style>
      .cls-1 {
        fill: #f0821f;
        stroke-width: 0px;
      }
    </style>
  </defs>
  <g id="Lag_1-2" data-name="Lag 1">
    <g>
      <path class="cls-1" d="m25.48,677.7c-2.27-.84-3.44-3.18-2.31-3.39-5.22-.54-4.34-2.5-6.56.46-3.62.17-5.49-3.55-1.63-3.26l-9.11-2.11,4.58,2.96c-2.69,2.04-7.33-4.73-10.46-2.35l8.9,4.18-.89.68c2.48.04,6.16,2.41,7.31,3.47-.44.34-.67,1.13-2.25.43,10.45,5.57,5.25-3.28,14.47.27-.58-.21-1.24-.6-2.05-1.34Z"/>
      <path class="cls-1" d="m31.07,688.88l5.4-1.5,5.71,4.03c.67-1.13,5.64.23,3.13-2.36-.69-.12-2.04-.38-2.93-.97,1.99-2.18,8.83,2.96,8.34-.52-5.2-1.86-5.68-2.78-9.73-2.27-4.35-2.53-7.3-4.78-8.93-6.77-1.53-.29-2.5,1.16-4.35.61.39.15.76.29,1.2.49l-1.76,3.89c1.82-.09,2.96.97,4.55,1.69l-9.49.76c.53,4.74,8.67,6.27,10.73,9.2-1.87-4.99,3.61-.16-1.89-6.27Z"/>
      <path class="cls-1" d="m27.71,679.12s-.13-.06-.18-.08c.06.03.13.06.18.08Z"/>
      <path class="cls-1" d="m478.15,947.15c1.32-1.02,1.14-2.12,1.03-2.68-2.54,1.81-5.08,3.63-7.65,5.4-2.59,1.72-5.14,3.53-7.78,5.16.55.31,2.15.05,3.28,0,1.12-.06,1.78.12.45,1.4,2.03.14,5.56-3.5,5.3-5.13l-.18,2.17c1.21-2.1,2.98-2.73,4.3-2.47,1.32.25,2.15,1.38,1.34,2.73l.29-.23c.86-2.33,1.71-4.61,2.52-6.93l2.34-6.95c-3.83,2.18-.97,4.37-5.24,7.53Z"/>
      <path class="cls-1" d="m773.57,679.91c-2.16,1.49-2.26,1.99-1.82,2.23.69-.69,1.33-1.4,1.82-2.23Z"/>
      <path class="cls-1" d="m484.43,936.37l1.34-4.36c-.74,1.47-1.2,3.02-1.34,4.36Z"/>
      <path class="cls-1" d="m485.21,984.81c.07.12.1.25.29.35.29-.71.56-1.43.83-2.15-.02.02-.03.02-.04.03-.41.63-.76,1.22-1.08,1.78Z"/>
      <path class="cls-1" d="m540.36,871.87c.23-.34.45-.61.72-1.02-.3.34-.53.68-.72,1.02Z"/>
      <path class="cls-1" d="m435.82,1027.01l7.3-4.2c1.23-.72,2.29-1.42,3.34-2.13l.38-.26.25-.2.5-.4,1-.79c-.71,1.63,3.49-.64,2.17,1.48.62-.48,3.63-2.37,2.49-2.54-.59.31-1.2.6-1.8.9,1.65-2.64,1.55-4,1.92-5.39.36-1.4,1.14-2.89,4.32-5.92-5.61.4-6.77,3.13-8.66,5.72-.76.61-1.44,1.03-2.11,1.48l-1.35,1.94c-.16.29-.6.72-.97,1.1l-1.14,1.17c-1.68,1.61-3.49,3.14-5.33,4.74-.74,1.08-1.52,2.18-2.31,3.28Z"/>
      <path class="cls-1" d="m688.55,766.59l.12.26c0-.13-.06-.2-.12-.26Z"/>
      <path class="cls-1" d="m689.19,767.92l-.52-1.06c.06.72-.8,2.33.52,1.06Z"/>
      <path class="cls-1" d="m484.71,939.01c-.3-.59-.4-1.52-.28-2.64-.33,1.1-.68,2.18-1.03,3.25.34-.2.85-.4,1.31-.61Z"/>
      <path class="cls-1" d="m484.09,948.95c-1.81,1.57-3.7,3.02-5.54,4.55l-1.13,3.01c1.85-2.16,4.25-4.35,6.68-7.56Z"/>
      <path class="cls-1" d="m531.16,878.44c9.77-10.79.45,5.44,5.83,1.33,2.49-3.24,2.05-5.66,3.36-7.9-3.4,4.77-4.29,3.37-5.24,1.93-.96-1.45-1.97-2.92-5.63,1.58-1.37-3.63,3.02-8.66,6.42-10.85,5.54-.9-.86,4.54.84,7.57,2.83-3.77,1.81-3.59,1.79-6.34,5.62-4.82,7.27-13.96,13.72-14.07,3.04-4.47,1.59-5.31,2.31-8.8-2.3-2.87-6.74,4.65-10.19,4.16.5-.1,1.49-.27,1.72.24l-3.66,2.88c3.88-2.34,2.28,2.9.91,4.82-1.09,1.3-3.26,3.89-3.68,2.86l1.16-2.41c-3.08,1.64-3.01,7.13-6.83,8.3-.72-.43-.1-1.64-.33-2.14-.86,4.51-3.54,7.14-6.28,12.45l-.28-4.89c-.29,6.08-8.42,12.66-14.97,16.05.99-.11,2.3-.79,2.18.3-2.4,3.54-6.4,3.87-6.31,1.18-.21,1.24-1.13,2.41-2.4,3.57-1.28,1.14-2.92,2.26-4.57,3.43-3.3,2.34-6.67,4.77-7.42,8.04-2.22,10.11-4.81,20.18-7.84,30.3.48-.95,1.07-1.87,1.81-2.65,3.79,1.02,4.57-.09,3.18,4.85,2.15-3.87-.66-4.88,3.99-8.8-.41,1.38-.18,2.85.77,3.58.95.73,2.62.68,5-1.08,1.16-1.49,2.21-2.99,3.15-4.52.93-1.54,1.76-3.1,2.52-4.66,1.54-3.1,2.72-6.33,3.86-9.5,1.14-3.18,2.15-6.43,3.33-9.61,1.16-3.22,2.45-6.41,4.09-9.59,1.03.7,3.33-.93,5.9-3.15,2.55-2.25,5.35-5.08,7.38-6.74.48,3.27-1.74,6.54-4.23,9.77,1.91-1.67,5.05-4.7,7.4-6.94l-2.76-4.55Z"/>
      <path class="cls-1" d="m512.47,908.01c.42-.09.78-.25,1.14-.43-.29,0-.64.1-1.14.43Z"/>
      <path class="cls-1" d="m525.59,890.73c.03.1.09.14.15.22.26-.34.52-.68.78-1.03-.32.29-.69.61-.93.8Z"/>
      <path class="cls-1" d="m490.8,941.29c-.27,1.1-.67,1.65-.95,2.75.29-.52.72-1.09,1.11-1.66.3-.65.33-1.09-.16-1.09Z"/>
      <path class="cls-1" d="m485.85,939.68l-.24-1.09c-.36.14-.59.28-.9.42.25.49.6.79,1.14.67Z"/>
      <path class="cls-1" d="m585.78,851.71l.55-1.44c-.54.68-.62,1.1-.55,1.44Z"/>
      <path class="cls-1" d="m545.42,869.56c-3.32,3.89,2.25,2.96-2.74,8.22l1.63-1.38c-2.44,4.87-9.35,10.89-13.61,15.32-.53-1.51-3.89,1.36-4.97-.76-1.3,1.65-2.61,3.28-3.58,4.91-.98,1.61-1.63,3.2-1.61,4.78-2.39,1.24-3.86,5.41-6.94,6.93,1.95.06-.33,6.6,4.44-.09-.35.58.16.53-.18,1.11,5.13-2.11,4.39-5.96,7.6-9.05,2.87-.89-1.66,4.59.54,3.23,1.6-2.38,5.02-5.18,7.57-7.79,2.54-2.64,4.2-5.09,2.27-6.74,2.61-3.15,3.79-2.79,5.31-3.01.33-4.19,4.88-8.11,8.73-11.64,3.85-3.52,6.97-6.62,4.4-8.94-1.4,1.94-4.12,4.65-5.42,8.19l-3.46-3.27Z"/>
      <path class="cls-1" d="m497.36,935.69c.27-.17.58-.45.82-.57-.25.16-.55.37-.82.57Z"/>
      <path class="cls-1" d="m434.52,953.43l-.38-4.9c.58-.37,1.14-.73,1.67-1.07.54-.35,1.05-.69,1.55-1.01,1-.64,1.94-1.21,2.84-1.73,1.8-1.02,3.4-1.95,4.99-2.8,3.19-1.67,6.25-3.31,10.32-6.03.96.1.19,1.09-.21,1.6,2.74-2.15,6.41-4.42,9.71-6.9.83-.61,1.64-1.22,2.41-1.83.76-.63,1.49-1.26,2.15-1.88,1.33-1.24,2.43-2.46,3.14-3.63,1.78-1.33,7.33-3.78,6.38-1.38.63-.98,1.37-2.05,2.44-2.74,1.27,1.07-1.92,2.14-1.17,3.21.86-.52,1.36-.52,1.23-1.07-.47,2.16,4.82,3.25-1.56,8.04-4.74-1.14,4.1-3.72.1-5.91-2.09,1.57-.86,2.67-.73,3.21-2.71,1.97-3.27,1.08-3.71.2-.24,1.8-4.68,2.81-4.93,5.45-5.07,3.99-1.54-2.75-4.93-.3l.45,4.86c-2.05,1.15-4.16,2.17-6.23,3.25-1.89,1.73-2.53,2.88-2.54,3.82-.01.95.61,1.67,1.21,2.44,1.2,1.54,2.33,3.26-2.05,7.45.16-2.68-5.81-3.41-10.86-1.49,2.72-1.75,6.36-7.11,10.5-8.3-3.35.15-1.71-1,.19-2.39,1.9-1.38,4.01-3.11,1.71-3.84-.69,1.56-2.02,3.02-3.64,4.22-1.62,1.2-3.5,2.23-5.35,2.73l.84-.95c-3.58,1.6-3.91,7.01-9.52,8.16-2.29,1.44-2.42.14-2.48-.96-1.69,1.62-3.11,3.28-3.55,2.45Zm4.71-3.52l3.33-1.38c-1.09-.19-2.24.48-3.33,1.38Z"/>
      <path class="cls-1" d="m80.51,714.09c-.29-.29-.64-.6-.9-.87.14.3.5.59.9.87Z"/>
      <path class="cls-1" d="m338.35,934.74l-1.03-1.94c.32.8.68,1.41,1.03,1.94Z"/>
      <path class="cls-1" d="m299.45,902.57l-2.71-1.84c.81.93,1.72,1.44,2.71,1.84Z"/>
      <path class="cls-1" d="m104.3,727.44l.08.08c.2.03.37.02.57.06l-.65-.14Z"/>
      <path class="cls-1" d="m238.8,825.03c-.14-.59-.35-1.2-.76-1.89-.2.38.11,1.05.76,1.89Z"/>
      <path class="cls-1" d="m299.95,902.91c-.02-.08-.04-.13-.05-.2-.14-.04-.3-.09-.45-.14l.5.34Z"/>
      <path class="cls-1" d="m337.82,959.33c.32.34.6.66.98,1.01-.36-.53-.67-.81-.98-1.01Z"/>
      <path class="cls-1" d="m347.13,951.07c.32.4.65.77.98,1.02l-.98-1.02Z"/>
      <path class="cls-1" d="m398.29,1029.85c1.71-.65,3.4-1.31,5.08-1.99-2.44.76-3.94,1.38-5.08,1.99Z"/>
      <path class="cls-1" d="m348.13,959.26c.25.06.49.13.72.15-.3-.3-.61-.36-.72-.15Z"/>
      <path class="cls-1" d="m69.05,693.7c.07.03.14.06.17.08l.3-.4-.47.32Z"/>
      <path class="cls-1" d="m59.51,695.66c-.85-.29-1.72-.62-2.58-.94.89.49,1.82.83,2.58.94Z"/>
      <path class="cls-1" d="m208.91,792.4c-.28-.97-1.37-2.68-.24-2.72-1.77-.2-2.96,1.58.24,2.72Z"/>
      <path class="cls-1" d="m94.94,677.39c-.71.27-1.47.36-2.22.44,1.32,0,2.46.04,2.22-.44Z"/>
      <path class="cls-1" d="m92.72,677.83c-.65,0-1.34-.01-1.95.04.66.04,1.32.03,1.95-.04Z"/>
      <path class="cls-1" d="m246.99,777.27c-.02.36.09.75.38,1.09.26-.53.06-.85-.38-1.09Z"/>
      <path class="cls-1" d="m55.28,693.1c-.9.67-12.42-2.83-3.82,2.21-1.79,2.61-6.33-1.65-9.06-2.17,1.38,1.54-1.78,1.36-1.77,2.62,1.35.26,3.15.18,4.98,1.38.22,1.74-3.14,1.08-5.19-.57,2.07,2.93-4.73.38-1.31,3.56,9.02,3.43,15.58,5.5,23.66,4.59-5.17-1.89-11.06-3.86-14.46-7.05l2.93-1.55c3.4,4.46,7.02,4.31,11.31,6.86l-9.27-6.47c-3.63-4.43-.26-3.27,3.65-1.8-.89-.5-1.63-1.07-1.64-1.62Z"/>
      <path class="cls-1" d="m73.06,675.44l-.13-.16c-.19,0-.4-.03-.55.02l.68.14Z"/>
      <path class="cls-1" d="m411.48,967.96l.6-1.29c-.39.62-.57,1.02-.6,1.29Z"/>
      <path class="cls-1" d="m72.91,690.25h0c.08,0,.1.01,0,0Z"/>
      <path class="cls-1" d="m405.22,965.61c.05-.05.09-.11.17-.19-.07.05-.12.14-.17.19Z"/>
      <path class="cls-1" d="m361.05,1015.67c-.07.19-.15.32-.18.62.42.76.36.21.18-.62Z"/>
      <path class="cls-1" d="m405.05,965.87c.06-.08.11-.17.17-.25-.06.09-.13.16-.17.25Z"/>
      <path class="cls-1" d="m345.33,879.64s-.15.59-.16,1.34c.34.04.44-.32.16-1.34Z"/>
      <path class="cls-1" d="m355.72,901.51c0,.18-.03.3,0,.53v-.53Z"/>
      <path class="cls-1" d="m205.8,805.36c.84.7,1.53,1.15,2.15,1.48-.59-.54-1.28-1.06-2.15-1.48Z"/>
      <path class="cls-1" d="m405.39,965.42c.22-.21.46-.4.77-.6-.33.21-.57.4-.77.6Z"/>
      <path class="cls-1" d="m312.14,860.18c.24.12.46.24.69.35-.05-.14-.13-.27-.17-.41l-.52.06Z"/>
      <path class="cls-1" d="m305.56,849.78c.51.1.87.03,1.24.01-1.88-1.23-3.93-3.53-5.86-5.36-1.95-1.81-3.83-3.1-5.2-2.45.53.51,1.83,2.4,2.69,4.23.83,1.85,1.27,3.59.21,3.69,2.55,1.73,4.03,6.38,5.46,7.25-2.13-4.7,1.45-2.03,4.43-.2,1.4,2.81-2.12,1.11-.79,3.41l4.76,5.12-3.65-4.9,3.3-.41c-.22-.11-.37-.18-.61-.3-1.9-1.78-2.75-2.83-3.03-3.56-.27-.74.02-1.15.29-1.56.55-.82,1.02-1.63-3.24-4.97Z"/>
      <path class="cls-1" d="m306.8,849.79c.57.37,1.11.65,1.63.78-.7-.7-1.16-.79-1.63-.78Z"/>
      <path class="cls-1" d="m280.14,816.05c-.46-.29-.98-.59-1.67-.93.33.16,1.02.61,1.67.93Z"/>
      <path class="cls-1" d="m472.91,958.97c-.3-.29-1.91.03-3.29.64-1.39.58-2.55,1.44-1.94,2.32,1.6-.75,3.22-1.51,4.82-2.32l.4-.64Z"/>
      <path class="cls-1" d="m181.48,754.85c.52.43,1.06.82,1.64,1.17.18,0,.36-.03.51-.06-.17-.49-1.48-.9-2.14-1.11Z"/>
      <path class="cls-1" d="m296.65,849.22c.98.59,1.55.72,1.98.69-.6-.41-1.25-.71-1.98-.69Z"/>
      <path class="cls-1" d="m183.97,750.4c-.37-1-.92-2.45-.63-3.23-1.47-.97-3.11-.69-4.83-1.33,1.86.84,3.72,2.26,5.46,4.56Z"/>
      <path class="cls-1" d="m178.37,745.79c.05.01.1.03.14.05-.04-.03-.09-.03-.14-.05Z"/>
      <path class="cls-1" d="m476.35,957.76c.33-.42.69-.83,1.06-1.25l-.36.93c1.26-.58,2.48-1.21,3.73-1.8.33-.4.69-.81,1.18-1.25-.17.21-.21.52-.18.78.41-.19.82-.37,1.22-.55.71-1.82,2.44-4.28,4.12-6.58,1.7-2.27,3.31-4.43,3.83-5.66.93-1.31,2.05-2.65,3.18-3.81,1.12-1.18,2.25-2.21,3.22-2.88-1.72,1.33-3.71,3.49-2.27,3.91,4.23-1.78,8.32-.25,12.21-7.64l-3.44,2.93c1.59-3.4,3.17-6.74,4.66-10.15,3.96-.82-2.25,5.1-2.26,7.29,2.29-3.4,5.61-5.06,8.46-6.5,2.82-1.47,5.09-2.81,5.07-5.55,2.02,1.47,5.41,3.91,9.1.16-4.66.52,1.09-3.44-3.21-3.53.38-2.23,4.85-3.32,3.8-4.86l.34,1.07c4.56-1.66,6.32-4.11,7.08-6.66.76-2.54.56-5.13,1.19-7.18,6.8-8.17,11.27-10.62,16.96-17.17,1.42.88,6.31,2.23,8.59-.45-.49-2.69,4.08-9.2,2.52-11.69-5.09,3.78-1.7,5.36-3.75,8.56-4.3.24-2.35-1.79-6.54.08,3.2-1.68,9.33-12.36,13.9-13.28l-.6,1.24c5.27-3.29,11.28.51,14.75-9.82l1.86-4.73c.06.36.29.6.4.86,5.37-5.7,6.41-1.97,10.15-10.18-.29.63.22.52-.08,1.16,4.44-2.69,5.27-8.56,7.21-11.82,3.28-.18,1.41,1.93,1.78,4.12,6.37-5.99,9.45-15.73,10.84-21.71l4.75-3.32c-1.47,3.15-2.26,7.86-.51,8.03,1.67-2.64.44-2.92,3.65-5.91.65,1.56.5,3.86.59,6.65,7.84-5.11-2.71-5.05,4.94-6.74,1.9-2.1,1.33-4.8.17-6.24l5.2-2.26c-1.36-1.97,2.76-6.81,5.3-10.12-.4-1.05-4.09.83-4.48,2.6-1.15-1.45,1.19-5.33,3.13-7.42,2.15,1.24,5.18-2.31,7.91-5.4,2.76-3.07,5.22-5.65,6.17-2.45,3.78-5.22,8.73-11.16,13.36-16.68,4.63-5.52,8.92-10.63,11.29-14.31,2.96-.98,7.14-4.85,6.23-.84,3.78-3.52,5.79-7.11,8-10.53,2.17-3.45,4.55-6.72,8.89-9.61,1.03-.11-3.5,3.1-2.16,4.09,1.88-2.97,4.59-4.55,7.67-6.36,1.53-.92,3.2-1.85,4.93-3.04,1.74-1.18,3.5-2.66,5.38-4.5-1.34,1.15-1.12,2.25-.99,2.8-.66-.53,2.34-3.94,4-6.23,1.46-.6-1.25,1.71-.19,1.67,8.72-5.2,15.31-11.17,22.05-17.21,6.76-5.96,13.67-12.01,22.76-16.72-2.62,1.31-3.97,3.01-4.62,4.48-.65,1.47-.57,2.73-.27,3.32l4.94-2.69c.58-1.21,1.81-2.31,3.22-3.45,1.41-1.14,3-2.33,4.35-3.63.67.35,2.51.18,1.26,1.64,5.71-1.02,9.02-4.09,12.66-7.54,1.84-1.67,3.76-3.42,6.08-4.99,2.33-1.53,5.08-2.8,8.48-3.64l-6.7,5.99-6.41,6.16,4.62.55c-1.83,1.82-3.64,3.62-5.38,5.52,1.15-.02,2.1-.38,2.93-.84.84-.45,1.53-1.03,2.14-1.55,1.2-1.04,2.02-1.83,2.71-.79-.56.98-2.63,1.59-2.18,2.84,4.1-.62,3.67-2.51,6.36-4.01-2.85,3.76-7.78,7.11-12.82,10.27-2.53,1.54-5.06,3.09-7.41,4.52-2.35,1.41-4.46,2.84-6.16,4.05-.97.95.42-1.58.4-2.14-2.94,1.69-5.47,1.37-8.8,4.23-1.27,3.13,2.54.35,4.48-.49.63,1.74-.34,2.16-2.23,3.54-1.71-1.96-11.46,5.78-15.59,4.97-5.1,3.76-3.75,4.85-2.57,5.65,1.2.83,2.29,1.44-3.04,4.39l-4.58-.18c-2.31,2.9-4.96,6.17-7.91,9.19-2.9,3.1-6.1,5.95-9.39,8.27l1.26-1.13c.13-1.64-1.78-1.04-2.81-1-2.76,1.44-4.65,3.73-6.41,5.68-1.78,1.93-3.41,3.54-5.72,3.71-1.68,3.4-4.28,7.47-7.05,11.49-2.75,4.06-5.67,8.07-7.99,11.39-2.05-.58-.72-2.94,1.24-5.66,1.97-2.69,4.59-5.71,5.03-7.69l-5.32,4.97c3.27-3.09,3.59-5.36,4.2-8.72-2.62,1.89-3.73,3.85-4.69,5.87-.96,2.03-1.72,4.2-3.59,6.63-.35-1.05-1.36-.93-3.41.99l1.13,2.31c-.18-.11-.52-.02-1.25.47-2.22,2.88-4.44,5.75-6.6,8.67,2.36-.88,3.93.53,5.92-1.4-1.71-.32-.23-2.17,1.77-4.09-.61,2.84,2.87-.94,3.75.05-2,1.93-4.16,4.13-6.07,6.26-1.9,2.14-3.56,4.18-4.61,5.7l-2.44-.72c-4.12,3.41-7.09,8.36-10.05,10.54l-.09-1.65c-4.9,4.19-8.12,9.83-13.59,12.57-1.96,5.99-5.18,12.8-6.28,18.1.52,3.79-13.89,10.26-15.08,17.89-.52.13,1.28-4.81,1.91-7.21-3.19,2.98-2.72,7.94-5.92,6.97,7.16-6.68-2.19-1.21.03-5.09-2.95,3.48-5.68,7.49-6.32,9.89,4.82-5.6,1.48,4.75,5.37-1.78-1.85,6.06-6.25,12.73-11.54,17.34-.95-.92-1.98-.67-4.1.94l.07,2.84c-2.4,2.24,2.43-6.26-2.4-1.74-1.97,7.28-14.84,14.14-12.34,20.38-5.24,2.28,4.77-8.99-2.62-5.09,1.38-4.84,7.4-7.88,6.1-11-2.27,3.9-2.99-.47-4.9,1.66l-1.88,4.94.81-.74c-3.37,8.12-13.24,17.04-20.2,25.16-3.97,8.68-5.16,16.3-13.19,23.89,1.04-3.55-7.68,5.24-5.09-1.97-4.71,2.45-7,7.27-6.16,8.3,3.52-2.81,1.42-.8,4.58-2.97-.35,1.46-1.59,3.22-3.06,4.72-1.49,1.49-3.19,2.72-4.43,3.18.89-.69.37-.62.21-1.15-4.64,2.91-.75,2.94-3.16,6.08-1.22-.4-2.9.95-4.7,2.6-1.8,1.65-3.79,3.55-5.49,4.31-.57,1.95-1.16,3.9-1.78,5.83.78-3.46-4.28,2.69-6.15,1.75-.93,1.78-1.61,3.65-2.63,5.5-1.02,1.85-2.4,3.68-4.83,5.24,1.16-2.33-5.08,2.04-6.46.43-4.5,2.18-6.77,5.83-9.25,9.25-1.23,1.72-2.45,3.43-3.99,4.86-1.55,1.42-3.38,2.61-5.73,3.33-.04-.58.7-2.81-1.84-1.69-1.44,1.71-4.73,3.59-6.52,5.06l.03-.09s-.04.07-.07.12c-.87.73-1.34,1.33-1.08,1.78-1.12,1.94-1.83,3.64-2.99,5.57-1.14,1.95-2.79,4.07-5.78,6.87,1.75,1.81,7.11-2.48,9.12-4.74l.83-3.37c4.06,1.84,5.6-4.46,7.8-4.42-.77,3.1-4.14,6.39-8.17,9.59-1.01.8-2.03,1.62-3.06,2.44-1.05.79-2.1,1.59-3.11,2.39-2.03,1.6-3.89,3.25-5.42,4.83,3.11.25,7.09-1.05,11.39-3.01,4.21-2.05,8.69-4.82,12.58-7.73l-4.37,1.15,4.19-2.85-5.5.55c2.11-1.13,3.93-2.41,5.68-3.69,1.74-1.29,3.36-2.62,5.16-3.78-4.09,2.93-7.58,1.26-4.97.08,5.91-1.25,3.88-4.57,7.33-6.95-2.01,1.23-4.54,2.94-3.74.67,4.21-1.24,6.48-2.62,8.7-3.9,2.19-1.31,4.3-2.56,8.26-3.63-3.23-2.6,7.1-6.19,5.84-9.49-.95.66-1.94,1.28-2.9,1.92,1.41-2.16,2.74-4.37,4.08-6.55,7.32-1.79-2.44,6.45,6.99,1.61,7.48-5.91,4.46-8.97,9.74-14.14-.2,3.4-3.19,8.92-7.84,12.8l3.53-1.52c-.27,1.16-2.05,3.06-4.16,4.99-2.15,1.91-4.65,3.85-6.31,5.14,1.79-3.29,1.02-2.93-.65-1.71-1.67,1.22-4.34,3.25-6.24,3.4,1,2.19,4.27-.9,1.31,3.87,3.84-3.15,4.32-3.71,9.7-7.08-5.53,3.97-6.73,7.4-7.77,10.72-1.07,3.28-2.11,6.36-7.56,9.26,3.87-4.2-3.58-1.51-4.8-2.05-.97.9-2.44,2.26-3.87,3.58-1.45,1.32-2.83,2.64-3.57,3.51l3.58,1.6c-2.52,2.65-5.29,2.9-8.08,3.33-1.39.23-2.77.52-4.1,1.22-1.33.71-2.64,1.82-3.94,3.65.08,1.14,1.73.31,3.21-.69,1.46-1.01,2.76-2.16,2.24-1.59-8.39,8.01-14.86,5.59-24.81,8.32,0,1.16,1.15,2.96-1.11,6.26,0-2.32-2.77-1.95-.02-5.18-3.32.93-6.18,4.05-8.49,6.15,6.82-2.25-1.21,3.96-1.92,5.59-3.52,1.3.16-2.27,1.88-3.86-2.88.9-7.36-.31-7.55,3.17-.51-.94.75-3.1,2.68-5.38,1.94-2.26,4.45-4.78,6.71-6.25l-3.37,1.37c1.7-2.12,2.27-2.03,5.57-3.45-3.86.22-4.41-1.59-4.41-3.29.55.06.01.56.54.63,2.77-.86,4.37-2.46,3.25-3.12.82-3.74-4.25.37-6.64-.06-1.19.84-2.37,1.67-3.53,2.49-1.44,2.52-3.01,4.9-4.57,7.38l-2.38,3.69-2.49,3.63c-.68.45-1.34.84-1.97,1.16-.86.43-1.78.84-2.66,1.17-1.86.7-3.58,1.1-5.22,1.44-3.29.65-6.28.87-9.81,1.51-.49,1.04-1.01,2.07-1.54,3.11-4.14,1.23-8.17,2.28-10.44,2.38-1.14.07-1.84-.18-1.94-.69-.09-.53.42-1.28,1.67-2.52.27.77,1.31.22,3.02-.22.21-.42.59-.8,1.08-1.16.15-.2.24-.38.36-.57-2.06.88-3.94,1.73-5.61,2.41-1.68.64-3.13,1.19-4.34,1.65-2.43.93-3.89,1.49-4.14,1.61,7.35-3.9,7.38-5.09,6.25-6.04-1.18-.94-3.56-1.62-2.27-4.26l-6.46,2.6-6.62,2.51c3.72-.29,3.68.28,2.23,1.11-1.44.83-4.25,1.93-5.81,2.64.02-1.26-2.63-.55-5.97.57-1.68.59-3.5,1.22-5.2,1.82-.85.29-1.68.56-2.43.79-.37.09-.76.25-1.05.26-.26-.04-.5-.09-.72-.15l.56-.56c-.44-.24-.94-.47-1.58-.69-1.18-4.94-3.42-10.82-5.4-14.98-.25.54-1.69.03-3.5-.94-1.77-.96-4.05-2.41-5.66-3.33,1.56,5.69,1.54,7.26,1.09,7.61-.46.37-1.4-.48-1.82.65-.29-1.28-1.01-3.37-1.33-3.35-1.11-1.01.06,2.98-.43,4.04,4.09,9.18,7.75,18.96,10.98,22.18,1.36-.63,2.53-1.3,3.53-2.04-.64-.53-1.43-.54-2.33-.32-.91-1.68-2.37-2.29-2.8-5.82,1.24,1.1,2.29,2.75,3.28,4.88.96-.17,1.93-.28,2.92-.36,1.17-.34,2.38-.67,3.62-.98,2.48-.61,5.16-1.26,8.05-1.97.72.52,1.47,1.04,2.22,1.54l9.53-3.63c-4.12,2.19-2.29,3.95-12.52,7.01.29.93,2.85.15,6.06-.96,3.22-1.12,7.01-2.52,10.03-3,1.22-1.27,2.39-2.54,3.53-3.79-.7.98,2.16.67,4.08.69,1.9.03,2.89.38-1.96,2.77l-7.98,3.31-8.19,3.26c1.29.31,2.61.61,3.97.91l-14.04,4.13,3.85-2.43c-9.06,3.07-11.71,3.05-12.83,2.4-.57-.32-.8-.78-1.33-1.08-.46-.37-1.18-.61-2.78-.45-.61-2.07-1.73-4.78-3.8-8.79-4.62-3.32-7.52-11.28-11.94-26.08,2.1,4.87,2.64,4.63,3.03,3.52.38-1.12.62-3.07,2.02-1.99-1.21-5.49-2.62-8.47-4.15-10.78-1.52-2.29-3.13-3.86-4.63-6.17.58-3.56,1.22-6,4.11,2.91,1.73-.58.59-3.31-.62-6.3-1.17-3.03-2.64-6.16-1.08-7.37-.44-.94-.86-1.85-1.27-2.73-.23-.45-.42-.78-.63-1.15-.42-.71-.85-1.34-1.28-1.91-.87-1.15-1.78-2.05-2.69-2.79-1.85-1.48-3.66-2.37-5.52-3.32-1.84-.96-3.58-2.03-5.07-3.96-.75-.97-1.43-2.15-2.05-3.64-.64-1.48-1.09-3.32-1.69-5.49l1.65-.14c-3.56-4.41-5.68-8.23-7.74-11.99-2.2-3.69-4.27-7.36-7.48-11.44-.38-2.99-.88-5.94-1.33-8.94,1.51,1.19,6.72,3.76,6.97.81-.25,1.38-.21,2.58-.02,3.69.16,1.13.49,2.16.87,3.17.76,2.02,1.73,3.95,1.97,6.33,1.1-.15.8-2.03.93-3.02,1.35,2.26.54,4.27,2.93,6.86.61-.54-.55-4.26,1.36-2.07.17,1.73.18,3.53.26,5.28,4.04,4.9,6.51-.11,9.18,6.92-2.57-.21-6.65-1.16-8.48-3.38,1.22,3.14-3.29-3.25-2.92.04,2.55,1.31,3.57,2.8,4.55,4.52.49.86.97,1.78,1.64,2.78.64,1.01,1.41,2.11,2.57,3.31-.73-.47-1.37-.36-2.24-1.67l2.94,8.84c.32-1.43,1.63.05,3.13,1.65.38.4.76.81,1.15,1.18.36.38.73.72,1.08.98.71.52,1.37.72,1.91.24-.71-2.4-1.42-3.93-1.97-5.11-.56-1.18-1.02-1.98-1.49-2.82-.95-1.69-1.86-3.57-3.79-8.99,2.06,2.55,6.36,5.01,9.58,5.63-.05.14-.06.33.06.67,3.24.37,3.09-1.56,7.37-3.65-5.46-3.28-4.47-7.82-9.37-12.41-2.88.24-1.1,4.77.95,7.22-1.34-1.38-2.8-2.69-4.19-4.03l1.58.38-3.05-6.35c-1.04-2.11-1.97-4.27-3.13-6.33,1.55,2.19,3.23,2.26,4.92,2.91-.4-.83-.67-1.72-.88-2.67-.23-.94-.42-1.92-.6-2.94-1.93,1.62-3.57,2.3-4.46.76-2.13-4.02-3.38-7.41-4.03-10.36-.71-2.91-.87-5.36-.62-7.57-.25-.26-.52-.56-.75-.8-1.28,2.7-7.43-2.87-11.16-3.67,2.24-1.41-1.48-4.71-1.94-7.63-3.27.65-5.53,4.64-5.7,8.62,5.83,3.29,4.3,1.12,9.14,1.26l7.68,6.73-3.25-.5c.92,2.34,2.74,4.02,3.9,5.36,1.14,1.34,1.72,2.27.3,2.95-3.06-1.11-4.41-5.31-7.58-6.27l.83,3.3c-5.73-2.98.85-4.06-4.77-8.56-.8,3.62-.48-.43-3.63-1.8-.17,2.98,7.35,9.55,2.44,10.37-1.81-.91-2.35-4.1-3.25-7.27-.91-3.15-2.36-6.18-5.55-6.76l.55-.12c-1.8-2.97-3.58-4.56-5.26-5.54-1.69-.97-3.34-1.29-4.77-1.81-.66-3.2-4.79-5.11-6.87-7.49l1.07-.77c-1.05-1.07-2.18-2.09-3.29-3.11,3.28.08,3.29,4.11,5.94,6.91l1.62-1.9c.45,5.31,5.83,4.87,9.61,6.4-4.75-2.74-8.4-11.66-12.84-9.58.01-1.35-.02-2.67-.07-3.99l-1.66-.57c-.1-2.96,3.74-3.05,7.06.15.01,1.01.02,1.52-.53,1.65,2.16.97,4.86,1.32,7.6,5.71l-2.72-1.35c.95,1.28,1.94,2.49,2.94,3.59,1.01,1.09,2,2.08,2.93,2.96,1.9,1.73,3.75,2.84,5.37,3.02-1.16-2.02-2.35-4.01-3.58-5.96-1.26-1.93-2.61-3.78-3.95-5.62-2.71-3.65-5.35-7.26-8.29-10.52-5.93,1.58-10.25,1.3-14.98,3.68-1.1-.93-2.27-1.97-3.43-3.08-1.19-1.09-2.41-2.23-3.53-3.42-2.25-2.38-4.16-4.93-5.14-7.41l1.05-.35c-1.22-2.18-3.02-3.58-4.74-4.53-.82-2.79,3.2-.61,2.48-2.41l-7-4.74c2.01-1.28,6.89,3.74,9.32,6.01-.58-.32-1.74-.95-1.68-.45.49.86,1.37,1.65,2.36,2.42.97.79,2.07,1.56,3.07,2.32,2,1.53,3.6,3.08,2.91,4.83,1.69.99-4.39-1.14-.29,3.65,1.91,3.94,5.01,3.03,6.08,2.7.52-.4-.19-1.98-.75-3.34-.57-1.35-.92-2.51.46-2.17-2.37-2.35-4.51-2.19-6.43-6.19,2.32,2.32,7.34,3.86,6.99,6.52,6.12,3.28,10.2-1.4,8.44-4.04-.91,1.76-9.89-7.36-5.95.72-2.24-.6-4.54-2.2-6.85-3.99-2.33-1.77-4.58-3.79-6.94-5.03l.52-.18-4.81-4.06c1.11.15,2.85,1.1,3.85.24l-8.57-3.76c5.08,1.83-.9-3.36-1.83-5.61-2.09.79-5.55-.5-4.03,2.58,1.57,3.58,2.31.68,4.76,2.91-1.83-.38-3.73-.68-5.59-1.01l-.07-.5-3.84-.08c-4.42-4.55,6.21-2.42-1.41-6.26l-1.7,3.31c-3.13-3.51-6.42-7.88-9.55-11.94-3.1-4.09-6.36-7.56-9.42-9.14,2.72-.33,5.48-2.24,4.79-5.38,1.81,2.38,6.38,6.07,9.65,8.7.16,1.01-6.62-.43-9.58-3.9-1.1,2.93,1.68,4.06,4.18,5.2,2.52,1.13,4.9,2.13,3.1,4.49,7.07,9.21,10.21,1.65,14.85,10.93,1.94-1.79,2.9,1.01,4.9-.28.47-2.54-1.93-4.81-4.87-7.13-1.48-1.14-3.05-2.36-4.57-3.53-1.5-1.18-2.86-2.43-3.79-3.78.59.28,1.79.84,2.31.64-2.86-3.66-4.66-4.51-7.68-5.94l.09.5c-2.9-.94-3.26-1.83-3.06-2.94.2-1.1.92-2.36.04-3.87-1.23-.54-4.22-4.12-4.92-2.17l-2.92-5.82-1.67,2.44c-2.7-2.02-2.06-3.97-5.56-4.52l-1.78,1.95c1.95,2.01,3.96,3.94,5.85,6-3.76-2.08-2.52,1.17-6.43-1.34,5.84,1.04-1.9-3.43-.76-5.65l-3.58-1h1.12c-1.24-2.74-3.06-1.27-5.31-3.46,2,3.44,2.65,6.42,7.47,7.91-3.6-1-9.78-4.01-11.2-4.91-3.51-1.31-4.25-4.42-6.73-6.71,5.75,3.1,3.06-7.73,12.2,1.72-.5.25-1.27-.48-1.4-.98-.67,3.66,6.19,4.69,9.2,5.47.66-1.96,3.26-.46.04-4.47.25,1-1.25,1.17-3.14.57-.95-.3-1.99-.8-2.97-1.48-1-.66-1.93-1.52-2.63-2.56l3.22-2.75-5.24-4.66.64.25c-.47-3.74-6.21-4.18-9.19-8.27-1.85-.44-5.29-2.88-8.01-4.34-2.72-1.47-4.77-1.87-3.67,1.53-2.04-4.6-7.07-4.09-11.23-6.33l3.83,4.76c-7.37-1.53-4.62-2-11.85-1.23.18-1.25-.32-2.7,1.28-3.06-3.81-2.67-8.27-6.14-12.66-8.89-4.41-2.72-8.66-4.8-11.86-4.84-5.45-3.66-3.78-8.32-12.65-11.58-1.97-.52-.71,4.08-5.34-.09-.2-.48,6.66.41.63-2.83-5.82.25-8.89-7.43-15.82-8.2-2.32-2.68-7.58-5.22-5.27-6.8,4.32,3.17,11.1,6.49,12.71,6.02-1.4.93,2.49,3.21-1.46,2.21,5.91,5.76,5.27,1.33,10.77,6.14.95-.61-1.74-4.29-3.53-4.31,1.73-2.98,13.08,5.89,9.71-.95-6.51-4.23-12.12.74-16.04-5.77,3.4-.47,6.07,3.24,10.87,1.88l-4.03-4.03-4.71.1.46-.32c-6.86-7.61-9.58-1.48-17.98-4.3,3.2,4.55-3.97,4.62-1.41,7.76-5.26-2.47-8.74-4.95-7.09-7.98,10.86,2.89,2.33-2.89,12.8-.91-.83-1.89,4.61-3.2-.46-6.5-7.14-1.2.35,3.49-6.11,1.16-.2-.46-.41-.94.05-1.26-3.59.03-2.85-2.35-7.1-2.47l1.11-.17c-3.04-4.1-5.6-.38-8.01-4.31.17,3.01-3.37.54-6.3.75,3.08,2.81,3.25,7.05,10.31,10.74,1.82-1.3,1.86-2.56,5.19-1.81l-4.64-2.33c1.14.26,2.13.22,3.22.37l3.83,3.36c-6.21-1.84-4.74,1.47-8.1,2-4.59-3.59-4.43-1.81-7.28-4.14,1.75-2.41-7.3-9.83-12.32-14.64.86.59,2.08,1.16,2.68,1.57,5.17.65-1.77-3.76-1.54-4.56l-3.82-.37c.68.14,1.82-.04.69-1.12-4.49-1.78-5.62.94-10.12-.79.44-1.61,5.19-1.92,2.96-4.06-.24-1.74-1.37-6.62-7.7-8.32-.69.35-2.31-.12-4.15-.76.28.04.61.14.77.09l-2.95-3.53c4.51-.81,5.88,4.54,10.39,3.76l1.51-2.2c2.51,1.31,6.45,2.09,8.66,1.7-3.61-2.41-4.75-2.22-9.28-3.99.18-1.8,3.77-1.31,4.29-1.24l-1.34,1c4.07,4.63,8.83,1.75,14.92,5.6.9.61.23.47-.22.8,6.34.49,9.7,6.27,16.27,6.04l-2.29.34c3.91.87,11.79,2.16,19.59,3.7l.56-.87c-.43-.95,2.03.47,3.15,1.58h-.01c3.93.76,7.67,1.56,10.69,2.32-.51-1.03-1.3-2.11-2.44-2.94-1.63.45-7.21-3.82-7.73-.96-1.99-3.02-7.66-3.49-9.21-5.55,2.89,3.64-3.88.82-5.27,1.8-.42-2.21-5.63-2.94-4.02-4.72-.45-.94,1.1,2.37,3.38,2.02,5,.26-6.3-5.64-.39-4.76-7.03-2.03-14.98-7.07-22.46-8.65l3.17,2.79c-2.71-1.86-9.78-5-9.77-6.26,2.27.9,4.77,2.22,7.73,3.28,1.38-2.27-6.6-3.48-6.14-5.07l-10-.34,3.42,1.97c-2.93.25-9.34-5.27-14.6-8.4,4.77-1.58,8.23,4.13,14.59,5.86,4.77.97-.94-4.43,3.38-3.13-.63-1.28-3.23-2.54-4.91-2.4l-1.24-1.39c5.02-1.07,12.53,3.71,19.08,3.98-.62.07-1.2.18-1.52.44,3.42,3.28,7.52,5.42,11.84,6.75-1.58-2.02-2.73-1.84-4.1-2.14.24-.79,4.1.88,5.93.84-3.19-2.8.24-2.07-1.81-3.78,2.75.6,4.57,1.81,7.29,3.7.9,1.91-2.05.82-2.52,2.41,3.44.78,2.93,4.93,8.17,5.67-5.45-3.77,3.22-2.26,5.75-2.12l-.92-.63c2.76-.67,4.36.14,4.77,2.38-2.74-.66-4.77-2.38-5.04-.31,1.61.78,3.19,1.59,5.25,2.07l-2.28.32,7.93,4c2.06-.8,5.31-1.74,7.63-3.32,1.1,2.39,4.31,2.79,6.37,3.29l-1.17.14c2.68,3.25,10.88,6.56,12.28,5.68.43.65-.73.86-2.43.94-1.71.1-3.96.08-5.71.26-3.49.37-4.95,1.48,3.95,5.88,6.48,3.86,6.5-1.73,11.07-.94,0,0-.46.3-.26.79,2.66,2.01,3.9.6,6.64,1.35-1.33-1.66-3.79-3.16-4.95-3.05,1.9-1.22,5.85,3.7,8.84,3.72-4.44.9,4.85,4.41,1.82,4.41,2.28,2.6,5.25,4.29,8.17,5.35,2.9,1.09,5.77,1.53,7.86,1.51,1.66,5.74,6.96,3.8,12.05,9.43-.87-.73-2.89-1.38-3.97-2.61-4.83-.26,5.58,5.31-1,3.62,1.35.44.81-1.04-.58-1.5-2.2-1.14-4.75-1.45-4.84-.18,1.27,1.67,2.52,3.37,3.75,5.09l-2.05-.65,5.77,7.52c.48-.28.13-1.26-.06-1.76,1.97,1.73,4.13,3.35,6.36,4.89,2.21,1.59,4.5,3.11,6.78,4.58,2.28,1.47,4.53,2.92,6.68,4.31,2.13,1.42,4.12,2.88,5.91,4.31,2.74-2.29,7.78.39,13.11,3.93,2.65,1.79,5.4,3.75,8.01,5.34,2.62,1.59,5.11,2.8,7.22,3.17-2.81.3-5.85,2.39-5.8,4.3-1.48-.81-5.9-.63-8.48-3.37.22-1.25-2.67-5.08.47-4.28-8.68-5.69-.75,3.29-4.75,3.49,4.7,3.23,9.05,4.98,12.99,6.5,3.94,1.51,7.56,2.61,10.91,4.27l-.38.75c1.75.76,3.51,1.5,5.23,2.32-1.55-1.66-1.69-3.16-.95-3.7.74-.54,2.32-.07,4.07,2.37l-.66-.31c1.43,3.44,7.96,6.44,11.7,10.07l4.14.67c3.69,3.72.97,7.02.49,10.03,1.44,1.42,2.89,2.52,4.34,3.42,1.43.92,2.84,1.65,4.27,2.26,2.85,1.23,5.7,2.06,8.52,3.35.67,3.08,8.8,12.2,2.7,9.13,3.13,2.06,6.24,1.09,9.18,1.24,2.91.17,5.79,1.36,8.01,7.99l-3.54-1.22c2.11,2.18,4.58,4.47,7.15,6.77,1.29,1.14,2.59,2.3,3.88,3.44,1.29,1.14,2.51,2.33,3.71,3.47,2.4,2.28,4.61,4.46,6.36,6.41,1.75,1.95,3.04,3.67,3.53,5.09-3.9.26-2.8,4.29-1.23,8.91,1.56,4.63,3.66,9.81,1.71,12.6.8-1.35,3.84,1.99,4.85,2.07-.01,1.24.37,2.98,2.45,3.63-1.74-4.54,7.27-1.17-.11-6.96,3.09.55,6.2,1.54,9.27,3.44,3.12,1.86,6,4.8,8.76,9.09l-2.27,1.34-3.82-7.11c-1.11,1.76-3.41-1.65-5.13-2.48,1.89,3.2,2.43,4.94,2.3,5.94-.11.99-.83,1.2-1.49,1.39-1.33.38-2.44.68,1.88,6.79,2.23.25,1.12-.14,3.86,2.73-1.1-1.48-2.79-.74-1.18,1.72l3.34,1.21c-.8,6.72-7.21-5.62-7.31-.22-2.46-1.81-5.3-4.6-7.73-6.5-2.4-1.92-4.55-2.84-5.37-1.14,1.14,2.02,2.19,3.31,3.39,4.14,1.18.84,2.41,1.28,3.64,1.73,2.46.91,4.95,1.92,7.03,6.38l-.65,1.65c2.61,2.39,4.87,1.63,7.05,2.5-.6.58-.66,1.64.3,3.65,2.96,1.6,5.13,3.15,7.26,4.66,2.07,1.55,4.16,3.05,7.1,4.54-2.39-2.84-3.79-5.02-4.78-6.85-1.02-1.81-1.56-3.31-2.1-4.84-.54-1.53-1.08-3.07-2.11-4.96-.51-.94-1.15-1.97-1.97-3.12-.81-1.15-1.81-2.43-3.14-3.8.55.35,1.41,1.1,2.34,2.08.94.98,2.03,2.15,3.16,3.23,2.26,2.16,4.69,3.99,6.42,3.33l-2.33,1.25c1.85,1.75,3.79,3.46,5.43,5.56,1.63,2.09,3.1,4.48,4.24,7.4l-3.14-2.58c2.8,3.14,3.6,6.61,4.54,9.72.89,3.15,1.86,5.97,5.28,7.88-.82-2.16-1.73-3.79-2.72-4.87,2.95,3.25,5.11,8.15,6.77,12.46,2.63,2.28,5.25,4.61,7.89,6.96-1.23.46,1.18,6.06-1.93,4.21.03.22.07.44.1.65l.06.31.03.15v.04c-.05.11-.07.21-.08.3,0,.24.15.56.29.77.3.45.74.73,1.24.89,1,.34,2.17.2,2.67.58-1.31,4.29-1.75-1.06-5.02.52.26,2.35,1.12,4.62,2.16,6.14,1,1.55,2.12,2.35,3.24,2.07.1-1.32.3-2.11.75-2.73-.53.95.08,2.12.32,2.91.42-.49.83-1,1.24-1.52-.01.11-.03.22-.05.31-.32,2.22-.88,3.4-1.93,3.77-.05.03-.1.05-.16.06,0,.06.02.12.04.18.05.18.13.3.23.39.12.05.16.25.46-.04.48-.39.97-.79,1.47-1.19.93-.72,1.61-1.05,1.79.21-.92.9-1.82,1.43-2.64,1.76-.41.17-.8.29-1.17.39l-.14.04c-.05.02-.04-.07-.06-.1l-.09-.27c-.06-.18-.11-.36-.16-.54-.31-1.02-.58-1.83-1.11-1.78.53.62.79,1.34.9,2.19.03.24.06.49.07.75,0,.13.01.27.02.4v.2s.09.05.09.05c.23.14.42.33.61.55.38.42.74.93,1.27,1.3.53.39,1.23.6,2.23.48.99-.13,2.32-.54,3.92-1.57,0,.88-1.68,3.15-.08,2.65,1.92-.98,2.18-2.01,2.17-3.13-.02-1.11-.24-2.33.27-3.53-2.34,1.93-3.45,1.17-3.96-1.05.32-.6.62-1.19.9-1.78-.12.82,1.07.51,1.33,1.16.26-1.1.51-2.2.73-3.29-.3,1.79-.08,3.2.58,3.89.65.71,1.69.66,2.51-.28-.91-.89-1.16-1.37-1.29-2.08-.12-.71-.12-1.64-.22-3.53.85-2.12,1.17-1.36,1.77-.71.28.33.6.64.94.59.33-.05.69-.47.91-1.54.07.52-.28,1.13-.46,1.66-.18.52-.2.94.69.99,1.39-.42.51-2.7.94-3.73.07,1.4.23,2.55.39,3.79.15,1.24.3,2.54-.03,4.35-1.51.81-1.85.91-2.15,1.12-.31.21-.56.51-2.15,1.72.93.45,1.96.86,3.08,1.23-3.04,1.58-2.14,4.01-2.36,5.16,1.6.12,2.75-.21,3.52-.75.76-.57,1.16-1.33,1.44-2.12.58-1.58.67-3.21,2.5-3.61.24-.6.18-.85-.08-.89-.23-.06-.61.06-.96.14-.71.18-1.25.27-.35-1.11,1.5-.43,1.69-1.01,1.82-1.74.12-.73.25-1.67,2.86-3.45l-.46,1.52c2.42.66,3.31-1.96,5.2-3.15.93-.89-.7-2.63-1.43-4.71-.74-2.1-.6-4.44,3.65-6.79-.08.87-.03,1.36.11,1.63.57,8.01.83,15.96.84,24.1,9.72-4.63,20.9-10.06,32.33-15.6,2.41,1.01.98,2.97-.87,4.83-1.83,1.89-4.16,3.54-3.32,4.19-1.83.74-3.64,1.51-5.48,2.21-.6-1.71,10.19-6.71,4.03-6.77-2.02,1.57-3.84,2.82-5.57,3.86-1.75,1.01-3.34,1.93-4.91,2.84-1.55.96-3.1,1.87-4.67,3.1-1.57,1.21-3.16,2.73-4.95,4.61,2.33,1.3,5.12-.38,8.2-2.35,1.55-.96,3.14-2.08,4.79-2.94,1.66-.87,3.4-1.46,5.19-1.55-2.47,1.09-4.22,2.59-5.85,4.21,2.75-1.25,5.65-2.46,8.56-3.89,1.47-.7,2.96-1.41,4.47-2.12,1.51-.73,3.02-1.52,4.56-2.29l.75-1.7c-2.09,1.02-3.86,1.88-5.15,2.51-1.31.6-2.16.94-2.37.98,2.74-1.38,4.83-3.38,6.1-5.27,1.27-1.9,1.66-3.82.96-5.25l-.95.5,1.27-2.03c1.28-.61,2.57-1.23,3.85-1.84Zm287.73-268.35c-.19.43-.28.9-.26,1.39-.02-.51-.39-.65.26-1.39Zm-385.37,295.45l1.85,5.84c.59,1.98,1.09,4,1.63,6.02,1.07,4.04,2.15,8.13,3.26,12.11.38.51.74,1.01,1.1,1.49.03.02.04.08.08.07l.13-.03.27-.05.53-.11,1.05-.22c-.3-.08-.6-.15-.9-.23l-.44-.11-.22-.06s-.06-.03-.07-.09l-.04-.15c-.2-.8-.38-1.6-.53-2.41-.44-9.24-.26-15.58.65-17.85.89-2.2,2.44-.62,5.05,6.7.15.44.31.9.49,1.39l.13.38c.08.05.25-.04.37-.06.27-.07.54-.14.82-.21l1.63-.91c-.49-.05-1.08-.04-1.74.01-.17.02-.34.03-.51.05-.05-.21-.1-.43-.15-.65-.11-.42-.23-.86-.35-1.32-.65-2.34-1.55-4.78-2.56-7.01-.67-.31-1.76-.78-3.08-1.44-1.27-.69-3.01-1.45-4.65-2.35-3.29-1.75-6.5-3.97-6.77-3.66-.43,1.35-.01,2.33.57,3.35.59,1.02,1.35,2.06,1.69,3.72l.71-2.23Zm6.35-12.64c-.91-4.22-1.74-2.59-3.06-2.59.69,1.33,1.37,2.65,2.05,3.96.05-.73.32-1.24,1.02-1.38Zm-4.04-1.7c.16.49.26.92.21,1.22l-.21-1.22Zm64.01,11.41c-.17.12-.23.17-.39.27,1.03-.39,2.03-.83,3.09-1.27-.49.03-1.3.28-2.69.99Zm-9.72,1.29l-.05,2.51c.95-.35,1.95-.66,2.94-1.05-.75-.78-1.45-1.42-2.89-1.46Zm-25.17,1.85c-1.81,3.57-6.94,5.15-8.5,9.04-.66,1.07.4,1.09,1.66,1,1.47-.36,3.07-.7,4.74-1.13.15-.54.56-1.14,1.18-1.78-1.56.11-2.41-.51-1.35-2.92,1.48,1.81,2.62.6,3.63-.95,1.05-1.58,2.01-3.53,3.91-3.61.6-1.42-.44-1.6-1.73-1.37-1.29.25-2.89,1.03-3.54,1.72Zm-268.51-260.98c.01-.31-.06-1.19-.24-2.3l3.94.54c2.64,1.98,4.5,4.61,6.58,6.7,1.04,1.05,2.13,1.96,3.41,2.6,1.27.65,2.71,1.03,4.48.98,1.83,2.29,2,4.82,2.29,7-1.08-.82-2.06-1.62-2.81-2.39-8.47-1.93-9.55-4.24-10.16-6.64-.61-2.38-.79-4.75-7.5-6.49Zm60.02,45.14c-.66-.22-1.15.06-1.15.06,7.63,1.75,14.05,4.23,19.41,6.78,5.38,2.51,9.49,5.36,12.56,7.83.19-2.72-4.33-8.53-6.5-11.29,1.33-.1,2.66-.21,3.97-.28l.25,2.78,5.58,1.31c-.09-2.28-3.66-4.59-5.1-7.38-.5.24-9.61-2.67-12.57-2.86l4.72,5.71c-.56-.87-2.85-2.59-5.43-4.31-1.29-.86-2.65-1.72-3.9-2.46-1.26-.73-2.43-1.34-3.3-1.75-.41.51.42,2.11,1.64,3.35,1.2,1.26,2.79,2.18,3.95,1.27-.52,2.02-6.54-2.38-3.96,2.1-5.73-1.59-12-8.04-14.84-11.21l1.26-3.08c-3.06-3.58-4.75,1.54-8.16-3.02,5.85,3.16,1.06-3.59,5.58-.85-.71-1.96,1.9-2.87-2.65-5.64-6.06,1.14-3.15-5.41-8.76-4.48-1.61-2.64,3.95-.54-.36-4.01-6.54-1.52-7.1.06-9.12,2.49,4.45,3.91,7.76.14,11.39,3.39l-10.95-.66c1.06,1.59,2.11,2.36,3.14,2.77-1.78-.77-3.57-.98-5.33-.81-1,.09-1.89.14-2.7.16,4.5,2.93,8.46,5.58,8.44,7.15l-1.45.88c.84,2.18,4,2.97,5.8,2.84,4.06,2.53,9.24,3.45,9,5.66l-2.29.14c5.15,2.9,5.75,3.18,11.84,7.4Zm134.09,135.92c1.32-3.04,2.47-6.12,1.83-10-.3-1.95-1.02-4.12-2.34-6.62-1.33-2.49-3.17-5.37-6.01-8.48l1.13.8c-1.24-4.4-4.73-6.96-8.29-9.68-3.61-2.69-7.41-5.43-9.25-10.64,4.84,2.45,4.5,2.35,11.81,3.53l-4.72-3.13c3.3-.81-1.41-3.94-3.88-7.07l5.02.33c.77,2.52,4.51,7.51,5.03,6.85-.6-.39-.13,1.9.97,4.71,1.04,2.87,2.71,6.24,4.72,7.95,1.6-1.93-6-9.96.16-8.61-2-1.19-2.61-2.26-3.2-3.39-.58-1.14-1.1-2.37-2.9-3.83,4.11,2.26,3.26-1.32,6.75.04l-5.51-5.22c.48-.69,8.5,7.23,6.8.57-2.95-1.5-6.98-8.75-9.07-7.12l.49-.68c-3.34-4.62-4.46.62-7.99-5.53-1.04.83-.83,2.42,1.03,4.07.92.58,1.78.63,2.8.9,1.02.28,2.23.76,3.76,2.3-.15,1.42-.95.38-1.79-.44-.85-.81-1.78-1.37-2.08.89-.34,2.26,8.5,7.7,3.48,7.84l-3.19-4.64c-1.04.81-2.19.42-3.27.02-1.09-.39-2.12-.78-2.88-.03-3-1.86-2.94-6.22-6.97-7.24-2.22.09-2.88,4.09-5.68-1.05-.09-2.95-2.6-6.64-5.54-10.01-1.47-1.68-3.05-3.28-4.5-4.65-1.49-1.33-2.85-2.43-3.83-3.19l-4.26-1.79c-.87,1.42,6.04,5.55,2.59,5.13l-5.23-4.19,1.07-.37c-1.43-1.7-3.81-2.49-5.65-3.47,2.79.06,5.72,3.97,6.95,1.32-1.88-2.58-1.53-3.66-3.98-5.29.59.3,1.17.48,1.37.14-3.87-5.23-6.64-1.92-8.41-2.34-7.11-1.65,2.48,6.76-.06,8.28l-7.31-5.65c-2.45-1.87-4.83-3.8-7.35-5.57,1.78.35,3.57.72,3.87-.51-2.59-3.91,1.34-1.67-3.59-5.73-1.06,1.57-2.96.7-5.19-.71-2.24-1.41-4.79-3.4-7.24-3.95-.64-2.5-.78-3.02,2.8-.16,1.16-2.2-4.23-5.38-5.79-6.94-1.37-.33-3.27-1.42-4.67-1.86.66,2.11-.9,2.79-4.62,1.13l-.5.26c2.32,2.28,4.99,5.56,7.68,8.3,1.34,1.38,2.69,2.63,4,3.57,1.3.96,2.53,1.65,3.7,1.83l-1.65.18c2.14,3.24,5.92,5.05,9.14,6.79,3.24,1.7,5.77,3.49,5.51,6.34-1.46,1.14.82,1.32-1.04,3.18l5.43,2.17-1.65.11,3.64,2.92c1.21.98,2.37,2.01,3.56,3.01l-.52.19c4.82,1.35,8.7,2.39,11.82,3.2.82-.81.86-1.26,2.53-.82,1.49.63,2.32,1.42,2.93,2.25t.01,0h0c1.38,1.91,1.27,4.18,2.76,6.68l-6.29-6.08c-1.88.87-2.79,2.84-.81,6.84-1.26-1.19-2.85-.64-1.52,1.05.52-.19,4.83,3.19,4.51.62,1.56,1.35,3.08,3.19,4.66,5.28,1.57,2.09,3.09,4.53,4.82,6.95,1.72,2.43,3.58,4.89,5.72,7.17,2.06,2.34,4.38,4.51,7.11,6.29-7.48-5.37,2.62,7.14-4.39.11,1.04,3.64,2.57,4.26,4.39,4.71,1.81.45,3.94.67,5.91,3.62-.5,1.18-2.25-3.13-5.04-2.92,1.69,2.4,3.39,4.47,5.32,6.23,1.91,1.77,3.93,3.31,5.96,4.83,2.06,1.51,4.02,3.09,5.86,4.89,1.85,1.79,3.59,3.81,5.07,6.25l-1.7,1.81c.76.78,1.56,1.6,2.39,2.45.79.88,1.61,1.79,2.45,2.72Zm14.78,17.27c1.39,1.74,2.8,3.5,4.23,5.29-.07-.21-.18-.39-.28-.6,1.67,1.58,3.29,3.2,4.95,4.81-1.16-4.03-.18-7.78,3.72-3.34-1.11.07-1.37,2.16-2.85.7.61,4.1,3.46,12.11,5.64,8.45-6.67-4.81,3.27-3.77-1.85-7.64,3.63,1.58,4.22,4.85,6.61,6.95-1.65-.89-2.56-.19-2.89,1.29-.32,1.47-.19,3.78.43,6.05,1.43,1.53,3.36,6.64,5.73,9.2,1.49-2.04,3.98.03,2.02-5.14.72.77,1.54,1.81,2.24,3.11.72,1.29,1.19,2.91,1.39,4.75-.92-1.11-2.16-3.21-2.83-2.7-.96,2.94.19,5.29-.02,6.98.58,1,1.16,2.02,1.73,3,.04-.39.16-.76.36-1.08,1.12.88,2.28,1.86,3.37,2.67-3.02-4.17,0-2.57,1.24-3.01-1.24.47-.98,1.26-.31,2.13.32.39.68.7,1.04,1.04.36.36.69.7.86,1.02.2-.7.39-1.41.61-2.04l.35-.92.09-.22.06-.29.12-.58c.25.13.47.39.62.59.13.17.21.37.27.6.11.45.17,1.09.22,1.61.12,1.06.2,1.83,1.27.77-.14-.78-.35-1.46-.52-2.1-.08-.29-.17-.58-.24-.85-.04-.13-.08-.25-.12-.38-.06-.17-.12-.35-.19-.52-.55-1.48-1.11-2.77-1.71-4.01-1.22-2.48-2.55-4.8-4.51-7.98-.18,1.2-.45,2.44-.69,3.66-1.17-1.76-1.77-2.98-1.98-4.01-.21-1.03-.06-1.86.12-2.74.36-1.75.81-3.72-1.36-7.92-.88-.65-1.73-1.77-2.55-3.04-.84-1.27-1.76-2.65-2.61-3.94-1.75-2.55-3.48-4.57-5.25-3.68.81.22.87-1.49.33-3.49-.54-2.01-1.67-4.33-3.31-5.22-4.97-1.19-10.94-9.96-10.65-6.34,1.46,2.45,5.18,4.71,4.37,7.89l-3.55-4.33.22,4.12c-.38-1.96-1.92-.8-3.95,1.44Zm77.97,94.86c.09-.02.22-.05.33-.08-.13.04-.25.08-.36.13l.03-.05Z"/>
      <path class="cls-1" d="m66.36,691.88c-1.81.05-5.21-1.88-5.43.2.91-1.95,6.33,2.95,5.43-.2Z"/>
      <path class="cls-1" d="m63.18,687.87c-.48.33-.69,1.14-2.28.4l4.54,1.75-2.26-2.14Z"/>
      <path class="cls-1" d="m65.54,672.69c-2.96.26-4.78.32-8.2-1.61,1.07-5.3,6.38,1.67,10.19-1.81-6.18-3.75-10.23-.75-15.7-3.05,1.63,3.25,11.69,9.88,13.7,6.47Z"/>
      <polygon class="cls-1" points="71.41 668.34 67.31 667.53 67.52 667.98 71.63 668.79 71.41 668.34"/>
      <path class="cls-1" d="m125.08,749.31c-.52,1.57,2.37,1.45,3.69,1.78-.86-.63-1.9-1.77-3.69-1.78Z"/>
      <path class="cls-1" d="m713.67,767.57c6.71-6.85,13.59-13.44,20.65-19.74-1.53,1.36-3.03,2.69-4.56,4.05-1.52,1.4-3.07,2.83-4.73,4.36-3.29,3.09-6.94,6.66-11.36,11.33Z"/>
      <path class="cls-1" d="m213.04,794.78c-3.65-1.79-6.63-2.59-9.53-3.52-2.92-.9-5.72-1.97-9.25-3.99,3.39,4.39,6.9,5.48,10.33,6.4,3.4.93,6.69,1.74,9.18,5.83l-.73-4.71Z"/>
      <path class="cls-1" d="m203.02,803.47c.39-1.6,2.16-1.44,3.86-1.14,1.69.3,3.35.71,3.57-.53-4.65-2.65-3.71.82-7.42-2.26v3.94Z"/>
      <polygon class="cls-1" points="202.33 740.98 205.33 741.08 203.3 740.42 202.33 740.98"/>
      <polygon class="cls-1" points="232.57 823.46 231.48 823.43 233.8 826.71 232.57 823.46"/>
      <path class="cls-1" d="m230.37,823.41l1.1.02-1.1-.02Z"/>
      <polygon class="cls-1" points="208.73 737.37 205.94 734.71 203.59 734.83 208.73 737.37"/>
      <path class="cls-1" d="m226.33,770.07l-3.27-1.19c.65.24,3.57,3.96,3.27,1.19Z"/>
      <polygon class="cls-1" points="249.56 840.19 253.18 841.9 253.09 841.42 249.49 839.72 249.56 840.19"/>
      <path class="cls-1" d="m252.32,779.58c-.35-3.32,5.67,3.79,3.22-.88-3.58-2.44-2.98-.38-3.22.88Z"/>
      <path class="cls-1" d="m278.83,824.05c.39.38.86.72,1.44.91-.54-.39-1.02-.68-1.44-.91Z"/>
      <path class="cls-1" d="m278.83,824.05c-1.26-1.22-1.9-3.1-3.24-3.44.85,2.29,1.69,2.56,3.24,3.44Z"/>
      <path class="cls-1" d="m293.49,837.84l-.99-1.26c1.97.36,1.3-.08-.38-.47-1.23-1.16-1.7-.57-2.2-.35-.45-.03-.89-.07-1.37-.1.58.16,1.11.29,1.57.39,1.8,1.89,2.99,2.95,3.37,1.79Z"/>
      <path class="cls-1" d="m309.03,918.07c-2.45-4.83-2.93-6.22-1.29-7.06-2.56-4.49-4.61-1.98-7-4.02,3.67,4.45,3.69,5.89,8.29,11.07Z"/>
      <path class="cls-1" d="m300.74,907c-.41-.5-.84-.95-1.36-1.5.47.69.94,1.13,1.36,1.5Z"/>
      <polygon class="cls-1" points="290.47 806.77 295.12 807.39 293.85 806.7 290.47 806.77"/>
      <path class="cls-1" d="m312.72,925.14c-.46-.89-1.4-2.15-1.32-3.16-1.67.8,1.78,4.03,1.32,3.16Z"/>
      <path class="cls-1" d="m329.38,886.8c.58-1.18-2.27-3.7-2.88-5.16,1.15,1.88-.38,5.26,2.88,5.16Z"/>
      <path class="cls-1" d="m327.4,934c-.43-.91-.19-2.88,1.44-3.11-1.53-.78-5.29-.74-1.44,3.11Z"/>
      <polygon class="cls-1" points="335.39 895.6 335.4 894.56 332.1 892.03 335.39 895.6"/>
      <path class="cls-1" d="m348.35,867.76c-4.64-2.38.44,9.06-6.03,3.82,1.17,2.38,1.83,3.44,2.28,3.77.46.32.7-.09.95-.62.49-1.05.96-2.52,3.1.71-2.05-4.11-1.29-7.5-.3-7.68Z"/>
      <path class="cls-1" d="m348.65,875.44c.3.6.66,1.21,1.11,1.84-.42-.75-.78-1.34-1.11-1.84Z"/>
      <path class="cls-1" d="m372.07,938.04c-.5-.49-.92-.78-1.36-1.02.42.37.83.72,1.36,1.02Z"/>
      <path class="cls-1" d="m364.35,894.65l-6.67-4.05c2.21,1.34,4.96,4.51,7.44,7.04,2.52,2.51,4.58,4.53,5.78,3.33-.37-.92-.85-1.83-1.4-2.69-.57-.84-1.21-1.63-1.87-2.33-1.32-1.4-2.71-2.46-3.83-2.86l.54,1.56Z"/>
      <path class="cls-1" d="m351.11,998.67l-2.99-4.6,2.07,7.01c-.27-2.24,2.94-.33.92-2.41Z"/>
      <path class="cls-1" d="m350.6,1002.45l-.41-1.36c.03.34.16.78.41,1.36Z"/>
      <path class="cls-1" d="m364.41,927.45c-.9-2.03-1.78-3.57-3.34-4.99-.04,1,2.08,6.11,3.34,4.99Z"/>
      <polygon class="cls-1" points="367.22 1030.8 364.06 1023.13 367.26 1031.92 367.22 1030.8"/>
      <path class="cls-1" d="m397.68,1038.19l1.34.29,7.26-3.16-1.4-.26c-2.37,1.03-4.77,2.11-7.2,3.13Z"/>
      <path class="cls-1" d="m405.42,963.33c-.06-.7-.67-.6-1.38-.29-.7.31-1.43.85-1.6,1.27.38.8.68,1.62.99,2.43.78-1.55.73-1.67.45-1.71-.28-.02-.74.03-.79-.96.83-.18,1.58-.43,2.32-.75Z"/>
      <path class="cls-1" d="m567.04,929.86c.14,2.26-5.76,6.65-7.16,5.74.22-1.19,2.55-4.42.07-3.43-.38,2.34-.81,4.67-1.24,7.01-7.36,3.39.44-8,2.01-11.69-2.95,2.51-4.35,4.66-5.8,6.87-1.45,2.22-2.86,4.56-5.93,7.36,2.06-1.38,3.91-1.67,5.46-1.92,2.25,1.96-4.33,6.33-8.32,10.24,3.51-1.42,2.71.75,1.54,3.35-.29.38-.41.71-.44,1.01-.13.31-.26.6-.38.9l.5-.45c.19.28.56.48,1.29.56,2.98-3.78,7.25-4.44,9.53-6.47-5.45-1.46,6.78-7.87,8.41-11.61l2.79-3.39,1.15-1.15c.6.15.75.94-.37,3.36.85-2.12,5.92-6.79,4.39-7.42,1.86-1.86,3.66-3.74,5.47-5.62,1.82-1.87,3.62-3.76,5.4-5.65.48-.22.99-.4,1.49-.42.16-.6.04-.84-.19-.95,15.52-16.47,30.2-33.31,44.42-49.95-2.38,2.18-5.06,3.6-7.67,5.79.89-5.9-4.04,3.78-5.36.68.67-2.43,3.09-4.7,4.94-5.71-.67-1.55-3.53-.31-4.69-1.75-6.89,5.01-2.23,10.77-8.48,16.18-1.15-1.45-.68-4.4-4.03-.23l.61-1.28c-4.17,7.77-7.51,2.23-7.39,9.6l-1.86-1.87c-.57,2.11-2.13,4.58-3.87,6.94-1.76,2.36-3.71,4.61-5.03,6.32l-.2-.53c-6.05,10.89-4.12,5.41-12.65,16.12.74-2.21,1.43-4.44,2.13-6.65-4.14,2.51-2.49,5.58-5.1,7.77-.2-.53-2.12-1.32-.24-3.93-2.7,5.04-5.49,10.06-8.35,15.09-1.46,4.21,1.94.81,3.17,1.17Z"/>
      <path class="cls-1" d="m548.99,941.73c-.75.5-1.53,1.14-2.34,2.03.9-.72,1.64-1.38,2.34-2.03Z"/>
      <path class="cls-1" d="m634.1,862.67l-2.98,3.48c1.05-.97,2.05-2.06,2.98-3.48Z"/>
      <path class="cls-1" d="m534.6,962.19c3.18-.88-.48,2.89-.24,4.01,2.76-2.29,5.43-4.65,8.12-7-.7-.74-.65-2.28-1.43-2.84-2.15,1.94-4.27,3.91-6.45,5.83Z"/>
      <path class="cls-1" d="m546.07,958.6c-.2-.77.23-2,.77-3.29-1.44,1.3-2.88,2.61-4.36,3.89.52.55,1.49.65,3.59-.6Z"/>
      <polygon class="cls-1" points="509.42 918.65 510.63 917.45 512.04 915.14 509.42 918.65"/>
      <path class="cls-1" d="m532.16,903.67c-2.54.35-4.57,3.86-5.25,5.06,3.22-3.15,2.24-1.35,5.25-5.06Z"/>
      <polygon class="cls-1" points="516.75 895.59 519.2 892.04 518.71 892.1 516.75 895.59"/>
      <path class="cls-1" d="m648.26,830.54c.43-.57.85-1.13,1.28-1.71-.65.73-1.02,1.25-1.28,1.71Z"/>
      <path class="cls-1" d="m625.42,860.69c9.15-6.07-2.66,6.85,2.37,6.81l2.81-5.18.45,1.04,4.32-5.51c-2.26-.05-3.04.69-4.22-.74,6.64-6.59,3.57-.82,9.77-4.47l6.54-8.04-.14.99c.54-.68.62-1.12.59-1.55,7.33-9,14.65-17.88,22.04-26.58,3.12-5.58-4.76.34-3.65-4.87-4.87,5.37-13.53,12.17-11.21,15.07-.22-.52-.65-1.55-1.95-.72l-.55,5.15,3.38-2.39c-.57,5.13-10.11,15.06-13.16,15.74,4.38-6.59-.91-6,7.74-12.92-1.02-.24-3.56.19-2.32-1.99-7.64,10.31-16.42,17.95-22.84,30.15Z"/>
      <path class="cls-1" d="m710.34,766.75l.15.31c.04-.28,0-.43-.15-.31Z"/>
      <path class="cls-1" d="m707.01,769.23c-.66,2.23-1.29,4.46-1.91,6.71,2.17-2.24,4.39-4.39,6.59-6.59l-1.2-2.3c-.18,1.03-1.7,4.19-3.3,4.34l-.18-2.16Z"/>
      <path class="cls-1" d="m701.6,782.33c2.7-4.13.5-6.06-2.36-5.2,2.27-4.07,3.89.66,3.95-3.71-1.54-1.46-4.66,3.22-5.28,4.41l3.69,4.5Z"/>
      <polygon class="cls-1" points="675.45 807.05 675.49 805.2 672.93 807.48 675.45 807.05"/>
      <path class="cls-1" d="m675.49,805.2l2.55-2.26c-.82-.45-1.63-.89-2.46-.9l-.09,3.16Z"/>
      <path class="cls-1" d="m684.74,797.11c1.15-.87,2.36-1.88,3.75-3.2l-3.75,3.2Z"/>
      <path class="cls-1" d="m681.55,799.39l.36.18,2.84-2.46c-1.11.84-2.15,1.56-3.2,2.28Z"/>
      <path class="cls-1" d="m678.04,802.95c1.88,1.01,3.9,2.03,6.82-1.89l-2.96-1.49-3.86,3.38Z"/>
      <polygon class="cls-1" points="540.87 875.86 542.7 872.24 542.19 872.32 540.36 875.93 540.87 875.86"/>
      <path class="cls-1" d="m557.6,860.69c.38-.96.59-1.76.75-2.52-.52.91-.81,1.74-.75,2.52Z"/>
      <path class="cls-1" d="m558.29,838.8c4.6-2.07-2.14,6.58,4.18.8,1.95.71,1.17,5.38-2.23,7.73-1.15-1.45,1.73-3.69-1.3-3.09-.2,3.38-1.94,3.18.72,4.32-1.71,4.49-.61,6.15-1.32,9.61,2.76-4.79,12.46-11.48,14.38-19.02.03-5.05-4.89-6.27-8.46-9.42-1.22-.29-8.09,6.7-5.98,9.07Z"/>
      <path class="cls-1" d="m549.96,841c-1.58,1.42-1.87,2.02-2.44,3.24,1.44.83,1.36-1.91,2.44-3.24Z"/>
      <path class="cls-1" d="m609.5,827.35c-.24-.76,1.7-4.29.27-4.41l-3.27,5.07c1-.98,1.95-.82,3-.66Z"/>
      <path class="cls-1" d="m605.07,830.23l1.43-2.22c-.47.46-.93,1.13-1.43,2.22Z"/>
      <path class="cls-1" d="m610.01,827.41c-.17-.02-.33-.05-.51-.06.05.16.18.24.51.06Z"/>
      <path class="cls-1" d="m695.29,788.01c.87.98,2.1-1.38,2.73-2.54-.82.64-2.14,1.37-2.73,2.54Z"/>
      <path class="cls-1" d="m764,724.8c.79-.09,1.57-.19,2.36-.26-.97-.14-1.46-.18-2.36.26Z"/>
      <path class="cls-1" d="m777.83,676.71c-.04-.26.03-.53.17-.81-.15.25-.22.51-.17.81Z"/>
      <path class="cls-1" d="m778,675.9c1.08-1.66,6.42-2.28,7.5-4.46l-.02.56,2.81-2.22c-1.46.7-3.81,1.6-5.88,2.71-2.07,1.11-3.9,2.31-4.42,3.42Z"/>
    </g>
    <g>
      <path class="cls-1" d="m394.71,26.25c-.91-1.86,0-4.06.9-3.55-3.1-3.39-1.1-4.16-4.72-3.5-2.58-1.95-1.18-5.46,1.23-3.06l-4.66-6.58.99,4.56c-3.28-.19-1.58-7.28-5.39-7.47l3.03,7.78-1.09-.06c1.65,1.44,2.45,5.07,2.45,6.43-.54-.03-1.26.35-1.83-1.01,2.97,9.62,5.88.87,9.48,8.53-.24-.48-.4-1.11-.4-2.06Z"/>
      <path class="cls-1" d="m390.3,36.69l4.67,2.21.82,5.93c1.27-.32,3.57,3.48,3.81.36-.37-.49-1.08-1.45-1.23-2.35,1.45-.1,2.38,1.68,3.22,3.17.81,1.5,1.55,2.72,2.68,1.46-2.04-4.3-1.72-5.15-4.77-7.24-1.03-4.18-1.32-7.38-.97-9.61-.81-1.08-2.52-.72-3.36-2.15.15.33.3.63.45,1.01l-4,1.48c1.27,1,1.29,2.34,1.81,3.74-2.26-1.7-4.6-3.35-6.88-5.01-1.55,1.68-1.24,3.92-.64,6.14.57,2.23,1.43,4.42,1.04,5.96,2.43-4.27,2.5,2.01,3.36-5.1Z"/>
      <path class="cls-1" d="m395.17,28.47s-.04-.11-.06-.16c.02.05.04.12.06.16Z"/>
      <path class="cls-1" d="m453.59,546.64c0,1.5.99,1.99,1.49,2.23l.72-16.85c-1.14.47-2.76,5.26-3.28,1.99-1.31,1.39-.46,5.84,1.02,6.55l-1.65-1.3c2,3.98-2.42,6.43-3.59,3.84v.33s7.91,11.15,7.91,11.15c.68-3.92-2.75-3.18-2.63-7.93Z"/>
      <path class="cls-1" d="m432.91,892.37c-.29-2.2-.68-2.49-1.1-2.26.28.8.6,1.56,1.1,2.26Z"/>
      <path class="cls-1" d="m458.08,557.18l2.47,3.49c-.65-1.38-1.54-2.61-2.47-3.49Z"/>
      <path class="cls-1" d="m419.13,531.95c-.14-.01-.26-.06-.45.02l1.27,1.58s0-.03,0-.04c-.27-.57-.54-1.09-.82-1.56Z"/>
      <path class="cls-1" d="m464.35,634.07c.05.37.06.68.13,1.11,0-.4-.06-.77-.13-1.11Z"/>
      <path class="cls-1" d="m406.24,485.61l2.18,7.61c-1.15-1.06-.96,2.58-2.29.93.16.58.51,3.28,1.16,2.58v-1.53c3.3,4.11,4.76,1.79,7.11,8.46,2.27-3.97.45-5.84-1.04-8.07-.21-.74-.29-1.36-.39-1.98l-4.59-6.46-2.15-1.54Z"/>
      <path class="cls-1" d="m418.02,787.08l-.27-.09c.09.08.18.1.27.09Z"/>
      <path class="cls-1" d="m416.65,786.6l1.1.38c-.54-.43-1-2-1.1-.38Z"/>
      <path class="cls-1" d="m455.87,555.83c.64.13,1.42.6,2.2,1.34l-1.86-2.61c-.06.36-.21.82-.35,1.26Z"/>
      <path class="cls-1" d="m448.51,549.76l-.2-6.33-1.7-2.41c.57,2.45.91,5.29,1.9,8.74Z"/>
      <path class="cls-1" d="m466.87,624.21c-.08,13.09-3.96-3.41-5.24,2.55.31,3.65,2.2,5.02,2.71,7.31-1.18-10.44,6.36,1.71,5.82-8.79,3.46,1.65,3.49,7.72,2.37,11.22-3.59,3.85-2.33-3.63-5.62-4.69.35,4.22,1.01,3.51,2.82,5.38-1.1,6.55,3.54,13.83-1.37,17.53.53,4.8,2.17,4.57,3.83,7.39,3.62.72,2.25-7,5.2-8.63-.32.35-.97,1.04-1.48.8l.96-4.09c-1.46,3.85-3.61-.72-3.8-2.82,0-1.52-.02-4.56.96-4.09l.67,2.34c1.29-2.91-2.35-6.67-.23-9.7.83-.13,1.16,1.08,1.65,1.28-2.32-3.63-2.01-7-3.53-12.28l3.47,3.18c-3.8-4.34-2.22-13.69.2-20.11-.65.69-1.14,1.98-1.8,1.16-.68-3.87,1.93-6.64,3.75-4.78-2.82-3.88,3.2-14.13-.45-19.41l-17.24-24.3c.42.9.75,1.86.86,2.83-3.27,1.98-2.94,3.15-5.75-.73,1.5,3.74,4.12,2.46,3.99,7.98-1.49-2.24-5.11-2.95-5.73,2.3,2.54,13.34,11.14,22.5,15.17,35.04-2.46.34-2.24,10.04-3.04,14.71-2.54-1.92-3.12-5.44-3.48-9.09-.27,2.26-.53,6.17-.78,9.07l5.09,1.43Z"/>
      <path class="cls-1" d="m460.11,593.2c-.23.32-.37.65-.5,1,.21-.18.38-.47.5-1Z"/>
      <path class="cls-1" d="m462.69,612.62c-.09-.05-.16-.04-.26-.06.04.38.09.76.13,1.16.04-.39.09-.83.13-1.1Z"/>
      <path class="cls-1" d="m450.21,558.66c-.66-.82-.83-1.4-1.49-2.22.21.49.38,1.11.56,1.7.3.57.62.85.94.52Z"/>
      <path class="cls-1" d="m454.63,556.23l.99.47c.13-.33.16-.57.26-.86-.54-.12-.99-.04-1.24.39Z"/>
      <path class="cls-1" d="m442.41,673.09l.47,1.28c0-.76-.21-1.09-.47-1.28Z"/>
      <path class="cls-1" d="m462.03,638.57c-.02-4.56-3.62-.72-3.33-7.15l-.31,1.88c-1.34-4.69-.24-12.76-.11-18.25,1.42.69,1.93-3.24,4.15-2.49-.35-3.77-.68-7.51-2.91-9.55.87-2.28-1.01-5.91.09-8.81-1.42,1.18-4.41-4.42-3.09,2.84-.16-.59-.49-.24-.65-.82-2.12,4.54,1.02,6.54.87,10.53-1.46,2.32-1.99-4-2.63-1.78,1.02,5.04-2.36,15.54,2.72,15.45.19,3.64-.96,4.09-1.93,5.12,5.13,5.98-3.32,21.15,3.58,21.43-.17-2.1.14-5.51-1.2-8.64l4.76.24Z"/>
      <path class="cls-1" d="m450.21,566.31c-.05.28-.04.65-.11.88.05-.26.09-.58.11-.88Z"/>
      <path class="cls-1" d="m472.92,509.91l4.42,2.11c.56,10.87-.89,14.73-1.16,24.2-.65.69-.99-.47-1.16-1.06.21,6.68-1.21,16.58.63,21.53-.14,2.11-1.83,7.6-3.06,5.44.35,1.05.68,2.24.48,3.42-1.64.24-.34-2.67-1.66-2.8-.15.93-.48,1.28.02,1.52-1.32-1.65-5.58,1.38-5.13-5.99,3.92-2.67.2,5.13,4.46,3.65.14-2.44-1.49-2.24-1.99-2.47.24-3.11,1.29-2.98,2.24-2.77-1.24-1.26.75-5.09-1.14-6.83-.04-6.07,3.12.48,3.26-3.48l-4.13-2.48,1.11-6.54c-1.04-9.59-7.38,1.01-9.26-9.98,2.14,1.54,6.06-2.65,7.18-7.68.01,3.04,2.51,8.77,1.06,12.62,3.58-5.36.04,7.61,3.97,4.93-1.67-2.81-1.69-7.37-.56-10.87l.33,1.18c.63-3.75-3.66-6.81-1.73-11.93-.01-2.59,1.16-2.05,2.13-1.55-.53-2.22-1.27-4.21-.33-4.17Zm.62,5.67l-.58,3.44c.74-.79.77-2.08.58-3.44Z"/>
      <path class="cls-1" d="m403.9,82.01c.03-.35.04-.76.08-1.08-.14.27-.12.67-.08,1.08Z"/>
      <path class="cls-1" d="m428.12,381.29l.21-1.99c-.17.77-.22,1.41-.21,1.99Z"/>
      <path class="cls-1" d="m415.39,336.48l-.94-2.89c.05,1.13.43,2.03.94,2.89Z"/>
      <path class="cls-1" d="m409.16,104.78v.1c.09.14.21.24.31.39l-.31-.49Z"/>
      <path class="cls-1" d="m423.92,248.26c.33-.45.63-.96.85-1.64-.41.1-.68.71-.85,1.64Z"/>
      <path class="cls-1" d="m415.56,337.01c.03-.07.06-.11.08-.17-.09-.11-.18-.24-.26-.36l.17.53Z"/>
      <path class="cls-1" d="m414.99,400.45c.12.43.2.82.37,1.29-.05-.6-.2-.98-.37-1.29Z"/>
      <path class="cls-1" d="m427.1,398.15c.09.46.2.91.37,1.26l-.37-1.26Z"/>
      <path class="cls-1" d="m415.68,466.92l.48,2.72c0-1.33-.2-2.13-.48-2.72Z"/>
      <path class="cls-1" d="m424.03,405.14c.19.16.37.33.56.44-.12-.38-.36-.56-.56-.44Z"/>
      <path class="cls-1" d="m411.72,62.42c.02.06.05.12.06.15l.49-.07-.55-.09Z"/>
      <path class="cls-1" d="m404.03,57.85c-.34-.7-.67-1.43-.99-2.14.22.84.58,1.61.99,2.14Z"/>
      <path class="cls-1" d="m427.75,209.59c.54-.76,1.1-2.47,1.88-1.78-1.02-1.25-3.14-.93-1.88,1.78Z"/>
      <path class="cls-1" d="m440.8,68.27c-.66-.28-1.22-.7-1.78-1.12.85.83,1.57,1.57,1.78,1.12Z"/>
      <path class="cls-1" d="m439.02,67.16c-.42-.41-.86-.85-1.3-1.2.39.44.83.84,1.3,1.2Z"/>
      <path class="cls-1" d="m464.41,224.54c-.27.2-.49.5-.53.89.56-.16.66-.47.53-.89Z"/>
      <path class="cls-1" d="m403.15,53.7c-1.09-.13-6.04-9.22-4.14-.9-3.12.58-2.9-4.83-4.34-6.76-.22,1.78-2.17-.19-3.1.61.7.95,1.96,1.96,2.26,3.81-1.15,1.23-2.84-1.19-2.99-3.43-.79,3.05-3.4-2.53-3.48,1.47,1.72,3.72,3.2,6.9,5.07,9.66,1.86,2.76,4.04,5.13,7,7.29-1.93-4.31-4.37-9.02-4.21-13.05l3.06.77c-1.1,4.84,1.44,6.88,2.3,11.07-.36-3.21-.83-6.4-1.26-9.61.91-4.95,2.25-2.22,3.73,1.06-.21-.85-.28-1.65.12-2Z"/>
      <path class="cls-1" d="m427.94,53.41l.03-.18c-.13-.11-.24-.27-.38-.33l.35.51Z"/>
      <path class="cls-1" d="m470.69,469.02l.99.89c-.43-.72-.74-.95-.99-.89Z"/>
      <path class="cls-1" d="m416.81,62.62h0s.05.06,0,0Z"/>
      <path class="cls-1" d="m471.88,448.17c.07.03.15.07.23.12-.08-.08-.16-.08-.23-.12Z"/>
      <path class="cls-1" d="m413.56,439.81c-.13.03-.25.04-.37.12.13.45.27.24.37-.12Z"/>
      <path class="cls-1" d="m471.63,448.14c.08,0,.16,0,.25.03-.09-.02-.17-.06-.25-.03Z"/>
      <path class="cls-1" d="m465.64,345.76s-.48.31-.93.81c.25.2.55.01.93-.81Z"/>
      <path class="cls-1" d="m461.08,365.83c-.1.13-.2.2-.31.36l.31-.36Z"/>
      <path class="cls-1" d="m416.02,215.36c.06.96.2,1.66.36,2.26.01-.7-.07-1.45-.36-2.26Z"/>
      <path class="cls-1" d="m472.11,448.29c.28.22.56.53.9,1.04-.36-.56-.65-.86-.9-1.04Z"/>
      <path class="cls-1" d="m452.3,314.86c.1.21.2.42.3.62.05-.12.08-.25.14-.37l-.43-.25Z"/>
      <path class="cls-1" d="m454.3,304.37c.31.36.63.52.91.72-1.16-3.74.05-10.64-2.88-11.42.12,1.27-1.57,7.86-3.27,6.75.74,2.6-1.27,6.45-.78,7.85,1.55-4.27,2.46-.47,3.41,2.42-.86,2.62-2.33-.5-2.87,1.76l.3,6.07.4-5.28,2.78,1.62c-.1-.2-.16-.33-.26-.54-1.28-8.96,4.11-.76,2.26-9.94Z"/>
      <path class="cls-1" d="m455.21,305.09c.18.56.39,1.05.69,1.44-.05-.85-.33-1.18-.69-1.44Z"/>
      <path class="cls-1" d="m459.14,268.24c-.11-.46-.26-.96-.51-1.58.12.3.28.99.51,1.58Z"/>
      <path class="cls-1" d="m447.29,536.55c.83-.12,2.76-5.25.62-5.25-.3,1.54-.59,3.08-.89,4.64l.28.62Z"/>
      <path class="cls-1" d="m438.02,169.86c.02.58.09,1.16.2,1.73.12.11.26.21.37.29.27-.4-.28-1.47-.57-2.02Z"/>
      <path class="cls-1" d="m448.05,298.83c.33.95.67,1.37,1.02,1.6-.17-.62-.45-1.18-1.02-1.6Z"/>
      <path class="cls-1" d="m443,168.8c.49-.82,1.25-2.04,2.03-2.31-.21-1.51-1.48-2.4-2.11-3.86.57,1.68.66,3.71.08,6.17Z"/>
      <path class="cls-1" d="m442.87,162.51s.04.08.06.12c0-.04-.04-.08-.06-.12Z"/>
      <path class="cls-1" d="m446.23,539.61c.14.46.27.92.38,1.41l-.54-.75c-.27,1.19-.55,2.37-.82,3.55.12.44.22.91.27,1.49-.06-.24-.28-.43-.51-.55-.1.38-.2.76-.3,1.14,2.08,2.96,3.36,10.13,4.56,12.24.82,2.75,1.2,6.1.93,8.17.14-1.93-.19-4.51-1.45-3.8-1.46,3.85-5.22,5.58-2.39,12.49l.14-3.96,4.32,9.13c-2.12,3.03-2.16-4.56-3.81-5.88,2.01,7.04-4.51,12.51-.55,15.91-2.46.34-6.56.9-6.54,5.46,2.94-3.15,1.66,2.81,4.76.26,1.32,1.64-1.12,5.03.69,5.38l-.99-.47c-4.23,7.58,1.7,10.41,3.53,13.83.55,9.34-1.23,13.54-1.18,21.14-1.65.22-6.24,2.07-6.21,5.12,2.14,1.52,2.84,8.43,5.64,9.26,1.44-5.38-2.16-4.56-2.67-7.85,3.1-2.57,2.95-.11,4.9-3.72-1.3,2.93.91,13.57-2.03,16.71l-.34-1.17c-1.94,5.14-8.99,5.81-5.16,14.71l1.54,4.23c-.27-.21-.6-.25-.85-.37-.62,6.78-3.75,4.77-1.56,12.4-.17-.59-.5-.24-.66-.84-1.79,4.2,1.2,8.66,1.71,11.93-2.45,1.86-2.3-.58-3.95-1.88-1.27,7.48,2.4,15.79,5.05,20.6l-1.62,4.78c-.84-2.92-3.16-6.55-4.63-5.75.35,2.69,1.49,2.23.85,5.98-1.48-.72-2.81-2.36-4.63-4.23-2.89,7.68,5.27,2,.38,7.24-.15,2.45,1.99,3.98,3.8,4.33l-2.6,4.33c2.3.6,2.17,6.09,2.35,9.7.98.49,2.61-2.77,1.78-4.18,1.81.35,2.49,4.22,2.34,6.67-4.91.67-.06,16.12-5.66,12.95,1.06,11.12.82,26.65,2.51,34.03-1.46,2.34-1.76,7.23-3.91,4.19-.44,8.89,4.34,13.71,2.59,22.46-.65.7.15-3.99-1.49-3.75,1.68,5.86-2.56,10.39-1.68,19.4-.02-1.51-1-2-1.5-2.23.81-.12,1.5,3.74,2.18,6.1-.48,1.28-.5-1.76-1.16-1.06-3.19,17.17,2.81,30.65,1.78,47.82.3-4.91-2.84-6.91-4.16-7.03l-.29,4.8c1.52,1.93,1.35,5.54,2.41,8.62-.62.34-1.35,1.78-2.04.24-3.72,9.34,5.19,15.12,2.96,26.68l-5.84-14.4-2.43,3.38-2.67-6.34c-1.96,3.62,2.01,7.03-.46,7.36-.65-.81-.34-2.69-1.66-2.81-1.13,3.51.68,3.87,1.03,6.57-4.64-7.27-3.91-21.07-4.78-28.56-.34-1.19,1.15,1.06,1.65,1.29-.02-3.04,1.62-4.78.93-8.64-1.99-2.47-1.63,1.73-1.94,3.6-1.82-.35-1.66-1.29-1.83-3.39,2.46-.34,1.41-11.45,4.51-14.01-.24-11.22-6.4,1.49-4.82-9.38l2.94-3.13c-1.86-6.44-3.38-14.73-2.44-21.88l.02,1.52c1.14,1.06,1.96-.57,2.61-1.27,1.45-5.37-1.71-10.4,1.24-13.55-2.67-6.32-4.38-16.74-5.58-23.88,3.77-1.73,2.68,9.37,4.84,12.42l.29-6.44c-.14,3.98,1.18,5.62,3.16,8.1.95-5.61-2.18-7.62-2.86-13.01.98.46,1.63-.22,1.78-2.69l-2.41-.82c.2-.04.4-.3.59-1.05l-1.04-9.58c-1.14,1.97-3.27,1.97-3.42,4.42,1.46-.81,1.65,1.29,1.49,3.75-1.49-2.23-1.46,2.34-2.77,2.22.3-4.93.26-11-.26-14.27l2.3-.94c.79-4.67-.23-9.69.58-12.85l1.15,1.06c.95-5.6-.23-11.23,2.2-16.13-2.33-5.15-4.17-11.58-6.67-15.82-2.8-2.34,4.34-14.58.53-20.45.33-.37,2,4,3,5.98.63-3.75-2.84-6.92.27-7.96-1.43,8.41,2.46-.34,3.15,3.51.13-3.97-.22-8.17-1.22-10.17-.28,6.41-4.12-2.48-3.09,4.08-2.33-5.15-3.03-12.07-1.75-18.02,1.32.12,1.97-.59,2.62-2.8l-1.83-1.89c.48-2.79,2.01,5.53,2.96-.08-3-5.97,2.68-17.41-3.24-20.24,2.6-4.32,2.02,8.54,5.26,2.01,2,3.99-.76,9.22,2.2,10.65-.68-3.85,2.62-1.27,2.76-3.72l-1.66-4.33-.16.93c-2.51-7.26-.61-18.48-.66-27.6-2.68-7.85-6.82-13.36-6.05-22.59,1.65,2.81,2.08-7.59,5.08-1.62,1.78-4.2.11-8.51-1.2-8.66-.63,3.74-.49,1.3-1.28,4.44-1.5-2.21-1.19-7.14-.05-9.12-.16.93.16.59.65.82,1.29-4.44-1.49-2.23-2-5.51,2.29-.92.94-7.14,2.24-10.05l-2.99-4.45c1.99,2.46.96-4.08,2.92-4.67-1.33-3.15-3.81-5.86-3.02-10.53,1,1.99,1.78-4.21,3.91-4.19,2.42-7.94-5.17-13.59-1.76-21.06.49.26,1.81,1.86,2.45-.34-.51-1.78-.12-4.84-.26-6.72l.06.06s-.03-.06-.06-.1c-.07-.92-.31-1.51-.82-1.56-1.93-3.31-3.98-5.06-5.45-11.47-2.46.35-1.76,5.73-1.09,8.07l2.31,2.11c-3.77,1.73.37,5.73-.94,7.12-4.13-3.99-2.55-14.86-4.89-21.53-3.58,3.83-4.53,12.49-4.47,20.09l1.62-3.27-.14,3.97,2.77-3.71c-.63,3.73-.12,7.01-.43,10.4.14-3.98,3.58-5.36,2.94-3.14-2.6,4.32,1.34,4.69,1.04,8.07.31-1.87.47-4.32,1.79-2.68-3.24,6.54-1.42,8.43-4.84,14.35,4.1-.56.05,7.6,3.33,8.67l.47-2.8,2.17,6.09c-3.57,5.36-3.14-5.04-5.88,3.24-.77,7.72,3.5,7.72,3.53,13.82-2.31-2.12-4.15-7.04-3.85-11.95l-1.3,2.92c-1.32-1.64-.71-8.42-.4-11.8,2.5,5.73.97-2.58,3.26-5.03-2.31-.58-2.11,3.03-3.78-1.3-.14,3.98.02,4.57-1.09,9.59,1.58-10.89-7.62-10.22-5.21-19.68.84,4.45,3.43-1.38,4.59-1.85-.18-2.08-.54-6.31-1.04-8.07l-3.44,1.4c-1.19-5.63,6.03-7.23,2.86-13.81-1.97-.93-.95,5.61-1.28,4.44-1.7-8.89,3.87-11.79,6.77-19.47-.99-.49-3.12-.5-4.78-3.31,1.98.95,3.11-1.02,4.44,2.12.98-2.57-.36-5.73-1.04-8.07-1.44,5.37-2.8-2.36-3.96-3.42.48-2.8,1.97.95,2.48,2.71.65-2.23,3.75-4.77.79-6.2,2.13.01,5.3,6.58,5.65,10.79l.48-2.81c.99,2,.67,2.34.21,5.13,1.78-2.66,3.58-2.31,5.07-1.6-.33.34-.49-.22-.82.11-.65,2.23-.15,3.99,1.01,3.52,2.76,2.16,1.93-3.04,3.43-4.5-.14-1.16-.27-2.33-.41-3.47l-8.62-12.15c-.83-5.06,1.47-7.2,3.04-10.9l-2.4-1.15c.46-4.34,1.43-8.42,4.4-5.48-.83.12-.66.7-.82,1.64.33.14.55.37.73.65.14.1.28.15.42.24-.57-4.7-.95-7.64-1.03-7.91,3.18,8.09,4.44.61,8.72,2.14l-1.04-8.07c-1.61,4.78-2.13-.01-2.64-1.76,2.47-.36.28-6.44.76-9.24l.49.23c.97-2.56.95-7.12.44-10.39-.83.11-4.63-4.24-6.94-6.34-1.18,5.51-2,2.17-3.54,2.54.17-.57.24-1.6-.06-1.73-.66-.83-.98,1.03-1.8,1.15.86,5.96.89,12.06,4.2,14.63,1.63-1.74-1.33-3.16-.2-5.14,2.16,3.04,1.52,6.79,1.23,11.7l-2.13,1.51.88,4.99c-.98-2.11-3.19-.97-3.35-6.18-1.96.57.2,5.16-.6,8.3l2.64,1.75c-1.49-.7-2.1,6.08-3.94,1.16l-1.85-7.96-1.96,2.09-.21-6.66,1.33,1.63c-1.38-10.75,5.56-2.89,2.86-13.78-3.14-3.52-3.32-7.15-2.2-13.68.51,4.79,2.3.6,4.12,2.48,1.61-4.78-1.03-6.55-2.2-9.12,1.8-1.15,3.26-1.96,2.81,2.35,3.62.71-.37-5.72,3.4-5.94.55-14.33-11.58-12.02-6.18-28.47l1.49.69c-1.44-10.65.59-16.66-.27-26.44l4.1-7.55c.54,1.73,3.26,6.45,5.19,4.35-4.02,3.62-2.77,7.62-5.02,11.58,1,.45,1.79-1.17,2.44-1.86-.13,2.43-1.92,3.59-1.36,6.83.81-.12,1.91-3.6,2.28-.94l-2.56,4.29c.92,5.9,5.62,3.12,4.24,9.97-2.09-1.37-5.07-4.12-5.47-6.8-.59,3.13-1.12-4.24-2.52-1.42,2.98,4.66.38,6.75,2.12,12.86-.41-.73-1.03-.94-1.16-2.43l-1.71,8.7c1.95-2.09,1.71,7.33,4.5,6.64,1.55-9.29-.21-6.63,1.79-17.2.5,3.03,3.14,7.04,5.63,8.98-.11.09-.21.24-.27.56,2.65,1.75,3.46.12,8.21.36-3.16-5.03-.25-8.16-1.96-13.98-2.56-1.18-3.46,3.19-2.91,6.07l-1.52-5.13,1.16,1.04,1.38-12.79c.05,2.43,1.53,3.32,2.62,4.63.17-1.65.92-3.26,1.74-4.98-2.5.27-4.25-.02-4.14-1.63.9-8.22,3.26-12.72,6.21-15.68-.05-.32-.1-.68-.14-.97-2.58,1.3-4.42-5.99-6.96-8.6,2.63.2,1.7-4.2,3.1-6.53-3.01-1.33-7.2.26-9.76,3.07,2.62,5.61,2.71,3.18,6.56,5.9l2.36,9-2.35-2.07c-1.21,4.42,1.84,8.81-1.29,8.37-2.02-2.42-.62-6.27-2.64-8.66l-1.25,2.91c-2.92-5.28,3.07-2.57,1.09-8.91-2.73,2.23-.18-.57-1.9-3.31-1.91,2.1.46,11.06-4.03,9.04-1.88-3.31,5.62-10.81,1.22-15.23l.51.22c.71-6.33-1.83-8.61-3.41-11.01,1.53-2.67-.51-6.41-.63-9.32l1.32.09-.5-4.11c2.38,1.98-.12,4.82.18,8.35l2.46-.4c-2.95,4.02,1.4,6.82,3.45,10.04-2.01-4.66.82-13.02-3.97-14.16l2.51-2.82-.88-1.37c1.89-2.11,4.78.08,5.28,4.22-.63.71-.94,1.06-1.45.84,1.07,1.93,2.96,3.71,2.32,8.35l-1.26-2.5c-.27,5.77.55,11.05,2.93,13.08.59-4.17.99-8.31,1.24-12.39.22-4.07.3-8.09.29-12.01-5.52-2.36-8.63-5.1-13.78-6.29-.47-2.6-.86-5.67-.93-8.65-.08-2.97.2-5.86,1.13-8.12l1.01.41c.51-2.2.24-4.24-.38-5.91,1.31-2.34,2.75,1.56,3.46-.07l-1.85-7.41c2.34.41,2.46,6.68,2.66,9.65-.2-.56-.61-1.69-.91-1.32-.93,3.47,3.07,9.91-.29,11.44.6,1.68-2.51-3.42-2.65,2.29-1.28,3.83,1.74,5.08,2.75,5.48,1.32.07,1.83-6.02,3.42-3.91-.16-3-1.89-4.17-.63-8,.17,2.96,2.89,6.98.82,8.56,2.44,5.87,8.64,5.07,9,2.28-1.93.65-2.38-10.75-4.92-3.03-2.5-3.46-2.57-9.77-4.15-14.26l.5.2-.71-5.58c.7.78,1.32,2.46,2.64,2.5l-3.67-7.69c2.44,4.31,1.63-2.74,2.6-4.74-2.04-.78-3.61-3.75-4.68-.84-1.38,3.28,1.16,1.86,1.36,4.82-1.08-1.38-2.18-2.75-3.28-4.11l.3-.36-2.68-2.44c.03-5.68,6.13,2.31,3.38-4.9l-3.53,1.06c.29-8.41,3.79-19.38,1.8-25.22,2.11,1.52,5.39,2.08,7.19-.29-.49,2.61-.03,7.76.42,11.45-.59.73-4.38-4.43-3.85-8.45-2.86,1.12-1.83,3.58-.85,5.86.96,2.29,1.91,4.41-1.03,4.77-1.64,10.25,5.98,7.41,2.77,16.2,2.64.05,1.36,2.44,3.69,2.84,4.21-2.69-.43-11.66.8-17.34.21.55.65,1.64,1.16,1.84.61-4.07-.04-5.72-1.14-8.5l-.3.37c-2.81-4.8,1.81-3.14,2.81-6.1-.45-1.1.09-5.18-1.81-4.42.73-1.8,1.49-3.6,2.19-5.4l-2.92.44c-.37-2.94,1.52-3.72-.45-6.27l-2.63.06-.41,7.37c-1.11-3.64-2.59-.87-3.42-4.89,3.18,4.34,1.24-3.3,3.64-3.93l-1.68-2.88.75.71c1.2-2.45-1.2-2.72-1.08-5.47-1.17,3.34-2.87,5.57-.73,9.55-.84-1.44-1.77-3.62-2.52-5.6-.78-1.98-1.36-3.78-1.47-4.5-1.36-3.03.45-5.37.5-8.33,1.53,5.53,7.79-2.7,6.86,8.79-.52-.17-.48-1.09-.21-1.47-3.22,1.78.79,6.76,2.21,9.15,1.89-.78,2.55,1.78,3.31-2.69-.57.77-1.7-.08-2.55-1.64-.86-1.56-1.43-3.84-.81-5.99l4.19.39-.03-6.12.24.55c2.49-2.54-1.12-6.44.02-10.77-.9-1.43-1.32-5.08-2.06-7.68-.74-2.6-1.72-4.15-3.58-1.42,2.13-4.03-1.54-6.93-2.57-10.91l-1.08,5.27c-3.65-5.61-1.53-4.14-6.86-8.28,1.06-.63,1.84-1.81,3.15-1-.8-8.02-1.42-19.61-5.5-23.73-.78-5.61,3.9-7.32.65-14.86-.89-1.55-3.57,1.97-3.37-3.42.24-.41,3.96,4.45,2.55-1.28-1.95-1.77-1.97-4.26-1.97-6.93,0-2.67-.05-5.49-1.94-7.89.55-3.05-.88-7.86,1.8-7.36.35,4.6,2.16,10.83,3.55,11.56-1.62-.32-.79,3.47-2.62.4-.55,7.13,2.38,4.11,2.25,10.44,1.07.24,2.16-3.65,1.03-4.79,3.38-.68,3.9,11.76,6.94,5.57-.96-6.63-8.3-7.22-5.91-13.55,2.54,1.86,1.46,5.75,5.56,7.97l.48-4.94c-1.02-.98-2.08-1.94-3.12-2.91l.54.1c1.38-8.86-4.98-6.92-8.27-13.85-1.4,4.72-6.06.29-6.79,3.76-1.5-4.74-1.84-8.39,1.51-9.18,4.76,8.49,3.67-.29,8.91,7.43.9-1.65,5.38.97,4.63-4.18-3.67-5.19-2.43,2.32-4.8-3.12.23-.4.45-.82.99-.73-2.33-2.22-.04-3.2-2.69-5.91l.84.59c1.12-4.37-3.32-3.71-1.9-7.57-2.17,1.93-2.58-1.75-4.62-3.44-.13,3.61-3.26,6.28-1.49,12.86,2.15.35,3.14-.39,4.7,2.14-.41-1.43-.79-2.86-1.22-4.28.55.86,1.21,1.46,1.8,2.23l-.1,4.4c-2.58-4.97-4.16-2.06-6.7-3.83-.26-5-1.48-3.83-1.56-6.99,2.96-.38,2.74-10.45,3.1-16.46.11.89.47,1.98.55,2.6,2.86,3.56,1.69-3.38,2.44-3.74l-2.19-2.57c.34.5,1.21,1.09,1.29-.27-1.55-3.84-4.35-2.85-5.97-6.64,1.49-.73,4.81,1.97,4.96-.72,1.14-1.22,4.05-4.94,1.21-9.85-.7-.21-1.42-1.48-2.15-2.98.15.2.29.45.43.52l.69-3.99c3.57,2.21.51,6.39,4.01,8.64l2.62-.46c.66,2.35,2.64,5.24,4.38,6.36-.56-3.72-1.44-4.29-3.07-8.17,1.46-1.02,3.44,1.49,3.72,1.85l-1.62-.2c-.82,5.39,4.49,6.5,5.54,12.66.13.94-.2.43-.74.36,3.73,4.24,1.6,9.87,5.99,13.83l-1.73-1.22c.94,1.49,2.42,3.66,4.17,6.2.88,1.27,1.81,2.63,2.78,4.03.94,1.41,1.92,2.87,2.89,4.33l1.02-.17c.45-.85.95,1.57.82,2.95h-.02c1.94,2.94,3.79,5.79,5.14,8.16.45-.94.77-2.1.66-3.32-1.41-.76-1.75-6.88-4.26-5.48,1-3.09-2.26-6.97-1.74-9.19-.85,4.03-3.14-1.94-4.76-2.22,1.4-1.62-1.41-5.33.97-5.41.42-.86-1.08,2.14.65,3.36,3.03,3.3.19-7.42,3.34-3.16-2.99-5.67-4.41-13.75-8.07-19.4l-.03,3.71c-.34-2.85-2.65-9.18-1.69-9.96.82,1.97,1.46,4.35,2.61,6.84,2.61-.56-1.73-6.26-.24-6.98l-6.29-6.39.77,3.34c-2.08-1.66-2.22-9.05-3.38-14.26,4.3,1.91,2.4,7.66,5.26,12.66,2.4,3.56,2.69-3.37,4.54.12.54-1.19-.22-3.61-1.43-4.56l.2-1.64c4.12,2.42,5.44,10.11,9.56,14.37-.46-.35-.93-.63-1.33-.67-.2,4.18.83,8.08,2.65,11.63.49-2.25-.39-2.86-1.05-3.9.75-.34,2,3.12,3.22,4.25.02-3.75,1.71-1.13,1.66-3.49,1.34,2.1,1.62,4.01,1.97,6.9-.86,1.75-1.95-.79-3.45-.1,1.64,2.65-1.82,4.88,1.01,8.65-.68-5.76,3.79.65,5.32,2.35l-.12-.97c2.28,1.35,2.74,2.85,1.3,4.48-1.28-2.14-1.31-4.48-3.03-3.38.44,1.5.89,2.99,1.84,4.59l-1.71-1.26,2.08,7.48c1.93.83,4.74,2.32,7.43,2.85-1.09,2.15.69,4.43,1.62,6.06l-.86-.66c-.74,3.67,1.99,10.92,3.6,11.27-.42,1.33-3.65-2.47-6.16-4.47-2.52-2.01-4.32-2.26-1.91,6.06,1.23,6.44,5.49,3.11,7.83,6.5,0,0-.53-.12-.76.31.19,2.9,2.04,2.86,3.25,5.06.4-1.84-.03-4.32-.87-4.99,2.13.49.96,5.96,2.89,7.87-3.55-2.3-.23,5.73-2.18,3.8-1,6,2.45,11.65,5.14,14.3-3.29,4.46,1.6,6.7.67,13.26-.02-.98-.82-2.66-.62-4.06-1.5-1.61-1.57.06-1.66,1.49-.11,1.43-.22,2.61-1.71.02.55,1.12,1.32-.11.74-1.25-.6-2.07-1.97-3.89-3.01-3.19l-1.4,5.4-.86-1.68c-.6,2.71-1.29,5.42-1.93,8.12.52.14,1.04-.66,1.29-1.08-.06,9.09,2.82,19.1,3.26,27,3.55.36,4.79,5.14,5.75,10.57.91,5.44,1.47,11.52,3.89,14.56-2.14-1.56-5.75-2.21-7.11-1.04-.41-1.4-3.47-4.06-3.16-7.31,1.07-.61,2-4.69,3.5-2.25-1.58-8.81-2.93,1.48-5.76-.9.75,4.86,2.27,8.65,3.87,11.99,1.59,3.34,3.19,6.24,4.24,9.3l-.81.21,1.88,4.6c.19-3.88,4.18-3.95,3.11,1.12l-.23-.59c-1.51,2.93.76,8.71.75,13.16l2.41,2.9c-.08,4.45-4.33,4.82-6.83,6.35,0,6.92,3.54,10.79,5.77,15.68-1.76,2.28-2.08,12.64-4.41,7.19,1.72,6.18,11.74,4.83,6.27,15.61l-1.81-2.77c.48,10.22,3.96,24.84,1.99,29.53-6.39-3.83-6.72,12.64-13.11,14.3,1.45-.47,1.86,3.34,2.62,3.92-.76.82-1.5,2.19-.24,3.69,1.36-3.92,6.51,2.94,4.11-4.69,4.27,3.93,7.5,8.96,7.06,17.37l-2.63-.21.98-6.63c-1.96.62-1.72-2.8-2.58-4.22-1.81,12.31-6.12-1.77-6.12,10.84,1.67,1.27.99.46,1.56,3.75-.04-1.54-1.84-1.87-1.96.6l2.02,2.45c-4.53,4.25-2.62-7.36-5.83-3.71-1.9-4.92-2.81-13.35-6.21-11.87-1.43,7.87,6.12,7.3,4.32,15.53l-1.46.83c.88,2.94,3.18,3.49,4.53,5.14-.82.12-1.45.84-1.76,2.7,3.2,5.04,3.75,8.33,7.26,13.02-2.32-12.2,2.99-10.24.93-22.83,1.03,1.99,1.54,10.83,5.15,11.5l-2.63-.21c1.21,4.11,2.43,8.24,1.35,13.3l-1.36-3.17c1.55,6.83-4.46,11.06-.3,16.57.32-1.87.3-3.4-.05-4.58,1.03,3.53.57,7.87-.04,11.62l4,8c-1.3-.13-1.61,4.81-3.59,2.33-2.26,5.52,1.54,8.34,2.04,11.61-3.07,5.6-1.01-5.03-4.62-5.76-1.59,7.85-.89,16.27,1.27,20.83.61-1.58,1.1-2.35,1.74-2.23-.84.2-.78,3.39-.89,5.16l1.65,1.3c-1.3,2.9-2.29,2.43-3.46-.14-.47,2.81,2.67,6.33.06,9.12-1.83-4.92.26-10.98-.91-13.55,1.21,10.15-5.69,9.89-4.13,22.76-.83.12-2.31-2.12-2.45.34.36,5.73,3.46,1.66,5.27,3.53-.86-4.44.29-6.43,2.57-8.87l1.34,1.24c-.73.14-.9,2.9-1.64,3.68l2.8.84c-3.12-.48-5.71,3.82-4.71,7.34,2.44-3.39,2.28-2.45,5.89-3.24,3.15,5.03-3.58,5.34-.26,10.97-.99-.46-1.51-5.26-2.48-1.18-.3,3.4,2.16,3.06,2.83,5.39-2.49-2.7-4.46-2.13-7.42-5.07-.04-6.07.15-2.44-.71-8.42l-2.44,4.91c-.18-5.15-2.81-3.87-3.79-4.34-3.07,8.64,3.65,6.79,2.7,12.4,1.66,2.8.63-5.27,2.3-.92-.63,5.26,1.65,1.28,2.5,7.26l-1.15-1.05c-1.64,1.74.19,3.62.35,5.72.68,2.34,9.2-2.18,8.92,7.3-.71-.5-1.16-.69-1.46-.71l-21.49-10.28c-.4,9.6-1.53,20.62-3.53,31.66-4.41,2.41-3.16-8.1-5.12-7.51l1.12-5.03c1.8.37.06,10.64,3.49,6.22-.88-9.01,1.4-12.97-1.95-21.64-4.42,2.43.23,11.22-3.35,16.58.39-2.31,0-4.29-.51-6.21-.81,5.16-1.67,10.68-2.59,16.55l.98,1.37c.67-3.95,1.17-6.69,1.34-7.03-.63,5.25,1.54,9.81,4.67,10.31l.16-.93.89,1.95c-.26,1.23-.52,2.45-.78,3.67Zm-16.95,341.73c-.28-.33-.62-.6-1.05-.81.45.21.75.01,1.05.81Zm11.3-445.48c-.79,7.01-1.98,14.06-2.68,20.8,6.79-11.9,11.9-20.25,10.81.1l.39,1.35c.88-2.62,1.2-7.21.95-11.54-2.04-3.6-9.6-15.25-10.32-15.16-1.8,1.15.02,3.05-.62,5.27l1.47-.82Zm10.64-4.51c.88-3.95-.54-3.11-1.75-3.79.09,1.41.18,2.82.27,4.21.34-.52.79-.76,1.48-.42Zm-3-3.61c-.05.45-.12.83-.3,1.02l.3-1.02Zm-5.24,77.44c-.02-.18-.04-.24-.06-.41-.14.94-.28,1.88-.43,2.86.22-.37.41-1.09.48-2.44Zm3.42-7.95l-2.23-1.05c-.13.87-.26,1.76-.39,2.68,1.04-.25,1.95-.53,2.61-1.62Zm8.69-25.65c-2.64-1.77-2.51-7.26-5.64-7.75-.79-.39-1.15.75-1.47,2.04-.15,1.44-.31,2.98-.48,4.61.45.08.87.42,1.25.99.47-1.6,1.3-2.64,3.2-1.9-4.41,3.96,2.82,3.87,1.53,8.31,2.15,1.53,2.43-4.9,1.61-6.3Zm-19.4-345.35c.24-.18.85-.75,1.58-1.52.72.94,1.45,1.88,2.14,2.82.36,5.74-3.2,10.98,1.5,15.33-.56,2.53-2.38,4.14-3.85,5.62-.07-1.17-.09-2.27.01-3.21-1.98-3.27-2.74-5.41-2.79-6.97-.05-1.56.59-2.53,1.29-3.44,1.41-1.8,3.12-3.34.12-8.64Zm4.65,64.96c-.26-.55-.8-.7-.8-.7,1.8,2.95,3.34,5.8,4.63,8.53,1.26,2.73,2.26,5.34,3.08,7.79.81,2.45,1.41,4.74,1.84,6.85.4,2.11.62,4.03.71,5.73,2.18-1.51,3.42-7.8,4.03-10.81l2.86,2.33-1.88,1.81,2.75,4.28c1.64-1.41.98-5.02,2.05-7.58-.52-.17-4.33-7.64-6.15-9.63l-1.17,6.37c.28-.87.06-3.34-.35-5.99-.41-2.65-1.1-5.46-1.61-7.05-1.31.09-2.64,5.88.25,6.28-1.83.87-2.62-5.54-4.21-1.26-2.64-4.56-1.77-12.39-1.32-16.05l3.15-1.02c.73-4.07-4.25-2.11-3.01-6.98,1.4,5.6,3.41-1.45,4.27,3.05,1.02-1.62,3.41-.49,2.55-5.02-4.77-3.18,1.99-5.19-2.32-8.22.97-2.6,2.96,2.19,2.81-2.61-3.07-5.07-4.62-4.49-7.78-4.33-.1,5.15,4.9,5.02,4.77,9.26l-6.57-7.36c-.52,1.62-.43,2.74-.08,3.64-.56-1.59-1.56-2.86-2.82-3.87-.71-.58-1.33-1.12-1.86-1.62.68,4.6,1.22,8.69,0,9.61l-1.6-.41c-1.14,1.83.36,4.3,1.63,5.37.72,4.09,3.38,7.92,1.55,9.08l-1.59-1.38c1.12,5,1.41,5.53,2.17,11.91Zm2.35,167.06c5.65-2.93,10.73-6.24,10.03-20.77l.36,1.15c1.84-3.62.7-7.22-.36-10.99-1.05-3.78-2.09-7.73-.13-12.17,2.08,4.33,1.92,4.09,6.67,8.91l-1.54-4.66c3.03,1.31,1.48-3.34,1.64-6.75l3.6,3.03c-1.05,2.05-1.44,7.37-.63,7.22-.38-1.16-4.65,6.97-3.66,11.41,2.45-.42,1.58-9.82,5.53-5.58-1.64-3.72.83-4.15,0-8.03,1.65,3.73,3.33.94,5.09,3.73l-.79-6.37c.83-.16,1.75,9.29,4.81,4.1-1.27-2.57.37-9.39-2.27-9.52l.81-.16c.58-4.78-3.71-2.1-2.24-7.97-1.33-.06-2.24,1.06-1.95,3.16.6,1.77,2.4,2.04,2.76,5.7-2.07,1.63.27-4.41-3.23-1.88-1.74,1.25,1.46,9.64-2.45,6.95l.59-4.75c-2.64-.13-2.48-3.57-4.61-3.47-.96-2.89,1.98-5.64-.33-8.59-1.72-1.22-4.88.94-3.52-3.95,1.96-1.92,2.68-5.71,2.84-9.54.17-3.83-.22-7.7-.58-9.8l-1.79-3.65c-1.61.36.42,7.05-1.75,4.73l-.8-5.73,1.03.41c.17-1.91-.97-3.83-1.6-5.54,1.95,1.72,1.3,5.89,4.03,4.99.47-2.72,1.47-3.17.88-5.64.21.54.49,1,.88.92.99-5.53-3.28-5.18-4.23-6.52-3.8-5.34-3.09,5.66-5.95,5.05-.74-5.3-1.39-10.59-2.2-15.87.96,1.31,1.93,2.64,3.03,2.07,1.06-3.98,2.13-.19,1.7-5.69-3.74.6-2.68-6.8-5.15-10.53,1.41-1.91,1.69-2.31,2.01,1.65,2.4-.61,1.1-5.88,1.2-7.79-.69-1.05-1.15-2.9-1.8-4.04-1.08,1.68-2.66,1.11-3.99-2.22l-.53-.16c-.07,2.82-.67,6.46-.88,9.8-.22,3.34-.03,6.39,1.31,8.07l-1.26-.92c-1.77,6.58,5.17,13.89.65,17.1-1.83-.2-.37,1.32-3.01,1.32l2.25,4.68-1.23-.95c.31,2.69.62,5.39.88,8.09l-.5-.2c2.5,3.78,4.53,6.77,6.19,9.16,1.15-.02,1.5-.28,2.38,1,.59,1.29.69,2.27.56,3.16t.01,0h-.01c-.3,2.01-1.93,3.38-2.56,5.85l-.41-7.58c-1.96-.58-3.98.11-5.28,3.84-.1-1.51-1.63-2.12-1.83-.24.51.19,1.33,4.92,2.86,3.09.85,7.19-4.23,18.81-.59,29.72-2.2-7.84-2.64,6.25-3.41-2.44-3.14,6.03,3.04,5.24,2.48,11.43-1.13.51.19-3.37-2.01-4.81-1.37,10.25,4.8,17.44,3.61,27.4l-2.45.37c.26,1.89.54,4,.84,6.19Zm2.4,19.83c.2,1.93.41,3.89.62,5.88.05-.19.05-.37.09-.57l1.74,5.85c1.09-3.51,3.85-5.76,4.91-.73-.99-.46-2.28.95-2.8-.8-1.59,3.28-3.31,10.52.45,8.77-3.21-6.55,4.75-1.3,2.37-6.44,2.29,2.8,1.09,5.43,2.06,8.03-1.9-2.74-4.57.43-5.69,4.38.52,1.76-.26,6.43.58,9.36,2.3-.93,3.47,1.64,4.25-3.03.52,1.75.86,4.44-.42,7.38-.33-1.2-.52-3.29-1.34-3.18-2.15,1.84-2.16,4.1-3.11,5.3.07,1,.15,2.01.22,2.99.21-.28.48-.52.81-.69l1.83,3.39c-.85-4.45,1.13-1.99,2.45-1.87-2.63-.24-.47,2.82-.46,4.33l2.93-3.14c1.32,1.65-2.27,5.49.53,4.79,1.42-6.89,1.08-9.58.53-15.91l-2.27,2.45c-1.22-7.16,3.9-4.21,4.15-12.17-1.84-3.39.36-11.98-3.59-12.31,1.17,1.05,3.7-4.82,2.02-7.62-3.49-3.15-3.67-12.28-5.41-9.58-.12,2.46,1.74,5.85-.69,7.74l-.57-4.8-2.09,3.06c.77-1.59-1.16-1.5-4.09-.87Zm-26.98,105.63c-.02.05-.04.12-.06.18.02-.07.02-.14.02-.2l.04.02Z"/>
      <path class="cls-1" d="m411.32,59.64c-1.21-1.07-2.04-4.34-3.71-3.17,1.01-.33,1.52,1.08,1.98,2.27.44,1.19.85,2.16,1.73.9Z"/>
      <path class="cls-1" d="m412.21,55.19c-.56-.09-1.29.3-1.79-1.13l1.69,3.85.1-2.71Z"/>
      <path class="cls-1" d="m425,47.04c-2.14-1.65-3.39-2.72-4.22-6.05,4.61-2.73,2.97,4.97,8.06,5.1-1.31-6.21-6.19-6.77-8.17-11.56-1.25,3.08.49,13.43,4.32,12.51Z"/>
      <polygon class="cls-1" points="432.09 47.89 429.97 44.84 429.78 45.26 431.9 48.31 432.09 47.89"/>
      <path class="cls-1" d="m405.86,130.85c-1.53.61.46,2.34,1.04,3.37-.06-.91.12-2.25-1.04-3.37Z"/>
      <path class="cls-1" d="m399.35,802.05l.32,26.43c-.05-7.6.08-14.62-.32-26.43Z"/>
      <path class="cls-1" d="m428.71,213.63c-1.11-3.38-2.44-5.76-3.67-8.16-.62-1.2-1.2-2.4-1.73-3.74-.55-1.33-1.03-2.8-1.42-4.52-1.06,4.77.5,7.66,2.05,10.39,1.54,2.72,3.09,5.29,1.78,9.32l2.99-3.28Z"/>
      <path class="cls-1" d="m415.56,212.46c2.93-1.43,4.1,4.92,6.23,3.72-1.21-4.54-3.12-1.87-3.28-6.07l-2.95,2.35Z"/>
      <polygon class="cls-1" points="462.07 174.89 463.94 176.86 463.13 175.18 462.07 174.89"/>
      <path class="cls-1" d="m420.77,243.35l-.74-.71c-.24,1.16-.51,2.33-.77,3.5l1.51-2.78Z"/>
      <path class="cls-1" d="m419.28,241.93l.76.71-.76-.71Z"/>
      <polygon class="cls-1" points="468.96 176.83 469.16 173.48 467.55 172.06 468.96 176.83"/>
      <path class="cls-1" d="m455.97,207.3l-1.26-2.77c.25.55-.61,4.6,1.26,2.77Z"/>
      <polygon class="cls-1" points="420.51 264.46 421.82 267.79 422.11 267.44 420.8 264.11 420.51 264.46"/>
      <path class="cls-1" d="m466.35,229.21c2.21-2.19,1.03,5.76,2.82,1.47-.61-3.66-1.74-2.07-2.82-1.47Z"/>
      <path class="cls-1" d="m452.59,272.37c.01.47.11.96.39,1.43-.12-.57-.25-1.04-.39-1.43Z"/>
      <path class="cls-1" d="m452.59,272.37c-.04-1.52.82-3.06.1-4.08-1.01,1.93-.59,2.6-.1,4.08Z"/>
      <path class="cls-1" d="m453.54,289.74l.14-1.38c1.18,1.39,1,.72.05-.52-.1-1.46-.85-1.36-1.36-1.53-.3-.29-.6-.57-.93-.88.31.44.61.84.87,1.18.02,2.26.16,3.63,1.22,3.12Z"/>
      <path class="cls-1" d="m413.46,353.24c1.01-4.96,1.46-6.24,3.28-5.92.68-4.71-2.48-4.05-3.15-6.9.24,5.35-.6,6.41-.13,12.83Z"/>
      <path class="cls-1" d="m413.59,340.41c-.02-.6-.05-1.17-.11-1.86-.07.77,0,1.35.11,1.86Z"/>
      <polygon class="cls-1" points="473.01 268.76 475.89 271.89 475.47 270.72 473.01 268.76"/>
      <path class="cls-1" d="m412.34,360.6c.14-.92.1-2.4.75-3.11-1.83-.32-.88,4.03-.75,3.11Z"/>
      <path class="cls-1" d="m448.6,342.14c1.13-.49.53-3.75.98-5.06-.27,1.89-3.67,3.37-.98,5.06Z"/>
      <path class="cls-1" d="m419.41,375.19c.15-.93,1.42-2.31,2.91-1.64-.85-1.38-4.01-3.32-2.91,1.64Z"/>
      <polygon class="cls-1" points="448.07 351.38 448.71 350.68 447.62 347.18 448.07 351.38"/>
      <path class="cls-1" d="m475.29,339.52c-2.1-3.98-5.38,6.16-7.09-.67-2.46,8.7,3.1-.61,2.61,5.84.81-3.77,3.6-5.58,4.47-5.17Z"/>
      <path class="cls-1" d="m470.82,344.7c-.13.55-.2,1.14-.22,1.79.12-.71.18-1.29.22-1.79Z"/>
      <path class="cls-1" d="m455.22,399.42c-.21-.58-.44-.97-.68-1.34.16.45.37.89.68,1.34Z"/>
      <path class="cls-1" d="m472.08,365.36l-3.1-5.99c2.09,4.01,1.6,13.9,4.89,13.39.77-3.19.03-7.08-1.33-8.71l-.46,1.31Z"/>
      <path class="cls-1" d="m410.33,430.01l-1.17-2.58-.53,3.13c.53-.88,2.84.86,1.7-.55Z"/>
      <path class="cls-1" d="m408.54,431.16l.1-.6c-.09.13-.13.32-.1.6Z"/>
      <path class="cls-1" d="m454.1,388.29c.3-1.88.27-3.4-.25-5.14-.64.69-1.39,5.38.25,5.14Z"/>
      <polygon class="cls-1" points="414.23 447.99 413.86 443.8 413.89 448.35 414.23 447.99"/>
      <polygon class="cls-1" points="407.77 467.16 407.13 467.85 408.13 471.36 408.78 470.66 407.77 467.16"/>
      <path class="cls-1" d="m472.99,444.78c.48-2.81-2.34-5.15-2.99-4.44l-.13,5.48c2.62-1.27,0-1.52.79-4.67l2.33,3.63Z"/>
      <path class="cls-1" d="m405.72,611.64c-1.65-1.3-.38-7.25,1.26-7.48.66.84,1.19,4.12,2.32,2.13l-3.97-4.94c2.91-6.18,5.29,5.05,6.62,8.23.85-6.39-1.82-8.43-1.48-15.26-.47,2-1.58,3.22-2.53,4.24-2.96.09-1.36-6.21-1.37-10.77-1.42,2.84-2.42,1.11-3.48-1.06-.07-.38-.23-.64-.42-.83-.13-.25-.25-.49-.38-.74l-.02.55c-.33-.05-.73.05-1.3.41.68,3.86-1.93,6.66-2.08,9.12,4.91-2.2.71,8.42,2.04,11.58l.3,3.59-.05,1.33c-.54.24-1.18-.17-2.04-2.25.87,1.74.27,7.39,1.83,6.94l-.54,12.93c-.22.39-.48.78-.84,1.07.28.46.52.55.77.5l-2.36,56.32c.51-2.76,1.72-5.11,2.38-7.95,2.98,4.45.8-4.67,3.75-3.27,1,1.98.53,4.8-.29,6.45,1.49.7,2.95-1.64,4.76-1.27,2.25-7.01-4.98-8.44-3.54-15.33,1.81.36,3.3,2.58,3.27-1.97l.34,1.17c-1.7-7.37,4.39-5.47-.39-10.29l2.63.24c-1.83-3.4-1.54-9.82-1.73-13.45l.5.24c-2.53-10.3-.37-5.73-1.09-17.19l2.82,5.39c1.46-3.87-1.84-4.92-1.36-7.73.5.23,2.46-.34,2.81,2.35l-4.03-14.06c-1.83-3.4-1.97.58-3.11,1.04Z"/>
      <path class="cls-1" d="m410.46,594.32c.17-.73.27-1.55.22-2.54-.13.94-.18,1.76-.22,2.54Z"/>
      <path class="cls-1" d="m397.83,691.22l.17-3.96c-.22,1.22-.33,2.49-.17,3.96Z"/>
      <path class="cls-1" d="m405.65,574.22c-1.48,2.33-1.82-1.89-2.81-2.35l-.36,8.59c1.02.01,2.11.91,3.05.78l.12-7.03Z"/>
      <path class="cls-1" d="m400.45,582.86c.69.32,1.28,1.26,1.83,2.31l.2-4.71c-.76,0-1.48.49-2.03,2.4Z"/>
      <polygon class="cls-1" points="454.63 584.52 454.65 586.04 455.33 588.38 454.63 584.52"/>
      <path class="cls-1" d="m449.05,608.09c1.62-1.74.62-5.25.28-6.42-.14,3.97-.64,2.23-.28,6.42Z"/>
      <polygon class="cls-1" points="465.76 603.97 466.45 607.84 466.77 607.49 465.76 603.97"/>
      <path class="cls-1" d="m406.81,720.95c.03.63.05,1.24.08,1.88.05-.86,0-1.42-.08-1.88Z"/>
      <path class="cls-1" d="m405.86,687.98c-3.39,8.99-2.17-6.1-6.1-3.41l1.02,5.03-1-.47.04,6.08c1.8-1.16,1.95-2.09,3.76-1.73-1.1,8.06-2.29,2.45-4.87,8.28l-.1,9.06-.51-.76c0,.76.22,1.11.5,1.39l-.31,30.53c1.19,5.61,3.43-2.91,5.92,1.31.29-6.43,2.69-15.89-.92-16.6.49.24,1.48.71,1.97-.57l-2.82-3.86-1.12,3.5c-2.81-3.88-1.57-15.92.39-18.01.69,6.91,4.45,3.64,2.04,13.11.94-.39,2.65-2.06,3.05.12-.53-11.25,1.61-21.22-.95-32.97Z"/>
      <path class="cls-1" d="m402.28,800.45l-.32-.1c.17.21.29.28.32.1Z"/>
      <path class="cls-1" d="m402.91,796.71l-3.31-5.63-.12,8.53,2.47.74c-.6-.78-1.73-3.83-.69-4.94l1.65,1.3Z"/>
      <path class="cls-1" d="m397.75,784.63c.86,4.45,3.81,4.35,5.27,2.01,1.18,4.1-3.27,1.98-.29,4.91,2.13,0,1.12-5.03.78-6.19l-5.76-.73Z"/>
      <polygon class="cls-1" points="400.84 752.27 402 753.56 402.47 750.53 400.84 752.27"/>
      <path class="cls-1" d="m402,753.56l-.47,3.01c.92-.17,1.81-.33,2.45-.8l-1.98-2.21Z"/>
      <path class="cls-1" d="m400.3,764.46c-.28,1.27-.51,2.68-.68,4.4l.68-4.4Z"/>
      <path class="cls-1" d="m401.22,761.04l-.39.08-.52,3.34c.29-1.23.59-2.32.91-3.42Z"/>
      <path class="cls-1" d="m401.53,756.57c-2.09.39-4.28.87-3.92,5.26l3.21-.71.7-4.56Z"/>
      <polygon class="cls-1" points="461.33 631.66 462.34 635.18 462.67 634.83 461.67 631.32 461.33 631.66"/>
      <path class="cls-1" d="m458.5,651.53c.32.87.67,1.54,1.04,2.15-.19-.91-.49-1.64-1.04-2.15Z"/>
      <path class="cls-1" d="m471.89,667.03c-2.27,3.97-2.48-5.74-3.76,1.75-1.96.57-4.29-3.08-3.16-6.58,1.81.37,1,3.51,2.96,1.42-1.99-2.45-.52-3.28-3.3-2.59-1.52-4.04-3.45-4.58-5.11-7.35.98,4.85-2.31,14.77.92,21.02,3.14,3.51,7.73,1.69,12.49,1.93,1.14-.45,2.09-9.11-1.05-9.59Z"/>
      <path class="cls-1" d="m476.95,660.85c.32-1.87.16-2.46-.18-3.63-1.64.23.18,2.1.18,3.63Z"/>
      <path class="cls-1" d="m439.06,702.41c.66.39,1.34,3.84,2.54,3.16l-.61-5.2c-.17,1.21-1.02,1.59-1.93,2.04Z"/>
      <path class="cls-1" d="m440.73,698.09l.26,2.28c.08-.56.02-1.27-.26-2.28Z"/>
      <path class="cls-1" d="m438.62,702.64c.14-.08.29-.14.43-.23-.14-.08-.29-.07-.43.23Z"/>
      <path class="cls-1" d="m398.52,776.94c-1.3-.13-.63,2.2-.3,3.38.15-.93.65-2.23.3-3.38Z"/>
      <path class="cls-1" d="m399.56,863.79l-1.14,1.98c.65-.69.98-1.04,1.14-1.98Z"/>
      <path class="cls-1" d="m433.76,896.81c.25.07.46.23.65.44-.15-.21-.36-.36-.65-.44Z"/>
      <path class="cls-1" d="m434.4,897.25c1.02,1.44-.87,5.65.71,7.27l-.5-.22.85,2.92c-.02-2.7.45-8.33-1.06-9.96Z"/>
    </g>
  </g>
</svg>