<?xml version="1.0" encoding="UTF-8"?>
<svg id="Lag_2" data-name="Lag 2" xmlns="http://www.w3.org/2000/svg" viewBox="0 0 192 88.62">
  <defs>
    <style>
      .cls-1 {
        fill: #fdfff7;
        stroke: #000;
        stroke-miterlimit: 10;
        stroke-width: 3px;
      }

      .cls-2 {
        fill: #ee7202;
        font-family: BrushScriptMT, 'Brush Script MT';
        font-size: 23.52px;
      }
    </style>
  </defs>
  <g id="Lag_1-2" data-name="Lag 1">
    <g>
      <path class="cls-1" d="m112.64,35.9c4.8.84,9.73-1.01,13.68.88-2.26,1.31-5.36.13-8.2.49-20.86-.54-59.1.76-80.07-.81-5.77-.4-1.25,11.17-2.53,15.99,2.01,2.34-1.55-10.84,2.15-9.5.56,3.08-.87,8.41.83,10.4.83-3.14-2.32-11.02,2.25-10.6.16.57.16,9.72.01,10.6-1.98-16.29,13.72-9.25,26.23-11.03-8.42.03-16.84.18-25.26.15-2.79-4.82,9.87-1.42,10.11-2.65-23.16-.79,3.04-3.84,12.79-2.49,8.11,1.64,23.94-3.28,28.16,2.26-7.17-1.36,5.45,2.73-1.89,4.75,2.93-.51,3.18,5.91-.45,4.7-.74-.98-.88.1-.34,1.28-.02,1.33.79-3.11,2.86-.57.66,2.69,7.26-.05,9.96.79,17.71-8.68,7.78,27.47-14.72,23.97-20.78-11.31-33.39,10.24-52.91,12.54C-3.44,89.56-7.9,25.24,16.91,6.22c19.5-13.45,36.7,5.63,54.47,10.6,18.22-8.1,39.97-4.39,41.27,19.08Z"/>
      <text class="cls-2" transform="translate(42.49 51.48) rotate(-.28) scale(1.51 1)"><tspan x="0" y="0">vksehested</tspan></text>
      <path class="cls-1" d="m162.4,48.95c1.92-6.42,1.92-7.42,10.5-7.61,2.65-1.07,8.93.92,7.78-3.33-3.69-1.28,1.81,3.34-7.44,3.07-2.68-.39-9.35,2.83-9.71-.16,3.95.41,9.1-.73,4.64-2.69-3.66.98-5.94,1.04-3.14-2.16-.5-.89-1.19-2.3.39-2.52.77,1.43,7.89.91,4.8,1.73.06,2.17,1.52-1.76,3.47-.81,1.57-.86,4.34,1.34,2.34.33-.76,1.19-.03.9.95.92.24-1.15-1.08-1.54,0-2.42,1.93-.34,3.89-.54,5.9-1.34,6.34,4.72,10.88,11.38,4.68,18.29-1.34,1.71-4.55-.48-6.03,1.32-1.57,1.11-3.56.92-3.83-.77-1,.55-4.47,2.79-5.5-.07-1.64.26-5.28,2.61-5.39-.21-2.5,2.39-1.46-1.05-4.38-1.55Zm12.69-11.06c-1.85-.17-2.1.76-.78,1.84,1.28,2.18.81-.71.78-1.84Zm5.99-2.25c.74.19,2.07-.61,1.02-.24-.19-.96-.81-.45-1.02.24Zm-2.38-1.89c.04-.32-.03-.49-.37-.54-.04.29-.06.52.37.54Zm1.01,17.64c.25-.22.3-.33.01-.48-.26.07-.16.27-.01.48Zm-11.11-.47c.27-.19.16-.25,0-.43-.25.07-.1.23,0,.43Zm5.69.19c.07-.16.12-.29-.05-.32-.2.12-.14.18.05.32Zm-9.32-4.88c-.08-.07-.15-.13-.19,0,.03.16.08.12.19,0Zm2.94,4.15c-.11-.01-.19-.05-.22.08.12.03.18.07.22-.08Zm16.16-14.57c.08-.22-.33-.11-.19.01.06,0,.13,0,.19-.01Z"/>
    </g>
  </g>
</svg>