<?xml version="1.0" encoding="UTF-8"?>
<svg id="Lag_2" data-name="Lag 2" xmlns="http://www.w3.org/2000/svg" viewBox="0 0 399.67 182.69">
  <defs>
    <style>
      .cls-1 {
        fill: #fdfff7;
        stroke: #000;
        stroke-miterlimit: 10;
        stroke-width: 3px;
      }

      .cls-2 {
        fill: #ee7202;
        font-family: BrushScriptMT, 'Brush Script MT';
        font-size: 49.37px;
      }
    </style>
  </defs>
  <g id="Lag_1-2" data-name="Lag 1">
    <g>
      <path class="cls-1" d="m234.69,72.86c10.09,1.7,20.42-2.21,28.73,1.71-4.73,2.77-11.25.32-17.21,1.12-43.79-.92-124.04,2.2-168.06-.88-12.12-.79-2.52,23.45-5.15,33.58,4.24,4.89-3.36-22.74,4.42-19.97,1.2,6.46-1.73,17.65,1.85,21.81,1.7-6.61-4.98-23.1,4.61-22.26.34,1.19.44,20.4.13,22.24-4.33-34.17,28.71-19.55,54.94-23.43-17.67.14-35.33.55-53.01.59-5.9-10.09,20.71-3.09,21.19-5.67-48.62-1.42,6.34-8.09,26.81-5.36,17.05,3.36,50.22-7.13,59.12,4.45-15.06-2.79,11.47,5.67-3.91,9.99,6.15-1.11,6.74,12.38-.89,9.87-1.57-2.04-1.84.22-.71,2.7-.04,2.8,1.62-6.53,6.01-1.23,1.41,5.64,15.24-.18,20.91,1.56,37.07-18.4,16.62,57.57-30.65,50.47-43.73-23.53-69.97,21.85-110.93,26.87C-8.39,186.69-18.43,51.74,33.44,11.55c40.78-28.44,77.09,11.44,114.43,21.68,38.16-17.19,83.85-9.64,86.82,39.62Z"/>
      <text class="cls-2" transform="translate(87.6 106.28) rotate(-.57) scale(1.51 1)"><tspan x="0" y="0">vksehested</tspan></text>
      <path class="cls-1" d="m339.25,99.73c3.95-13.49,3.96-15.6,21.96-16.07,5.55-2.28,18.76,1.84,16.29-7.07-7.76-2.65,3.83,6.99-15.58,6.52-5.63-.79-19.6,6.03-20.37-.24,8.29.82,19.09-1.62,9.7-5.7-7.68,2.09-12.46,2.24-6.62-4.5-1.05-1.87-2.53-4.82.8-5.29,1.63,3,16.58,1.83,10.08,3.58.14,4.56,3.17-3.71,7.27-1.74,3.29-1.82,9.12,2.76,4.92.66-1.59,2.51-.05,1.9,1.99,1.93.49-2.41-2.29-3.23-.04-5.08,4.05-.73,8.15-1.17,12.37-2.88,13.35,9.84,22.95,23.77,10.01,38.33-2.8,3.6-9.56-.95-12.65,2.83-3.28,2.35-7.47,1.96-8.06-1.58-2.09,1.17-9.35,5.91-11.55-.1-3.44.57-11.05,5.53-11.32-.39-5.23,5.04-3.07-2.2-9.21-3.21Zm26.52-23.34c-3.89-.34-4.39,1.63-1.62,3.88,2.7,4.55,1.69-1.49,1.62-3.88Zm12.56-4.78c1.55.39,4.33-1.3,2.14-.52-.41-2.01-1.7-.94-2.14.52Zm-5.02-3.95c.08-.67-.07-1.04-.78-1.12-.09.61-.12,1.09.78,1.12Zm2.3,37.01c.52-.47.63-.7.02-1-.55.16-.34.56-.02,1Zm-23.33-.86c.57-.39.34-.53,0-.91-.51.15-.21.49,0,.91Zm11.94.33c.14-.35.24-.61-.11-.68-.43.25-.29.38.11.68Zm-19.61-10.15c-.17-.14-.31-.27-.39-.02.07.33.17.26.39.02Zm6.2,8.67c-.23-.03-.4-.1-.47.17.24.05.38.15.47-.17Zm33.76-30.75c.17-.46-.69-.23-.41.03.13.01.27-.01.41-.03Z"/>
    </g>
  </g>
</svg>